<!-- Generator: Adobe Illustrator 24.1.2, SVG Export Plug-In . SVG Version: 6.00 Build 0)  -->
<xml version="1.0" standalone="no">
<svg version="1.1" id="Layer_1" xmlns="http://www.w3.org/2000/svg" xmlns:xlink="http://www.w3.org/1999/xlink" x="0px" y="0px"
	 viewBox="0 0 300.9 300.9" style="enable-background:new 0 0 300.9 300.9;" xml:space="preserve">
<style type="text/css">
	.brain__st0{fill:#1DFE98;}
</style>
<g>
	<g>
		<g>
			<path class="brain__st0" d="M125.4,175.9c-14.5,0-26.3-11.8-26.3-26.3c0-14.5,11.8-26.3,26.3-26.3s26.3,11.8,26.3,26.3
				C151.6,164.1,139.8,175.9,125.4,175.9z M125.4,128.8c-11.5,0-20.8,9.3-20.8,20.8c0,11.5,9.3,20.8,20.8,20.8
				c11.5,0,20.8-9.3,20.8-20.8C146.1,138.1,136.8,128.8,125.4,128.8z"/>
		</g>
		<g>
			<path class="brain__st0" d="M180,175.9c-14.5,0-26.3-11.8-26.3-26.3c0-14.5,11.8-26.3,26.3-26.3c14.5,0,26.3,11.8,26.3,26.3
				C206.2,164.1,194.4,175.9,180,175.9z M180,128.8c-11.5,0-20.8,9.3-20.8,20.8c0,11.5,9.3,20.8,20.8,20.8
				c11.5,0,20.8-9.3,20.8-20.8C200.7,138.1,191.4,128.8,180,128.8z"/>
		</g>
		<g>
			<rect x="146.1" y="144.1" class="brain__st0" width="13.1" height="11"/>
		</g>
		<g>
			<rect x="200.7" y="144.1" class="brain__st0" width="18.8" height="11"/>
		</g>
		<g>
			<rect x="85.4" y="144.1" class="brain__st0" width="18.8" height="11"/>
		</g>
	</g>
	<path id="CUBE_1_" class="brain__st0" d="M151.8,297.5c-2.3,0-4.7-0.6-6.7-1.7L32.4,226.2c-4.1-2.3-6.7-6.8-6.6-11.6L22.4,81.8
		c0-4.8,2.5-9.1,6.7-11.6L145.4,8c4.1-2.3,9.2-2.3,13.3,0l116.2,63c4.1,2.3,6.6,6.8,6.6,11.6l-3.6,132.3c0,4.8-2.5,9.1-6.7,11.6
		l-112.8,69.3C156.4,296.9,154.1,297.5,151.8,297.5z M32.4,86.4c-1.4-0.6-2.8,0.4-2.8,1.8l-1.1,126.6c0,3.6,1.9,7,5,8.8L144,286.8
		c1.3,0.7,2.9-0.1,3-1.7l5.3-64.5l4.4,64.5c0.1,1.5,1.7,2.3,3,1.7L271,223c3.1-1.8,4.7-5.1,4.7-8.8l-2-125.6c0-1.5-1.5-2.4-2.8-1.8
		L222,107l44-28.5c1.3-0.8,1.3-2.6,0-3.5L157.3,9.8c-1.6-0.9-3.3-1.4-5-1.4s-3.5,0.5-5,1.4l-109.5,65c-1.3,0.8-1.3,2.6,0,3.5
		L81.9,107L32.4,86.4z"/>
</g>

</svg>
