<!-- Generator: Adobe Illustrator 24.1.2, SVG Export Plug-In . SVG Version: 6.00 Build 0)  -->
<xml version="1.0" standalone="no">
<svg version="1.1" id="Layer_1" xmlns="http://www.w3.org/2000/svg" xmlns:xlink="http://www.w3.org/1999/xlink" x="0px" y="0px"
	 viewBox="0 0 300.9 300.9" style="enable-background:new 0 0 300.9 300.9;" xml:space="preserve">
<style type="text/css">
	.cube__st3{fill:#2EFDDB;}
</style>
<g id="BLACK_6_">
	<g id="CUBE_x5F_LETTERS_6_">
		<path class="cube__st3" d="M95.5,90.6c1.2-1.1,2.4-1.5,3.8-1.5h50.3v10.3h-44.8l-0.1,31h44.8v10.3H99.2c-1.4,0-2.6-0.5-3.8-1.5
			c-1.2-1.1-1.6-2.2-1.6-3.6l0.1-41.4C93.9,92.8,94.5,91.6,95.5,90.6z"/>
		<path class="cube__st3" d="M163.7,89v42.5h39.8V89h10v47.1c0,1.3-0.5,2.3-1.4,3.2c-1,0.9-2.1,1.4-3.5,1.4h-49.8c-1.3,0-2.4-0.5-3.5-1.4
			c-1.1-0.9-1.5-2-1.5-3.2V89H163.7z"/>
		<path class="cube__st3" d="M103.5,166.1l29.4-10.5c5.4-1.9,9.5-2.9,12.2-2.9c3,0,4.5,1.4,4.5,4.3v35.4c0,1.2-0.5,2.2-1.4,3.1
			c-1,0.9-2,1.4-3.2,1.4H98.4c-1.3,0-2.3-0.5-3.3-1.4c-1-0.9-1.4-1.9-1.4-3.1v-48.5h9.7C103.5,143.9,103.5,166.1,103.5,166.1z
			 M140.2,163.1l-37.1,12.5V188h37.1V163.1z"/>
		<path class="cube__st3" d="M154.7,173.3l19.6-28.1h39V176h-29v-10.3h18.2v-10.1h-22.3l-15.7,22.2v8.8h48.9v10.3h-54.3
			c-1.4,0-2.6-0.5-3.8-1.5c-1.2-1.1-1.6-2.2-1.6-3.6v-15.5C153.7,175.2,154.1,174.2,154.7,173.3z"/>
	</g>
	<g id="PHRASE_6_">
		<path class="cube__st3" d="M96.8,208.9c0,0.6-0.5,1-1.1,1l0,0h-0.7c-0.6,0-1.1-0.4-1.1-1v-6.8c0-0.1,0.1-0.2,0.3-0.2H95v6.9
			c0,0.2,0.2,0.4,0.5,0.4h0.1c0.3,0,0.5-0.2,0.5-0.4V202h0.9L96.8,208.9L96.8,208.9z"/>
		<path class="cube__st3" d="M104.2,209c-0.1,0.2-0.2,0.5-0.3,0.6c-0.1,0.1-0.2,0.2-0.5,0.2h-2v-7.9h0.6c0.1,0,0.3,0.1,0.3,0.3v6.9
			L104.2,209L104.2,209z"/>
		<path class="cube__st3" d="M110.4,202.6c0,0.1-0.2,0.2-0.5,0.2h-0.7c-0.1,0-0.2,0.1-0.2,0.2v7h-0.6c-0.2,0-0.2-0.1-0.2-0.2v-7h-1.2v-0.6
			c0-0.1,0.1-0.3,0.3-0.3h3.4L110.4,202.6z"/>
		<path class="cube__st3" d="M115.1,202c0.3,0,0.4,0.2,0.4,0.3v7.6h-0.6c-0.2,0-0.2-0.1-0.3-0.2V202H115.1z"/>
		<path class="cube__st3" d="M123.5,209.9h-0.9v-4.1l-0.7,2.7h-0.3c-0.5,0-0.6-0.5-0.7-0.7l-0.5-2v4.1h-0.9V202h0.5c0.3,0,0.4,0.3,0.4,0.3
			l1,4.5l1-4.5c0,0,0.1-0.3,0.4-0.3h0.5v7.9H123.5z"/>
		<path class="cube__st3" d="M130.3,209.9h-1l-0.8-5.5l-0.8,5.5h-1l1.3-7.9h0.5c0.4,0,0.4,0.2,0.5,0.4L130.3,209.9z"/>
		<path class="cube__st3" d="M136.8,202.6c0,0.1-0.2,0.2-0.5,0.2h-0.7c-0.1,0-0.2,0.1-0.2,0.2v7h-0.6c-0.2,0-0.2-0.1-0.2-0.2v-7h-1.2v-0.6
			c0-0.1,0.1-0.3,0.3-0.3h3.4L136.8,202.6z"/>
		<path class="cube__st3" d="M143.6,209c-0.1,0.2-0.2,0.5-0.3,0.6c-0.1,0.1-0.2,0.2-0.5,0.2h-1.9v-7.7c0-0.1,0.1-0.2,0.3-0.2h2.2l-0.3,0.6
			c0,0.1-0.2,0.2-0.5,0.2h-0.7c-0.1,0-0.2,0.1-0.2,0.2v2.3h1.3c-0.1,0.2-0.2,0.6-0.3,0.6c-0.1,0.1-0.2,0.2-0.5,0.2h-0.4
			c-0.1,0-0.2,0.1-0.2,0.2v2.7h1.9V209z"/>
		<path class="cube__st3" d="M157.5,208.9c0,0.6-0.5,1-1.1,1h-0.5c-0.6,0-1.1-0.5-1.1-1v-6.1c0-0.6,0.5-1,1.1-1h0.5c0.6,0,1.1,0.5,1.1,1
			v1.3c0,0.3-0.1,0.4-0.2,0.4l-0.6,0.3V203c0-0.2-0.2-0.4-0.5-0.4c-0.3,0-0.5,0.2-0.5,0.4v5.8c0,0.3,0.2,0.5,0.5,0.5
			c0.3,0,0.5-0.2,0.5-0.5v-1.1c0-0.3,0.1-0.4,0.2-0.5c0.1,0,0.4-0.2,0.6-0.3V208.9z"/>
		<path class="cube__st3" d="M164.2,202c0.3,0,0.4,0.2,0.4,0.3v7.6h-0.9v-3.5c0-0.1-0.1-0.2-0.2-0.2h-1v3.7h-0.9v-7.6
			c0-0.1,0.1-0.3,0.4-0.3h0.5v3.2c0,0.2,0.1,0.3,0.3,0.3h0.9V202H164.2z"/>
		<path class="cube__st3" d="M171.8,209.9h-1l-0.8-5.5l-0.8,5.5h-1l1.3-7.9h0.5c0.4,0,0.4,0.2,0.5,0.4L171.8,209.9z"/>
		<path class="cube__st3" d="M178.6,209c-0.1,0.2-0.2,0.5-0.3,0.6c-0.1,0.1-0.2,0.2-0.5,0.2h-2v-7.9h0.6c0.1,0,0.3,0.1,0.3,0.3v6.9
			L178.6,209L178.6,209z"/>
		<path class="cube__st3" d="M185.1,209c-0.1,0.2-0.2,0.5-0.3,0.6c-0.1,0.1-0.2,0.2-0.5,0.2h-2v-7.9h0.6c0.1,0,0.3,0.1,0.3,0.3v6.9
			L185.1,209L185.1,209z"/>
		<path class="cube__st3" d="M191.6,209c-0.1,0.2-0.2,0.5-0.3,0.6c-0.1,0.1-0.2,0.2-0.5,0.2h-1.9v-7.7c0-0.1,0.1-0.2,0.3-0.2h2.2l-0.3,0.6
			c0,0.1-0.2,0.2-0.5,0.2h-0.7c-0.1,0-0.2,0.1-0.2,0.2v2.3h1.3c-0.1,0.2-0.2,0.6-0.3,0.6c-0.1,0.1-0.2,0.2-0.5,0.2h-0.4
			c-0.1,0-0.2,0.1-0.2,0.2v2.7h1.9V209z"/>
		<path class="cube__st3" d="M198.4,209.9H198c-0.5,0-0.5-0.4-0.6-0.5l-0.9-4v4.4h-0.9V202h0.4c0.5,0,0.6,0.2,0.6,0.5l0.9,4.2v-4.5h0.9
			V209.9z"/>
		<path class="cube__st3" d="M205.4,204.1c0,0.3-0.1,0.4-0.2,0.5c-0.1,0-0.4,0.2-0.6,0.3V203c0-0.2-0.2-0.4-0.5-0.4
			c-0.3,0-0.5,0.2-0.5,0.4v5.8c0,0.2,0.2,0.4,0.5,0.4c0.3,0,0.5-0.2,0.5-0.4v-2.4l0,0c-0.2,0-0.3-0.3-0.3-0.3l-0.3-0.6h1.1
			c0.3,0,0.4,0.1,0.4,0.5v2.9c0,0.6-0.5,1-1.1,1H204c-0.6,0-1.1-0.5-1.1-1v-6.1c0-0.6,0.5-1,1.1-1h0.5c0.6,0,1.1,0.5,1.1,1
			L205.4,204.1L205.4,204.1z"/>
		<path class="cube__st3" d="M212.8,209c-0.1,0.2-0.2,0.5-0.3,0.6c-0.1,0.1-0.2,0.2-0.5,0.2h-1.9v-7.7c0-0.1,0.1-0.2,0.3-0.2h2.2l-0.3,0.6
			c0,0.1-0.2,0.2-0.5,0.2h-0.7c-0.1,0-0.2,0.1-0.2,0.2v2.3h1.3c-0.1,0.2-0.2,0.6-0.3,0.6c-0.1,0.1-0.2,0.2-0.5,0.2h-0.4
			c-0.1,0-0.2,0.1-0.2,0.2v2.7h1.9V209z"/>
	</g>
	<path id="CUBE_3_" class="cube__st3" d="M153,295.8c-2.3,0-4.6-0.6-6.7-1.7L34.2,224.9c-4.1-2.3-6.7-6.8-6.6-11.5L24.2,81.1
		c0-4.7,2.5-9.1,6.7-11.5L146.7,7.7c4.1-2.3,9.2-2.3,13.2,0l115.7,62.7c4.1,2.3,6.6,6.8,6.6,11.5l-3.6,131.7c0,4.7-2.5,9.1-6.7,11.5
		l-112.3,69C157.6,295.2,155.4,295.8,153,295.8z M87,106.1L34.2,85.7c-1.4-0.6-2.8,0.4-2.8,1.8l-1.1,126c0,3.6,1.9,7,5,8.8
		l109.9,62.8c1.3,0.7,2.9-0.1,3-1.6l5.3-64.3l4.3,64.3c0.1,1.4,1.7,2.3,3,1.6l110.8-63.5c3.1-1.8,4.7-5.1,4.7-8.8l-2-125
		c0-1.4-1.4-2.4-2.8-1.8l-48.7,20.2l43.8-28.4c1.3-0.8,1.3-2.6,0-3.5L158.4,9.4c-1.5-0.9-3.3-1.4-5-1.4s-3.5,0.5-5,1.4l-109,64.7
		c-1.3,0.8-1.3,2.6,0,3.5L87,106.1z"/>
</g>
</svg>
