<!-- Generator: Adobe Illustrator 24.1.2, SVG Export Plug-In . SVG Version: 6.00 Build 0)  -->
<xml version="1.0" standalone="no">
<svg version="1.1" id="Layer_1" xmlns="http://www.w3.org/2000/svg" xmlns:xlink="http://www.w3.org/1999/xlink" x="0px" y="0px"
	 viewBox="0 0 300.9 300.9" style="enable-background:new 0 0 300.9 300.9;" xml:space="preserve">
<style type="text/css">
	.physical__st4{fill:#FE0F4B;}
</style>
<g>
	<g>
		<polygon id="XMLID_3_" class="physical__st4" points="133.1,204.2 151.2,182.8 154.5,178.8 198.6,130.9 141,135.7 168.6,82.3 147.2,107.7
			103.1,155.6 158.4,150.8 		"/>
	</g>
	<path id="CUBE_7_" class="physical__st4" d="M150.7,296.7c-2.3,0-4.7-0.6-6.7-1.7L31.3,225.4c-4.1-2.3-6.7-6.8-6.6-11.6L21.3,81
		c0-4.8,2.5-9.1,6.7-11.6L144.3,7.2c4.1-2.3,9.2-2.3,13.3,0l116.2,63c4.1,2.3,6.6,6.8,6.6,11.6l-3.6,132.3c0,4.8-2.5,9.1-6.7,11.6
		l-112.8,69.3C155.2,296.1,153,296.7,150.7,296.7z M31.3,85.6c-1.4-0.6-2.8,0.4-2.8,1.8l-1.1,126.6c0,3.6,1.9,7,5,8.8L142.8,286
		c1.3,0.7,2.9-0.1,3-1.7l5.3-64.5l4.4,64.5c0.1,1.5,1.7,2.3,3,1.7l111.3-63.8c3.1-1.8,4.7-5.1,4.7-8.8l-2-125.6
		c0-1.5-1.5-2.4-2.8-1.8l-48.9,20.3l44-28.5c1.3-0.8,1.3-2.6,0-3.5L156.1,9c-1.6-0.9-3.3-1.4-5-1.4c-1.7,0-3.5,0.5-5,1.4L36.5,74
		c-1.3,0.8-1.3,2.6,0,3.5l44.3,28.7L31.3,85.6z"/>
</g>
</svg>
