<?xml version="1.0" encoding="utf-8"?>
<!-- Generator: Adobe Illustrator 24.1.2, SVG Export Plug-In . SVG Version: 6.00 Build 0)  -->
<svg version="1.1" id="Layer_1" xmlns="http://www.w3.org/2000/svg" xmlns:xlink="http://www.w3.org/1999/xlink" x="0px" y="0px"
	 viewBox="0 0 300 300" style="enable-background:new 0 0 300 300;" xml:space="preserve">
<style type="text/css">
	.st0{fill:#2EFDDB;}
</style>
<path id="arrow" class="st0" d="M129.3,21.9C57.8,22-0.2,79.9-0.3,151.5c0,71.5,58.2,129.6,129.6,129.6c34.4,0.1,67.4-13.6,91.6-38
	c3.1-3.3,3-8.6-0.4-11.7c-3.2-3-8.1-3-11.3,0c-44.2,44.1-115.8,44-159.9-0.2s-44-115.8,0.2-159.9s115.8-44,159.9,0.2
	c21.2,21.2,33,49.9,33,79.9v0.6l-34.4-31c-3.3-3.1-8.6-3-11.7,0.3s-3,8.6,0.3,11.7c0.1,0.1,0.2,0.2,0.3,0.3l51.7,46.6
	c1.5,1.4,3.5,2.1,5.5,2.1c0.3,0,0.7,0,1-0.1c2.4-0.3,4.5-1.6,5.9-3.6l37.2-56c2.6-3.7,1.7-8.9-2.1-11.5c-3.7-2.6-8.9-1.7-11.5,2.1
	c-0.1,0.1-0.1,0.2-0.2,0.3L258.9,152v-0.4C258.9,80.1,200.7,21.9,129.3,21.9L129.3,21.9z"/>
</svg>
