<!-- Generator: Adobe Illustrator 24.1.2, SVG Export Plug-In . SVG Version: 6.00 Build 0)  -->
<xml version="1.0" standalone="no">
<svg version="1.1" id="Layer_1" xmlns="http://www.w3.org/2000/svg" xmlns:xlink="http://www.w3.org/1999/xlink" x="0px" y="0px"
	 viewBox="0 0 300.9 300.9" style="enable-background:new 0 0 300.9 300.9;" xml:space="preserve">
<style type="text/css">
	.skills__st2{fill:#FFF33E;}
</style>
<g>
	<path id="CUBE_2_" class="skills__st2" d="M151.4,296.5c-2.3,0-4.7-0.6-6.7-1.7L32,225.2c-4.1-2.3-6.7-6.8-6.6-11.6L22,80.8
		c0-4.8,2.5-9.1,6.7-11.6L145,7c4.1-2.3,9.2-2.3,13.3,0l116.2,63c4.1,2.3,6.6,6.8,6.6,11.6l-3.6,132.3c0,4.8-2.5,9.1-6.7,11.6
		L158,294.7C156,295.9,153.8,296.5,151.4,296.5z M32,85.4c-1.4-0.6-2.8,0.4-2.8,1.8l-1.1,126.6c0,3.6,1.9,7,5,8.8l110.4,63.1
		c1.3,0.7,2.9-0.1,3-1.7l5.3-64.5l4.4,64.5c0.1,1.5,1.7,2.3,3,1.7L270.6,222c3.1-1.8,4.7-5.1,4.7-8.8l-2-125.6
		c0-1.5-1.5-2.4-2.8-1.8L221.6,106l44-28.5c1.3-0.8,1.3-2.6,0-3.5L156.9,8.8c-1.6-0.9-3.3-1.4-5-1.4c-1.7,0-3.5,0.5-5,1.4l-109.5,65
		c-1.3,0.8-1.3,2.6,0,3.5L81.5,106L32,85.4z"/>
	<g>
		<g>
			<path class="skills__st2" d="M104.3,125.3c-0.2,0.8-0.9,1.4-1.8,1.5l-10.8,1.3v10.7l10.7,1.3c0.8,0.1,1.5,0.7,1.8,1.5
				c0.5,1.8,1.3,3.5,2.2,5.2c0.4,0.7,0.3,1.7-0.2,2.3l-6.7,8.5l7.6,7.6l8.5-6.7c0.7-0.5,1.6-0.6,2.3-0.2c1.7,0.9,3.4,1.6,5.2,2.2
				c0.8,0.2,1.4,0.9,1.5,1.8l1.3,10.7l10.7,0l1.3-10.8c0.1-0.8,0.7-1.5,1.5-1.8c1.8-0.5,3.5-1.3,5.2-2.2c0.8-0.4,1.7-0.3,2.3,0.2
				l8.5,6.7l7.6-7.6l-6.7-8.5c-0.5-0.7-0.6-1.6-0.2-2.3c0.9-1.7,1.6-3.4,2.2-5.2c0.2-0.8,0.9-1.4,1.8-1.5l10.7-1.3l0-10.7l-10.7-1.3
				c-0.8-0.1-1.5-0.7-1.8-1.5c-0.5-1.8-1.3-3.5-2.2-5.2c-0.4-0.7-0.3-1.7,0.2-2.3l6.7-8.5l-7.6-7.6l-8.5,6.7
				c-0.7,0.5-1.6,0.6-2.3,0.2c-1.7-0.9-3.4-1.6-5.2-2.2c-0.8-0.2-1.4-0.9-1.5-1.8l-1.3-10.7l-10.7,0l-1.3,10.8
				c-0.1,0.8-0.7,1.5-1.5,1.8c-1.8,0.5-3.5,1.3-5.2,2.2c-0.7,0.4-1.7,0.3-2.3-0.2l-8.5-6.7l-7.6,7.6l6.7,8.5
				c0.5,0.7,0.6,1.6,0.2,2.3C105.6,121.7,104.9,123.5,104.3,125.3z M119.2,121.2c6.8-6.8,17.8-6.8,24.6,0c6.8,6.8,6.8,17.8,0,24.6
				s-17.8,6.8-24.6,0S112.4,127.9,119.2,121.2z"/>
		</g>
		<g>
			<path class="skills__st2" d="M172.2,144.9l-7.4-2l-2.6,6.6l6.7,3.7c0.7,0.4,1.2,1.2,1.1,2.1c-0.1,1.4-0.1,2.7,0,4.1
				c0.1,0.8-0.3,1.7-1.1,2.1l-6.6,3.8l2.8,6.5l7.3-2.1c0.8-0.2,1.7,0,2.2,0.7c0.9,1.1,1.9,2,2.9,2.9c0.7,0.5,1,1.4,0.7,2.2l-2,7.4
				l6.6,2.6l3.7-6.7c0.4-0.7,1.2-1.2,2.1-1.1c1.4,0.1,2.7,0.1,4.1,0c0.8-0.1,1.7,0.3,2.1,1.1l3.8,6.6l6.5-2.8l-2.1-7.4
				c-0.2-0.8,0-1.7,0.7-2.2c1.1-0.9,2-1.9,2.9-2.9c0.5-0.7,1.4-1,2.2-0.7l7.4,2l2.6-6.6l-6.7-3.7c-0.7-0.4-1.2-1.2-1.1-2.1
				c0.1-1.4,0.1-2.7,0-4.1c-0.1-0.8,0.3-1.7,1.1-2.1l6.6-3.8l-2.8-6.5l-7.3,2.1c-0.8,0.2-1.7,0-2.2-0.7c-0.9-1.1-1.9-2-3-2.9
				c-0.7-0.5-1-1.4-0.7-2.2l2-7.4l-6.6-2.6l-3.7,6.7c-0.4,0.7-1.2,1.2-2.1,1.1c-1.4-0.1-2.7-0.1-4.1,0c-0.8,0.1-1.7-0.3-2.1-1.1
				l-3.8-6.6l-6.5,2.8l2.1,7.3c0.2,0.8,0,1.7-0.7,2.2c-1.1,0.9-2,1.9-2.9,2.9C173.9,144.8,173,145.1,172.2,144.9z M185.3,144.6
				c6.9-2.9,14.9,0.3,17.8,7.1c2.9,6.9-0.3,14.9-7.1,17.8c-6.9,2.9-14.9-0.3-17.8-7.1C175.2,155.6,178.4,147.6,185.3,144.6z"/>
		</g>
		<g>
			<path class="skills__st2" d="M140.6,176.4l-4-1.1l-1.4,3.6l3.6,2c0.4,0.2,0.6,0.7,0.6,1.1c-0.1,0.7-0.1,1.5,0,2.2
				c0.1,0.5-0.2,0.9-0.6,1.1l-3.6,2.1l1.5,3.5l4-1.2c0.4-0.1,0.9,0,1.2,0.4c0.5,0.6,1,1.1,1.6,1.6c0.4,0.3,0.5,0.8,0.4,1.2l-1.1,4
				l3.6,1.4l2-3.6c0.2-0.4,0.7-0.6,1.1-0.6c0.7,0.1,1.5,0.1,2.2,0c0.5-0.1,0.9,0.2,1.1,0.6l2.1,3.6l3.5-1.5l-1.2-4
				c-0.1-0.4,0-0.9,0.4-1.2c0.6-0.5,1.1-1,1.6-1.6c0.3-0.4,0.8-0.5,1.2-0.4l4,1.1l1.4-3.6l-3.6-2c-0.4-0.2-0.6-0.7-0.6-1.1
				c0.1-0.7,0.1-1.5,0-2.2c-0.1-0.5,0.2-0.9,0.6-1.1l3.6-2.1l-1.5-3.5l-4,1.2c-0.4,0.1-0.9,0-1.2-0.4c-0.5-0.6-1-1.1-1.6-1.6
				c-0.4-0.3-0.5-0.8-0.4-1.2l1.1-4l-3.6-1.4l-2,3.6c-0.2,0.4-0.7,0.6-1.1,0.6c-0.7-0.1-1.5-0.1-2.2,0c-0.5,0.1-0.9-0.2-1.1-0.6
				l-2.1-3.6l-3.5,1.5l1.2,4c0.1,0.4,0,0.9-0.4,1.2c-0.6,0.5-1.1,1-1.6,1.6C141.5,176.3,141,176.5,140.6,176.4z M147.7,176.2
				c3.7-1.6,8.1,0.1,9.7,3.9c1.6,3.7-0.1,8.1-3.9,9.7c-3.7,1.6-8.1-0.1-9.7-3.9C142.2,182.2,144,177.8,147.7,176.2z"/>
		</g>
	</g>
</g>
</svg>
