<svg  data-name="Layer 1" xmlns="http://www.w3.org/2000/svg" viewBox="0 0 119.63 119.63"><defs><style>.cls-1{fill:#fff;}</style></defs><path class="cls-1" d="M112.11,19.66a17.43,17.43,0,0,0-24-6.9,13.2,13.2,0,0,0-3.29,2.4,30.54,30.54,0,0,1,1.2,7.2,27.53,27.53,0,0,1-4.81,14.4,17.67,17.67,0,0,0,30.92-17.1ZM59.89,1.05a20.89,20.89,0,0,0-21,21,21,21,0,0,0,42,0A20.88,20.88,0,0,0,59.89,1.05Zm-25.81,21a30.17,30.17,0,0,1,.9-7.21,17.33,17.33,0,0,0-11.7-4.49,17.54,17.54,0,0,0-17.7,17.7,17.55,17.55,0,0,0,17.7,17.71,17.93,17.93,0,0,0,15.6-9.31A25.17,25.17,0,0,1,34.08,22.06Zm-3.3,46.51h.3a25.7,25.7,0,0,1,5.4-16.2,19.68,19.68,0,0,0-28.2,1.5,20.38,20.38,0,0,0-5.1,13.5s4.8,42,19.8,42c6,0,10.21-6.3,13.2-14.11a197.33,197.33,0,0,1-5.4-26.4ZM59.89,44.86A23.76,23.76,0,0,0,36.18,68.57s5.7,50.11,23.71,50.11c18.31,0,23.71-50.11,23.71-50.11A23.76,23.76,0,0,0,59.89,44.86ZM96.5,47.27a19.62,19.62,0,0,0-13.2,5.1,26.94,26.94,0,0,1,5.4,16.2v.3a132.92,132.92,0,0,1-5.4,26.4c3,7.81,7.49,14.11,13.2,14.11,15.3,0,19.81-42,19.81-42A19.67,19.67,0,0,0,96.5,47.27Z"/><path class="cls-1" d="M30.78,68.87a196.23,196.23,0,0,0,5.4,26.41c-3,7.8-7.2,14.1-13.2,14.1-15,0-19.8-42-19.8-42a20.43,20.43,0,0,1,5.1-13.5,19.67,19.67,0,0,1,28.2-1.5,25.72,25.72,0,0,0-5.4,16.2h-.3Z"/><path class="cls-1" d="M38.89,36.46a18,18,0,0,1-15.61,9.3,17.54,17.54,0,0,1-17.7-17.7,17.54,17.54,0,0,1,17.7-17.7A17.35,17.35,0,0,1,35,14.86a29.59,29.59,0,0,0-.9,7.2A25.06,25.06,0,0,0,38.89,36.46Z"/><path class="cls-1" d="M116.31,67.37s-4.51,42-19.81,42c-5.7,0-10.2-6.3-13.2-14.1a133.16,133.16,0,0,0,5.4-26.41v-.3a27,27,0,0,0-5.4-16.2,19.75,19.75,0,0,1,33,15Z"/><path class="cls-1" d="M105.2,43.66a17.42,17.42,0,0,1-24-6.9A27.52,27.52,0,0,0,86,22.36a30.12,30.12,0,0,0-1.2-7.2,13.32,13.32,0,0,1,3.3-2.4,17.42,17.42,0,0,1,24,6.9A17.41,17.41,0,0,1,105.2,43.66Z"/><path class="cls-1" d="M83.6,68.57s-5.4,50.11-23.71,50.11c-18,0-23.71-50.11-23.71-50.11a23.71,23.71,0,0,1,47.42,0Z"/><circle class="cls-1" cx="59.89" cy="22.06" r="21.01"/></svg>