<svg  data-name="Layer 1" xmlns="http://www.w3.org/2000/svg" viewBox="0 0 119.63 119.63"><defs><style>.cls-1{fill:#fff;}</style></defs><path class="cls-1" d="M95.42,33.86a50.35,50.35,0,1,0,14.75,35.6A50.18,50.18,0,0,0,95.42,33.86ZM89.25,99.05A41.56,41.56,0,1,1,101.4,69.72,41.37,41.37,0,0,1,89.25,99.05Z"/><path class="cls-1" d="M75.6,3.32V6.08a3.43,3.43,0,0,1-3.51,3.51H70.84V15.1a54.23,54.23,0,0,0-22.05,0V9.59H47.54A3.43,3.43,0,0,1,44,6.08h0V3.32A3.43,3.43,0,0,1,47.54-.19H72.09A3.78,3.78,0,0,1,75.6,3.32Z"/><path class="cls-1" d="M103.66,23.87,88.12,13.09a1.21,1.21,0,0,0-1.75,0h0l-.25.5-3.76,5.52a56.73,56.73,0,0,1,18,12.52l4-5.51a2,2,0,0,0-.75-2.25Z"/><path class="cls-1" d="M59.82,69.46V33.13s34.07-.5,36.32,36.33Z"/></svg>