<svg  data-name="Layer 1" xmlns="http://www.w3.org/2000/svg" viewBox="0 0 119.63 119.63"><defs><style>.cls-1{fill:#fff;}</style></defs><path class="cls-1" d="M109.87,7.14H9.76a8.45,8.45,0,0,0-8.45,8.44V76.12a8.45,8.45,0,0,0,8.45,8.44H45.27V97.65H29.84A4.47,4.47,0,0,0,25.47,102v6.12a4.28,4.28,0,0,0,4.37,4.36h60a4.47,4.47,0,0,0,4.36-4.36V102a4.47,4.47,0,0,0-4.36-4.36H74.36V84.56h35.51a8.44,8.44,0,0,0,8.44-8.44V15.58A8.44,8.44,0,0,0,109.87,7.14Zm.3,69.26L9.76,76.12l.29-60.84,100.12.3Zm4.07-5.23a2,2,0,1,1,2-2A2,2,0,0,1,114.24,71.17Zm0-8.74a2,2,0,1,1,2-2A2,2,0,0,1,114.24,62.43Z"/></svg>