<svg  data-name="Layer 1" xmlns="http://www.w3.org/2000/svg" viewBox="0 0 119.63 119.63"><defs><style>.cls-1{opacity:1;}.cls-2{fill:#fff;}</style></defs><g class="cls-1"><path class="cls-2" d="M29.25,8.55A8.74,8.74,0,1,1,20.52-.19h0a8.7,8.7,0,0,1,8.73,8.74Z"/><path class="cls-2" d="M10.49,37.34a33.62,33.62,0,0,1,1-3.89v3.89H29.57V33.45c.33,1.3.65,2.59,1,3.89h7.12c-1.94-9.71-7.44-17.47-15.2-20.06l-2.27,2.27-2.26-2.27h0A25.43,25.43,0,0,0,3.05,37l7.44.33Z"/><path class="cls-2" d="M33.46,23.43a37.24,37.24,0,0,1,6.78,13.9h76.34V23.43Zm80.21,11H71V26.34h42.7Z"/><path class="cls-2" d="M29.25,49.3a8.74,8.74,0,1,1-8.73-8.73h0a8.69,8.69,0,0,1,8.73,8.73Z"/><path class="cls-2" d="M22.78,58.36l-2.26,2.26-2.27-2.26h0a25.47,25.47,0,0,0-14.88,20h7.12a33.91,33.91,0,0,1,1-3.88v3.88H29.57V74.53c.33,1.3.65,2.59,1,3.88h7.12C36,68.71,30.54,61,22.78,58.36Z"/><path class="cls-2" d="M33.46,64.51a34.89,34.89,0,0,1,6.78,13.9h76.34V64.51Zm80.21,11H85.53V67.42h28.14Z"/><path class="cls-2" d="M29.25,90.7A8.74,8.74,0,1,1,20.52,82h0a8.69,8.69,0,0,1,8.73,8.73Z"/><path class="cls-2" d="M22.78,99.76,20.52,102l-2.27-2.27h0a25.47,25.47,0,0,0-14.88,20h7.12a33.91,33.91,0,0,1,1-3.88v3.88H29.57v-3.88c.33,1.3.65,2.59,1,3.88h7.12c-1.62-10-7.12-17.46-14.88-20Z"/><path class="cls-2" d="M33.46,105.58a35,35,0,0,1,6.78,13.91h76.34V105.58Zm79.89,11H52.54V108.5h60.81Z"/></g></svg>