<svg  data-name="Layer 1" xmlns="http://www.w3.org/2000/svg" viewBox="0 0 119.63 119.63"><defs><style>.cls-1{fill:#fff;}</style></defs><path class="cls-1" d="M63.75,6.53c-2.63,0-27.54-.78-39.87,5.51C-11.79,27.25,5.26,48.76,5.26,48.76s4.72-7.87,24.91-16A91.16,91.16,0,0,1,63.48,27C65.58,27,67.42,14.14,63.75,6.53Z"/><path class="cls-1" d="M66.89,6.53A32.15,32.15,0,0,1,67.42,27s5.24.53,22.55,5.77a47.17,47.17,0,0,1,24.92,17.05s15.48-20.2-17.57-37A87.71,87.71,0,0,0,66.89,6.53Z"/><path class="cls-1" d="M92.33,100.43s16.53-11.8,22.3-23.08c5-7.87,4.2-32.79,4.2-32.79S118,58.73,92.33,68.43Z"/><path class="cls-1" d="M27.55,100.43S11,88.63,5.26,77.35c-5-7.87-4.2-32.79-4.2-32.79s.79,14.17,26.49,23.87Z"/><path class="cls-1" d="M52.52,97.75a1.23,1.23,0,0,0,0,.19s0,.07,0,.11c.24-.25.24-.26.24-.51V97A1,1,0,0,1,52.52,97.75Zm9.91,0c-.26-.26-.26,0,0,0Zm9.44-.52v1a1.27,1.27,0,0,1,.27-.79C72.14,97.28,72.14,97.28,71.87,97.28Zm0,0v1a1.27,1.27,0,0,1,.27-.79C72.14,97.28,72.14,97.28,71.87,97.28Zm-9.44.52c-.26-.26-.26,0,0,0Zm-9.91,0a1.23,1.23,0,0,0,0,.19s0,.07,0,.11c.24-.25.24-.26.24-.51V97A1,1,0,0,1,52.52,97.75Zm35.09-28-1.83.79-1.84.78-1.84.79-1.83.79-1.84.78c-.52.27-1.31.53-1.83.79a.25.25,0,0,1,.26-.26l7.34-4.72,3.67-2.36.27-.27-.27-.26L83.41,64,62.69,52.17l-1.57-1.05a2.28,2.28,0,0,0-1.84-.26,1,1,0,0,0-.78.26L37.25,63.45,32,66.33a.25.25,0,0,1-.26.26l.26.26,1.05.79L43,74.2v1l-8.91-3.94L30.7,69.74h-.27V101a2.41,2.41,0,0,0,.79,1.84c.26.26.53.52.79.52l24.39,13.9,2.36,1.31s.26.27.26,0v-1.31a4.47,4.47,0,0,0,.26-1.83V113.8l.27-1.83v-1.58l.26-1.83V107l.26-1.57a4.5,4.5,0,0,0,.26-1.84v.53A9.54,9.54,0,0,1,60.6,107v1l.26,2.1a5.7,5.7,0,0,0,0,2.1c.26.79,0,1.84.26,2.88a10.89,10.89,0,0,1,.26,2.89v.26l.27-.26,25.17-14.43,1.58-1a1.77,1.77,0,0,0,1-1.57V69ZM46.7,98.59c0,.26,0,.26-.27.26a.25.25,0,0,1-.26-.26V97h.53Zm1.57.26h-.53c0-.26-.26-1.83,0-1.83H48v1.57h.26Zm1.31-1.57h-.26l.26,1.57h-.26V97.28L48.79,97h.79Zm1.57,1.57h-.26V97c.13-.14.2-.14.2-.1s-.07.1-.2.1l.26,1.57C51.15,98.85,51.42,98.85,51.15,98.85Zm2.1-.52c-.26.26,0,.79-.26.52a.81.81,0,0,1-.26-.52v.52h-.26c0-.12,0-.45,0-.8l0,0V97.8l.05,0a1.38,1.38,0,0,1,.21-.73l.52.26Zm.79.26V98.3A2.81,2.81,0,0,0,54,98.59Zm.26-.79a1,1,0,0,0-.23.4L54.3,97Zm3.41,1h-.52c-.27-.78-.27-1.31-.53-1.83h.53v.26h-.27v.52h.27v1l.52-.26ZM59,94.66c0,.52-.26,1-.78,1H46.7c-.53-.27-.79-.53-.79-1V83.38c1.05,0,1.83,0,2.1-.26v5.24h.26l4.2-1.57,3.14-1.05c.53,0,1-.26,1.58-.26h1.05a.83.83,0,0,1,.78.78Zm.53-13.9v2.09H47.48a3.8,3.8,0,0,1-1-.78c-.26,0-.26-.27-.26-.53v-9.7A1.43,1.43,0,0,1,47,70.53H59a5.65,5.65,0,0,0,.53,2.62H49.06v7.61Zm.52.78v-11h2.1v10h9.44v-10H74v11c0,.53-.26,1-.78,1H61.12a1,1,0,0,1-.79-.26C60.33,82.07,60.07,81.8,60.07,81.54Zm1,16.79v.52c0,.27,0,.27-.26.27a.26.26,0,0,1-.26-.27V97.28a.25.25,0,0,1,.26-.26c.26,0,.26,0,.26.26l-.26.26v.79Zm1.05.26V97l.26.78A1,1,0,0,0,62.17,98.59Zm1.57.53h-.26a4.5,4.5,0,0,1,.26-1.84H64v.52l.26,1Zm2.1-.53h-.52V97c.16-.17.22-.13.18-.07s.08-.11.08.07v1.31s.26-.26.26,0Zm1.84,0h-.53l.53-.26ZM69,97.8l-.53.27V97H69c0,.26,0,.26-.26.26v.52Zm1.57.79a.32.32,0,0,0-.22.09l0,.17v-2.1h.26C70.56,97,70.83,98.59,70.56,98.59Zm1.58-1v1l-.27.26h-.26V97.28a.25.25,0,0,1,.26-.26h.27a.25.25,0,0,1,.26.26ZM74,98.85h-.52l-.26-1.57h.52v.26h-.26v1.31l.52-.26Zm.26-14.95v6.82H67.42V88.36h4.19V86c-.26,0-5,0-5-.26l-.26.26C65.32,87.57,64,89.15,63,90.72c-.27.26-.27.26-.27.53v1.83H74.23v2.36H61.38c-.26,0-.52-.26-.78-.52-.27,0-.27-.26-.27-.53V91a.93.93,0,0,1,.27-.78l4.45-6.56h9.18ZM71.87,97.28v1a1.27,1.27,0,0,1,.27-.79C72.14,97.28,72.14,97.28,71.87,97.28Zm-9.44.52c-.26-.26-.26,0,0,0ZM52.73,97a1,1,0,0,1-.21.73,1.23,1.23,0,0,0,0,.19s0,.07,0,.11c.24-.25.24-.26.24-.51Zm-.21.73a1.23,1.23,0,0,0,0,.19s0,.07,0,.11c.24-.25.24-.26.24-.51V97A1,1,0,0,1,52.52,97.75Zm19.35-.47v1a1.27,1.27,0,0,1,.27-.79C72.14,97.28,72.14,97.28,71.87,97.28Zm-9.44.52c-.26-.26-.26,0,0,0Z"/><path class="cls-1" d="M48.27,93.61V90.73c0-.27,8.39-2.89,8.66-2.89s0,0,0,.26v5.51H48.27Z"/></svg>