<svg xmlns="http://www.w3.org/2000/svg"viewBox="0 0 407.53 319.26">
<defs>
<style>
.athletes1 {
    fill: #00fff8;
    opacity: 0.05;
}



.athletes3 {
    letter-spacing: 0em;
}

.athletes4 {
    fill: none;
    stroke-miterlimit: 10;
    stroke-width: 3px;
}

.athletes5,
.athletes6 {
    fill: #fff;
}

.athletes6 {
    fill-rule: evenodd;
}

</style>
</defs>
<g  data-name="Layer 1">
<!-- <g id="ATHLETES"> -->
    <path class="athletes1"
        d="M365.76,315.7H24.3C11.82,315.7,2,303.8,2.84,289.81l16.56-265c.79-12.67,10.16-22.5,21.46-22.5H382.32c12.47,0,22.33,11.9,21.46,25.9l-16.56,265C386.43,305.87,377.05,315.7,365.76,315.7Z" />
    
    <text class="peopleTitle" transform="translate(263.66 62.31)" id="ath"></text>
      
    <path class="athletes4"
        d="M365.76,315.7H24.3C11.82,315.7,2,303.8,2.84,289.81l16.56-265c.79-12.67,10.16-22.5,21.46-22.5H382.32c12.47,0,22.33,11.9,21.46,25.9l-16.56,265C386.43,305.87,377.05,315.7,365.76,315.7Z" />
<g id="ATHLETES">  
        <path class="athletes5"
            d="M184.81,243.08l-20.13-25.27a.63.63,0,0,0-.87-.1l-2,1.57a.62.62,0,0,0-.1.86h0a15,15,0,0,0-7.65,6.13,6.27,6.27,0,0,1,1.83-.08l-4,1.94a6.44,6.44,0,0,0-1.4-.37l-18.47,7.72c-1.54.64-2.11.17-2.31-2l-1.25-11.69-1.78-16.63h0a20.75,20.75,0,0,0-3.32-10.06h0a2,2,0,0,0,.57-1.84,2,2,0,0,0-1.25-1.47h0q4.34-9.57,9.64-22.4l-.11,0,7.89.95c1.35.18,1.59.86,1.14,2.24q-1.89,5.76-3.17,9.68a.76.76,0,0,0-.77.43l-2.71,6a.76.76,0,0,0,.38,1l.59.27-.23.7q-9.19-.21-6.3,4.26-4,6.09,5.49,7.68c2.52.41,4.26-.07,6-2.72.84-1.45,1-3.76.39-6.91l.29-.44.94.43a.76.76,0,0,0,1-.38l2.71-6a.73.73,0,0,0-.07-.73l2.2-3.2q2.76-3.93,5.16-15.39c.43-2.17.59-3.7-1-4.51l-23.71-11.94a5.93,5.93,0,0,0-4.22-2.56,10.84,10.84,0,0,1-4-10l.41-.3a12.92,12.92,0,0,0,3.09-3.31,3.3,3.3,0,0,0-2.1-5.05c.06-.25.11-.5.15-.74a.31.31,0,0,0,.4-.21,9.92,9.92,0,0,0,.26-3,14.77,14.77,0,0,0,7.82-3.48c2-1.85,1.87-3-.4-1.81a6.56,6.56,0,0,1-7.67-1,15.14,15.14,0,0,1-2.8-3.25,14.05,14.05,0,0,0-14.92-5.51h0l-.14,0-.13,0h0a13.18,13.18,0,0,0-3.28,1.43,5.36,5.36,0,0,0-2.78,4.1,4.88,4.88,0,0,0,.52,2.51h0a4.26,4.26,0,0,0-1.51,0h0l-.11,0-.28.07h0a4.14,4.14,0,0,0-.36,7.86c0,.14.09.18.28.1h0a4.41,4.41,0,0,0-.21,2,5.69,5.69,0,0,0-.23,1.34c0,.7.32.84.52.39a2.85,2.85,0,0,1,.16-.3,5.64,5.64,0,0,0,.56.88,2.58,2.58,0,0,0-.09.62,1.11,1.11,0,0,0,0,.19s0,0,0,.08a2.8,2.8,0,0,0,1.27,2.34,2.66,2.66,0,0,1-.53,1c-1.55,1.75-1.3,3.63.5,6.24.78,1.09,1.52,2.12,2.22,3.05a.34.34,0,0,0-.18.39,5.87,5.87,0,0,0,4.41,4.35,6,6,0,0,0,2.82-.07,9.42,9.42,0,0,1-4.3,4.34,4.3,4.3,0,0,0-3.26,1.23,3.13,3.13,0,0,0-2.6,1.35l-5.38,9A21.72,21.72,0,0,0,90.73,162c-1.64-2.59-7-.75-11.69,3.09-1.7,1.48-1.62,3-.05,4.9.3.37.59.71.86,1-2.4,7.42-3.88,11.17-3.88,11.17-2.29,5.8,3.35,7,7.57,4.73h0c5.94-3.29,10.43-5.81,13.14-7.34a74,74,0,0,0,.55,9.19v-.05c.27,2.63.65,5.23,1.16,7.82h0a2.13,2.13,0,0,0,.2,3.46,3.37,3.37,0,0,1-.68,1.31l-21.83,25.5c-2.09,2.61-2.7,4.64-3.76,7.26L55,274.64c.22.23.45.45.68.67l-3.42,6a6.48,6.48,0,0,1-.23-1,2.11,2.11,0,0,0-.07-2.24,2.13,2.13,0,0,0-2-.93l-7.13,3.62-9.47-.88a3.67,3.67,0,0,0-3.14.79,3.42,3.42,0,0,0-1.07,3.06.62.62,0,0,0-.77.41l-.74,2.4a.62.62,0,0,0,.41.77l30.88,9.5a.63.63,0,0,0,.78-.41l.73-2.4a.61.61,0,0,0-.41-.77,15,15,0,0,0,2.86-9.38,6.74,6.74,0,0,1-1.5,1.12L64,280.32l.77.25,9-14.77a43.34,43.34,0,0,0,12.23-21.65c.32-1.52,1.41-2.63,4.66-4.75l16.84-11.55q2.27,4.31,4.68,8.74h0c.06.12.13.24.2.36l.15.28h0q3.42,6.26,7.14,12.73h0l.2.35.33.57h0c.68,1.18,1.36,2.37,2.06,3.56,2.46,3.69,5.94,3.76,9.82.7l25.59-18.39c0-.2,0-.4,0-.6l3.75-1.83a6,6,0,0,1-.37,1,2.12,2.12,0,0,0-.05,3.81l7.93,1,7.32,6.07a3.66,3.66,0,0,0,3,1.12,3.4,3.4,0,0,0,2.61-1.92.63.63,0,0,0,.87.1l2-1.57A.62.62,0,0,0,184.81,243.08Z" />
        <path class="athletes6"
            d="M218.22,79.6h0v.07h0a9.63,9.63,0,0,0,1.81,4.26h0l.07.08,0,0h0A9.61,9.61,0,0,0,231,87.21h0l.06,0,.06,0h0a9.59,9.59,0,0,0,4.33-3.26h0l.07-.11.06-.08h0a9.62,9.62,0,0,0-.84-12.16v0l-.06-.06,0,0h0a9.68,9.68,0,0,0-6.46-2.93h-.28a9.68,9.68,0,0,0-2.5.27h0a9.91,9.91,0,0,0-5.69,4h0l-.27.43v0h0A9.71,9.71,0,0,0,218.22,79.6Z" />
        <path class="athletes6"
            d="M274.18,108.43a14.32,14.32,0,0,0-12.88,1.73l-37.85-.9-.11-.19a11,11,0,0,0-7.15-1l-1.9.5a.56.56,0,0,0,0-.12l-3.62,1a.43.43,0,0,0,0,0l.28-.16c.72-.43.73-1.57-.16-3.51,0,0,0-1.81.1-5.45a3.84,3.84,0,0,0-1.22-3.07l-.19-.21v-.11a1.93,1.93,0,0,0-.82-2.13,1.86,1.86,0,0,1,0-.33,2.58,2.58,0,0,0-.27-1.55A1.51,1.51,0,0,1,209,93c.4.25.6.17.45-.13a2.32,2.32,0,0,0-1.84-1.09,9.81,9.81,0,0,0-2.25-1.68,5.58,5.58,0,0,0,.84-8.08c-1.2-1.29-2-1.15-1.51,0a4,4,0,0,1,0,2.82,3.76,3.76,0,0,1-1.77,2,5.5,5.5,0,0,0,.37-2.63c-.32-2.37-1.22-2.6-2.34-.64q-1.43,2.47-5.49,3A5.87,5.87,0,0,0,192,88.29l-.07.06-.07.07c-.11.12-.22.24-.32.37h0A5.88,5.88,0,0,0,190.26,93c-.48-.2-1.13-1-1.74-2.65-.35-1-.58-.79-1,.09a3.26,3.26,0,0,0,2.32,4.4,2.11,2.11,0,0,0-1.74,2.59c.11.43.32.47.6.12a3.78,3.78,0,0,1,1.43-1.27,3.45,3.45,0,0,0,2,4.24c-.89.08-1.48.75-1.63,1.93-.27,1.88.12,3.09,1.15,3.63,2.57,1.41,4.82,1.21,5.3-.15a1.33,1.33,0,0,1,.05-.19,9.38,9.38,0,0,0,2.23,2.52q.57,1.92,1.38,4.72l-3.8,2.27s0,0,0,0l-1.71,1a8.41,8.41,0,0,0-2.44,1.46L174,124l2.13-7.57a1.29,1.29,0,0,0,.26-.08,1.48,1.48,0,0,0,.85-.91s.3-1.19.92-3.58c0,0,.15-.57.43-1.69a1.29,1.29,0,0,0-.38-1.16l.17-.59a4.64,4.64,0,0,0,5.31-2.16,1,1,0,0,0-1.09-1.53,1.66,1.66,0,0,1-1.16.57,1.61,1.61,0,0,1-1.22-.42c-.11-2.68.36-5.41,2.23-7.46s.93-3.47-2.42-2.61q-7,1.67-7.18,12.37a1.54,1.54,0,0,0-1.42,1l-1.8,4.91a1.34,1.34,0,0,0,.25,1.3l-5.6,12.54a5.07,5.07,0,0,0,4.9,7.25s6-.44,25.42-4.78c4.55,6,8.4,10.9,7.84,21.32l.33.12a31.86,31.86,0,0,0-3.79,13,103.61,103.61,0,0,1-1.4,10.27,2.44,2.44,0,0,1,.28.14,43.93,43.93,0,0,0-.63,4.35,1.74,1.74,0,0,1-.6,1.25,1.71,1.71,0,0,1-1.31.39q-9-1.44-19.44,3.76l-13.3,4.65a3.85,3.85,0,0,0-4.78,5.88s.73,3.78,2.2,11.34a1.94,1.94,0,0,0,2.18.88,2,2,0,0,0,1.46-1.84s.32-3.34,1-10l22.86-2.1-7.3,3.33a3.85,3.85,0,0,0-4.23,6.29s1.08,3.69,3.23,11.08a2,2,0,0,0,3.54-1.29s0-3.35,0-10l31.86-5.9c4.29.22,8.6-2,9.85-6.28,1-3.51,1.87-6.4,2.56-8.54h.55c2.64-11.17,3.73-20.06,2.5-30-.28-10.82-.5-21.82-2.72-31.34q21-2,34.69-4.16a4.24,4.24,0,0,0,5.16-2.7,6.83,6.83,0,0,1,6.4-1.38,1.8,1.8,0,0,0,.6-3.4Zm-60.45,74.51a1.73,1.73,0,0,1-1.76,1.81,24,24,0,0,0-4.06.06c.94-2.43,1.79-4.49,2.49-6.13h.17l3.19-6.78c0,1.4,0,3.7,0,6.94l.14,0A38.21,38.21,0,0,0,213.73,182.94Z" />
    </g>
   <text style="font-size: 18px" class="hiddenText"   y="-10" id="ath1"></text>
       <text style="font-size: 18px" class="hiddenText"  y="15" id="ath2"></text>
       <text style="font-size: 18px" class="hiddenText"  y="40" id="ath3"></text>
       <text style="font-size: 18px" class="hiddenText"  y="65" id="ath4"></text>

   
</g></svg>