<svg xmlns="http://www.w3.org/2000/svg" viewBox="0 0 407.53 319.26">
    <defs>
        <style>
            .birthdaypts1 {
                fill: #00fff8;
                opacity: 0.05;
            }

            .birthdaypts3 {
                letter-spacing: -0.01em;
            }

            .birthdaypts4 {
                letter-spacing: -0.05em;
            }

            .birthdaypts5 {
                letter-spacing: -0.02em;
            }

            .birthdaypts6 {
                letter-spacing: 0em;
            }

            .birthdaypts7 {
                fill: none;
                stroke-miterlimit: 10;
                stroke-width: 3px;
            }

            .birthdaypts8 {
                fill: #fff;
            }
        </style>
    </defs>
        <path class="birthdaypts1"
            d="M365.11,316.21H23.65c-12.47,0-22.33-11.9-21.46-25.9L18.75,25.36c.79-12.68,10.17-22.5,21.46-22.5H381.67c12.48,0,22.34,11.89,21.46,25.89l-16.56,265C385.78,306.38,376.41,316.21,365.11,316.21Z" />
        <text class="eventTitle" transform="translate(135.95 61.88)" id="birthdays">
        </text>
        

        <path class="birthdaypts7"
            d="M365.11,316.21H23.65c-12.47,0-22.33-11.9-21.46-25.9L18.75,25.36c.79-12.68,10.17-22.5,21.46-22.5H381.67c12.48,0,22.34,11.89,21.46,25.89l-16.56,265C385.78,306.38,376.41,316.21,365.11,316.21Z" />
       <g id="BIRTHDAYS">

        <path class="birthdaypts8"
            d="M216.26,140.66c-.17.43-.45.54-1,.75a2.78,2.78,0,0,0-1.89,1.6l1.4.57c.17-.43.45-.55,1-.76a2.76,2.76,0,0,0,1.89-1.6,2.8,2.8,0,0,0-.24-2.47c-.26-.53-.38-.81-.21-1.24s.45-.55,1-.75a2.83,2.83,0,0,0,1.89-1.6,2.79,2.79,0,0,0-.25-2.47c-.26-.54-.37-.82-.2-1.25s.45-.54,1-.75a2.76,2.76,0,0,0,1.89-1.6l-1.39-.56c-.18.43-.45.54-1,.75a2.66,2.66,0,0,0-1.65,4.07c.26.53.37.81.2,1.24s-.45.55-1,.75a2.67,2.67,0,0,0-1.65,4.07C216.32,140,216.44,140.23,216.26,140.66Z" />
        <path class="birthdaypts8"
            d="M186.66,103c.58.15.86.23,1.08.64s.13.7-.07,1.26a2.81,2.81,0,0,0,0,2.48,2.77,2.77,0,0,0,2.05,1.39c.58.15.87.23,1.09.64s.13.7-.07,1.26a2.78,2.78,0,0,0,0,2.48l1.33-.71c-.21-.41-.13-.7.07-1.26a2.65,2.65,0,0,0-2.07-3.87c-.57-.15-.86-.23-1.08-.64s-.13-.7.07-1.26a2.67,2.67,0,0,0-2.07-3.87c-.58-.15-.87-.23-1.09-.64s-.13-.7.08-1.26a2.81,2.81,0,0,0,0-2.48l-1.33.71c.22.41.13.7-.07,1.26a2.65,2.65,0,0,0,2.07,3.87Z" />
        <path class="birthdaypts8"
            d="M247.12,95a2.67,2.67,0,0,0,3.27-2.93c0-.6,0-.9.37-1.2s.64-.3,1.24-.23a2.66,2.66,0,0,0,3.27-2.93c0-.59,0-.89.37-1.2s.65-.29,1.24-.23a2.83,2.83,0,0,0,2.41-.6l-1-1.13c-.34.31-.65.29-1.24.23a2.67,2.67,0,0,0-3.28,2.92c0,.6,0,.9-.36,1.21s-.65.29-1.24.23a2.67,2.67,0,0,0-3.28,2.92c0,.6,0,.9-.36,1.21s-.65.29-1.24.23a2.8,2.8,0,0,0-2.41.6l1,1.12C246.22,94.94,246.52,95,247.12,95Z" />
        <path class="birthdaypts8"
            d="M133.12,94.08a2.66,2.66,0,0,0,.64-4.35c-.38-.46-.55-.7-.49-1.16s.31-.64.81-1a2.66,2.66,0,0,0,.64-4.34c-.38-.46-.56-.7-.49-1.16s.31-.64.8-1a2.75,2.75,0,0,0,1.46-2L135,78.91c-.06.45-.31.63-.8,1a2.75,2.75,0,0,0-1.46,2,2.79,2.79,0,0,0,.82,2.34c.38.46.56.7.49,1.16s-.31.64-.81,1a2.66,2.66,0,0,0-.64,4.34c.38.46.56.71.49,1.16s-.31.64-.8,1a2.79,2.79,0,0,0-1.46,2l1.49.22C132.39,94.59,132.63,94.41,133.12,94.08Z" />
        <rect class="birthdaypts8" x="239.14" y="119.32" width="2.19" height="5.74"
            transform="translate(-26.85 86.03) rotate(-19.25)" />
        <rect class="birthdaypts8" x="96.19" y="162.71" width="2.19" height="5.74"
            transform="translate(-49.15 41.33) rotate(-19.25)" />
        <rect class="birthdaypts8" x="107.68" y="70.92" width="2.19" height="5.74"
            transform="translate(-18.25 39.98) rotate(-19.25)" />
        <rect class="birthdaypts8" x="209.62" y="82.23" width="5.74" height="2.19"
            transform="translate(-4.29 154.73) rotate(-39.64)" />
        <rect class="birthdaypts8" x="178.13" y="230.45" width="5.75" height="2.19"
            transform="translate(-112.31 250.08) rotate(-55.6)" />
        <rect class="birthdaypts8" x="153.82" y="221.67" width="2.18" height="5.74"
            transform="translate(-117.23 205.68) rotate(-51.43)" />
        <rect class="birthdaypts8" x="82.98" y="184.32" width="5.74" height="2.19"
            transform="translate(-115.62 151.4) rotate(-55.57)" />
        <rect class="birthdaypts8" x="282.09" y="116.86" width="5.74" height="2.19"
            transform="translate(26.56 286.31) rotate(-55.57)" />
        <rect class="birthdaypts8" x="166.31" y="81.7" width="2.19" height="5.74"
            transform="translate(-10.77 143.15) rotate(-45)" />
        <rect class="birthdaypts8" x="156.94" y="129.96" width="5.74" height="2.19"
            transform="translate(-42.5 88.82) rotate(-27.56)" />
        <polygon class="birthdaypts8" points="236.58 290.44 239.7 290.44 238.96 289.67 236.58 290.44" />
        <path class="birthdaypts8" d="M241.51,290.44h.17a1.23,1.23,0,0,1-.17-.41Z" />
        <polygon class="birthdaypts8" points="213.11 290.44 216.23 290.44 215.49 289.67 213.11 290.44" />
        <rect class="birthdaypts8" x="153.82" y="221.67" width="2.18" height="5.74"
            transform="translate(-117.26 206.16) rotate(-51.53)" />
        <rect class="birthdaypts8" x="178.13" y="230.45" width="5.75" height="2.19"
            transform="translate(-112.31 250.08) rotate(-55.6)" />
        <polygon class="birthdaypts8" points="37.38 290.44 38.62 290.44 37.38 289.84 37.38 290.44" />
        <polygon class="birthdaypts8" points="68.76 290.44 70 290.44 68.76 289.84 68.76 290.44" />
        <polygon class="birthdaypts8" points="132.36 239.51 131.66 240.24 134.61 240.24 132.36 239.51" />
        <polygon class="birthdaypts8" points="119.39 239.51 118.69 240.24 121.64 240.24 119.39 239.51" />
        <path class="birthdaypts8"
            d="M37.38,289.84l1.24.6H42a.23.23,0,0,0,.12-.43l-3.2-2L52.3,266.28l-2.8,23.36a1.18,1.18,0,0,0,.2.8h1.92a1.25,1.25,0,0,0,.18-.41l8.31-37.64,3,9.95L67.34,288h0v2.47h1.4v-.6l1.24.6h3.33a.23.23,0,0,0,.12-.43l-3.2-2h0l.4-25.63-2.06-16.55h4.57L82.91,290a1.25,1.25,0,0,0,.18.41H85a1.13,1.13,0,0,0,.2-.8L80,245.79h6.21a2.78,2.78,0,1,0,0-5.55H67.88l-.54-4.32h.33l.64-3.38a36.83,36.83,0,0,0,.62-8.45l0-1.05,1.21-.88a22,22,0,0,1-.9,2.25l.54.25a23.76,23.76,0,0,0,1.19-3.11l1.36-1a50.41,50.41,0,0,1-2.78,10.86l.56.24a52,52,0,0,0,2.9-11.6l.77-.56c-.7,11.83-4.06,18-4.11,18.07l.53.3c0-.09,3.55-6.52,4.21-18.83l7.52-5.49,2.19-.36a2.54,2.54,0,0,0,1.72-1.1L87,210.23a.14.14,0,0,0-.18-.21l-2.45,1.11a.74.74,0,0,1-.77-.1,1.9,1.9,0,0,0-1.75-.33l-1,.3-6.49,1.38,0-.83.36-1a.15.15,0,0,0-.22-.17l-.19.15c-.09-1.58-.22-3.22-.41-4.93-2.78-24.87,5.5-47.61,7.29-52.17l1.46.8.36-1.79c6,2,14.42-3.35,18.09-10.07,3.93-7.18,2.26-15.65-3.72-18.93s-14-.1-18,7.09c-3.67,6.71-3.63,16.71,1.29,20.66l-1.31,1.26,1.25.69c-1.76,4.45-10.17,27.4-7.36,52.53.21,1.84.35,3.61.43,5.3l-.41.31a53.9,53.9,0,0,0-1-5.48c-.28-1.26-.54-2.44-.74-3.63-4.5-26.31-2.53-55.4,5.84-86.52l1.26.17-.35-2.08c7.3-.29,14.24-9.59,15.44-18.39,1.29-9.4-4-17.9-11.85-19S66.7,82.1,65.41,91.51c-1.21,8.79,3,19.61,9.92,21.86l-.89,1.91,2.38.33c-8.36,31.18-10.33,60.33-5.83,86.71.21,1.19.48,2.44.75,3.65a52.75,52.75,0,0,1,1.05,5.78l-.4.31a.78.78,0,0,1-.38.15c-.05-.78-.14-1.55-.26-2.32a57,57,0,0,0-2.22-8.47c-.57-1.79-1.16-3.63-1.67-5.62-2.17-8.44-2.14-17.36-2.11-26,0-9,0-18.31-2.41-27.19l1.33-.56-1.18-1.39c5.28-3.44,6.32-13.39,3.33-20.44-3.2-7.53-10.88-11.48-17.16-8.82s-8.77,10.93-5.58,18.47c3,7,10.86,13.21,17,11.81l.18,1.81,1.52-.64c2.42,8.77,2.39,18,2.36,26.95,0,8.66-.06,17.62,2.14,26.13.51,2,1.1,3.86,1.67,5.65a56.78,56.78,0,0,1,2.2,8.38q.16,1,.24,2.07a1.89,1.89,0,0,0-1.54.16l-.27.16-1.32-4.32-.05-1.31c-.21-5-4.39-12.47-9.38-12.87h0l-.65-2.61a5.6,5.6,0,0,0,4.1-5.65l-.4-9h-.13a4.72,4.72,0,0,0,.94-3.08l-.12-2.7-3.7.17L49.8,154.06,47,173.15h0a4.24,4.24,0,0,0-.77,2.62l.38,8.4a3.56,3.56,0,0,0,3.06,3.36,4.79,4.79,0,0,0,3.29,3.8l-.07,2.52h-.85a9.61,9.61,0,0,0-6.47,2.5,4.66,4.66,0,0,0-2.46,3.48,9.91,9.91,0,0,0-.71,3.27l-.88,21a37.4,37.4,0,0,0,.62,8.45l.64,3.38h1l2.82,26.42L36,288v2.47h1.41Z" />
        <path class="birthdaypts8"
            d="M101.19,211.8h16.43l.24,1.64L117,237.55v2.68h-7.13a2.78,2.78,0,0,0-2.71,3.36,2.82,2.82,0,0,0,2.79,2.2h6.14l-5.26,43.84a1.2,1.2,0,0,0,.2.8h1.92a1.12,1.12,0,0,0,.18-.4l9.77-44.24h11.56L144.22,290a1.12,1.12,0,0,0,.18.4h1.92a1.15,1.15,0,0,0,.2-.8l-5.26-43.84h6.06a2.88,2.88,0,0,0,2.93-2.63,2.78,2.78,0,0,0-2.78-2.93H136.86v-1.06l-2.25-.53-2.25-1.09,3-24.06V211.8h71.21l-.78,1.35.54.27-1.4,2.62-13.69-1.18a10.38,10.38,0,0,0-4.13-1.7,3.13,3.13,0,0,0-2.24.57l-2.06,1.63c-.14.11-.08.33.08.31l3-.26a.73.73,0,0,1,.74.42,2,2,0,0,0,1.62,1.1l2.4.61,14.2,3.57a4.68,4.68,0,0,0,4.88-1.73l2.27-3.07.24.12-2.13,24.73h2.28l-.48,24.71,3.62,21.73-2.38,1.15-2.38.56v1.12h2.38l2.38-.76.73.76H218V287.6l.39-21.84,3.78-16.58h1L224.87,262v28.42h6.37v-15L239,287.6l-2.38,1.15-2.38.56v1.12h2.38l2.38-.76.74.76h1.8V290a1.12,1.12,0,0,0,.18.4h1.92a1.12,1.12,0,0,0,.18-.4l9.78-44.24h11.56L274.9,290a1,1,0,0,0,.18.4H277a1.1,1.1,0,0,0,.2-.8l-5.26-43.84h6.22a2.77,2.77,0,0,0,2.77-2.77,2.67,2.67,0,0,0-.43-1.48l2.87.11,1.62,2,1.06,2.17,1.09-.24-.52-2.29-1.25-2.13.57-.88-.39-1.74-2.74.62-23.47-7.66,8.79-11.85a16.66,16.66,0,0,0,2.28-4.46l1.78,0-1.86-42a5.6,5.6,0,0,0-5.6-5.39H264l-.32-1.1,6.61,1h0a27.18,27.18,0,0,1-.25-12.17l1.62-7.72a6.61,6.61,0,0,0-2.12-5.62l-1.81-18.92-9.64,16.44a7.27,7.27,0,0,0-7,6.47l-.38,11.55a12.15,12.15,0,0,1-2.73,7.27h0l8.84,1-.51,1.85H256a21.24,21.24,0,0,0-4.18,5.88l-10.59-5.55L240,166.08a3.17,3.17,0,0,0-2-1.51l-2.7-.61a.18.18,0,0,0-.17.3l2.37,2.36a1,1,0,0,1,.23.94,2.35,2.35,0,0,0,.38,2.17l.87,1,11,8.11-2.09,1.51-12-9.34-.84-1.08a2.37,2.37,0,0,0-2.13-.57.92.92,0,0,1-.91-.31l-2.15-2.56a.18.18,0,0,0-.31.14l.37,2.74a3.14,3.14,0,0,0,1.33,2.16l2.35,2,11.29,14.14a4.86,4.86,0,0,0,4.57,1.72l-2.64,25.37,4,.09-4.61,20a4.23,4.23,0,0,0,3.19,5.44h-8.71a2.88,2.88,0,0,0-2.93,2.64,2.77,2.77,0,0,0,2.77,2.92h6.21l-5.24,43.64V287.6h0l-8.78-21.8,1.94-24.64h1.91l-1-13.9,9.63-5.12a3.89,3.89,0,0,0,.79-5.55L243.27,213l.73-.6-11.26-14.13a3.93,3.93,0,0,0-3.12-1.55h-1.86l-.74-4.95a3.12,3.12,0,0,0,.92-2.22v-1.44a3,3,0,0,0,2.58-3v-6.52a6.25,6.25,0,0,0-1.28-3.79l.19.05-1.82-19L218,172.34l.07,0h-5.16v1.5a7.54,7.54,0,0,0,2.43,5.56l0,7.69a5.58,5.58,0,0,0,4.53,5.46l-.51,4.12h-1.86a3.94,3.94,0,0,0-3.62,2.41l-3.65,6.34H181a2.87,2.87,0,0,0-2.88-2.88h-.51v-6H198v-3.84h-3.1v-27.3a3.66,3.66,0,0,0-3.65-3.65h-9.41V156a2.28,2.28,0,0,0,1.46-2.13A8.44,8.44,0,0,0,181,149a8.65,8.65,0,0,0-2.29,4.83,2.28,2.28,0,0,0,1.48,2.13v5.76h-7.83v-9.68a2.27,2.27,0,0,0,1.47-2.13,8.44,8.44,0,0,0-2.28-4.83,8.67,8.67,0,0,0-2.28,4.83,2.27,2.27,0,0,0,1.47,2.13v9.68h-7.83V156a2.28,2.28,0,0,0,1.48-2.13A8.46,8.46,0,0,0,162.1,149a8.72,8.72,0,0,0-2.29,4.83,2.28,2.28,0,0,0,1.48,2.13v5.76h-8.62a3.65,3.65,0,0,0-3.65,3.65V184l-.75-.42L140.55,170l-6.14-15.4a5.51,5.51,0,0,0-.69-1.74v0h0a5.37,5.37,0,0,0-4.09-2.51v0l-.88-2.78a6,6,0,0,0,6.54-5.14l.94-6.45.87.13.19-1.34a7.75,7.75,0,0,0-3.65-7.74l-1.53-4.83-4.25-13.45-4.61,13.45-1.6,4.68a7.75,7.75,0,0,0-3.1,5.15l-1.66,11.32,4.49.66a3.39,3.39,0,0,0,1.75,2.54l-1.11,3.8h-1.17a5.36,5.36,0,0,0-4.8,3l-8.19,17-9.68,12.14-2.09,1.2a3,3,0,0,0-1.43,2l-.59,2.58a.17.17,0,0,0,.29.16l2.25-2.27a.92.92,0,0,1,.9-.23,2.2,2.2,0,0,0,2.08-.37l1-.83L113.9,174.5l.86-1.7-.05,1.3L109.86,201H116l.65,4.43H88.31v6.34h6.52v78.65h6.36m136.9-73.23.19-.16,2,2.46-5.05,4.07-.81-10.89ZM127.68,205.44h-2.76L125,201h1.87Zm-9,34.79.7-.72,2.25.72Zm11.26,0h-6.06v-1.06l-2.25-.53-2.25-1.09,5.36-23.61,0-2.14h4.06l.29,1.58.81,24.17h0Zm4.66,0h-3l.71-.72Zm31.66-37.67h-.5a2.87,2.87,0,0,0-2.88,2.88H135.34V201h4.79l-4.64-25.8,10.43,10.59,1,.83a2.29,2.29,0,0,0,2.08.38l.08,0v5.69h-3.11v3.84h20.36Z" />
        <path class="birthdaypts8"
            d="M189.57,258c2.89-.36,5.91-.95,7.31-2a7.34,7.34,0,0,0,1.62-10.25,7.33,7.33,0,0,0-10.25-1.61c-2,1.47-4.23,6.37-5.54,9.66-1.31-3.29-3.51-8.19-5.53-9.66A7.34,7.34,0,1,0,168.54,256c1.41,1,4.43,1.62,7.32,2H157.4v32.47H208V258ZM170,254a4.93,4.93,0,0,1,2.13-8.85,5.14,5.14,0,0,1,.78-.07,4.88,4.88,0,0,1,2.89.95c1.53,1.11,3.78,6.11,5.2,9.88C176.94,255.75,171.49,255.15,170,254Zm19.71-8a4.88,4.88,0,0,1,2.89-.95,5,5,0,0,1,.77.07,4.93,4.93,0,0,1,2.13,8.85c-1.53,1.11-7,1.71-11,1.91C185.88,252.18,188.14,247.18,189.67,246.07Z" />
</g>
<text x="-10" y="0" class="hiddenText" id="birthdays0"></text>
    <text x="-10" y="20" class="hiddenText" id="birthdays1"></text>
    <text x="-10" y="40" class="hiddenText" id="birthdays2"></text>
    <text x="-10" y="60" class="hiddenText" id="birthdays3"></text>
    <text x="-10" y="80" class="hiddenText" id="birthdays4"></text>
</svg>