<svg xmlns="http://www.w3.org/2000/svg" viewBox="0 0 407.53 319.26">
    <defs>
        <style>
            .families1 {
                fill: #00fff8;
                opacity: 0.05;
            }

           

            .families3 {
                letter-spacing: -0.02em;
            }

            .families4 {
                fill: none;
                stroke-miterlimit: 10;
                stroke-width: 3px;
            }

            .families5 {
                fill: #fff;
            }
        </style>
    </defs>
    <g  data-name="Layer 1">
        <path class="families1"
            d="M366.21,316.22H24.76c-12.48,0-22.34-11.89-21.47-25.89l16.56-265C20.65,12.7,30,2.87,41.32,2.87H382.77c12.48,0,22.34,11.9,21.46,25.9l-16.56,265C386.88,306.4,377.51,316.22,366.21,316.22Z" />
        <text class="peopleTitle" transform="translate(279.96 54.68)">
            <tspan class="families3" id="fam"></tspan>
        </text>
        
        <path class="families4"
            d="M366.21,316.22H24.76c-12.48,0-22.34-11.89-21.47-25.89l16.56-265C20.65,12.7,30,2.87,41.32,2.87H382.77c12.48,0,22.34,11.9,21.46,25.9l-16.56,265C386.88,306.4,377.51,316.22,366.21,316.22Z" />
      <g id="FAMILIES">

        <path class="families5"
            d="M243.47,152.81a25.2,25.2,0,0,0-1.25-3.78.17.17,0,0,0-.06-.21l-.06,0a14.63,14.63,0,0,0-8.59-8.41c-4.55-1.54-3.38-1.41-6.34-2.1a16.07,16.07,0,0,0-4.94,3.72c-1.66-11-2.87-20-3.52-23.93-.32-1.95-.72-5.41-5.7-7.67l-7.16-2.63a.67.67,0,0,0,0-.1L202,106c.11-2.66.18-6.18.23-9.12,2.4-2.38,4.3-5.79,5.88-10.9a1.39,1.39,0,0,0,.61.08A1.87,1.87,0,0,0,210.37,84a2,2,0,0,0-.89-1.55c.23-.9,1.81-7.31,1.88-9.86.1-3.31-.89-6.17-1.55-11.44-5.24-2.66-11.24-6-19.08-6.87-1.62-.18-.35,1.92.51,2.83-1.6.29-7.08-1.07-8.19-.44a34.2,34.2,0,0,0,2,4c-1.28-.08-.51-.6-2.57-.16,1.94,3.16,4.19,6.93,4.24,6.93l.16,0c-1,2.86-.11,7.55-1.94,13.4-.75,2.41-1.3,2.86-1.71,4.49a103.48,103.48,0,0,1,3.9,11.85c-.11,1.69-.58,1.08-.94,2.45a16,16,0,0,0,5.47,1.83l-1.13,4.86-3.39,1.38-1.81.51s-7.49,3-9.3,5.44c-4.37,13.12-4.59,31.68-5.66,41.38-1.25,7.91-4,26.76-5.13,31.82a3.43,3.43,0,0,1-.54-.76c-1.1-3.58-4.61-16.25-6.85-26.65-1.4-6.43-2.53-15.3-3.62-23.34.4-1.22.81-2.41,1.22-3.47a29.12,29.12,0,0,0-2.27-3.89c-.79-5.21-1.61-9.44-2.52-11.44-1.29-.64-2.78-1.28-3.54-1.6l-.08-.29c-.71-.18-1.38-.36-2-.55a.43.43,0,0,1,0,0,2.58,2.58,0,0,1-.36-.05l-.85-.25c-.33-.12-.68-.25-1.08-.38l-1.79-.76-.48-2.21c.53-.07,7.3-1.07,12.49-8.75,1.95-2.89,1.6-3.76-2.27-11.26A68.34,68.34,0,0,1,146.83,82c-.71-3.31-2.9-9.67-8.06-12.38-2.66.8-2.47,1.36-3.44,1a11.53,11.53,0,0,0-4.26-.73c0-.06-.2,0-.37,0a10.79,10.79,0,0,0-3.53.83c-3.67,4.59-8.44,12.79-9.09,16.11s-2,10.93-2.3,14.13c-.7,6.8,10.21,11.27,18.43,11.55,0,.38.07.75.1,1.08,0,.68-.58.85-1.14,1.36V115l-1.34.65-1.8.71c-1.09.37-4.35,1.58-5.75,3.69-1.25,1.88-3.23,8.66-3.23,8.66l-3.88,23.82-9.4,14.51-1.52-.54a4,4,0,0,1-1.67-2.36,24.91,24.91,0,0,1-.13-3,15,15,0,0,0,6.91-8.45,25.9,25.9,0,0,0,.73-2.5,3.06,3.06,0,0,0,.91-5.57,24.71,24.71,0,0,0-.12-5.92l.13.4s5.38-11.74-5.87-16.38c-1.52,4.71-3.26,4.52-4.91,6-.87.25-2,.6-3.19,1a.27.27,0,0,0-.09,0,.31.31,0,0,0-.15.08c-3.74,1.25-8.33,3-9.81,3.52a18.78,18.78,0,0,0-1,7.46,13.88,13.88,0,0,0,.6,2.8c0,.35,0,.7.07,1.05a3.06,3.06,0,0,0,1.11,5.94,2.85,2.85,0,0,0,.4,0c2.22,5.23,7,9.42,10.35,10.78-.39,2-1.16,4.24-2.7,5a3.18,3.18,0,0,0,.09.48l-.26.07L93,169l-3.39,5.21.28.31-4,5.81-5.1,7.36L74,179.18l-4.89-7.74.08-.4.82-1.38-.36-5.23-.75-.43-.6,4.23-3-4.68-1.24-2.34L61.59,159l-.49.77,2,2.12,1.26,2.66-.12.11-1.59-2.08-2.89-2L59.21,162l2.38,1.37,1.76,2.05-.18.16-.07.11-1.75-1.53-2.21-1-.19.94,1.79.85,1.68,1.62-.45.6-1.85-.78H58.48l.08.41,1.53.29,1.24,1,0,0c.51.17,4.27,4.79,4.27,4.79l1.16.46,12.92,19.5a3.14,3.14,0,0,0,2.72-.91c1.35-1.56,3.42-3.69,5.32-6.23s4.21-5.55,5.57-7.57l.61.67,1,23.81L94.64,217h-.15l.23,7.24.46.87c-.79,2.8-2.84,36.28-2.84,36.28l-3.13,30.9-2.76,1.15s.1-.26-1.59.12a6.75,6.75,0,0,0-1.34,2.49h0v.06c-.15.5-.22.85-.22.85h.22v.11H97.09l.35-3.4-.48-.41,1.5-31.18,3.45-35.33,2.6.25c.85,9.45,2.62,34.86,2.62,34.86l.5,15.16.56,18.13.29-.12.17,2h14.27v-1h-.16a4.31,4.31,0,0,0-1-2.42c-1.7-.34-2.71-.45-2.71-.45l-3.13-1.28-1.55-13.29-2.89-52.46.82-2.24-.5-7.37h0l-.83-8,2.5-1.88,8.84-6.45-5.59-18.7s-.92-3-1.62-5.38l.08,0s-.85-3.68-1.26-4.87a5.45,5.45,0,0,0-1.2-2.15l11.14-11.44,2-16.77c.59,2.76,1.08,6.07,1.08,6.07s3.09,15.76,2.86,21.88c-.21,5.76-5.52,15-5.4,23,.2,13.27,4.58,37.71,4.58,37.71l1.64-.05c1.13,4.45,2.07,8,2.07,8L129.09,249l4.31,44.32h-.11l-.52,3.31,5.58-.07,2.24-.19-.43-1.36-1.35-1.27-.21,0-1.79-2.5,3.44-62.27c.86-.08,1.66-.17,2.38-.27s1.74-.24,2.61-.35l4.82,64.58h-.21l-.72,1.67s.72,1.81,1,1.81,6.54.17,6.54.17l-1.95-3.14-.32,0-1.32-3.07,3.63-42.85-4-12s.36-3.46.79-7.92c1.26-.11,2-.16,2-.16l2.37-38.06-5.07-21.89c-.16-2.89-.31-5.36-.43-7.52a166.6,166.6,0,0,0,9.81,27.76c.25.53.79,3.11,1.25,5l-.21.51.14.06-.13,2.6.52.29,2.38.67.87.77,2.08-1.07.17-1.35.07,0-.05-.17.45-3.6-.65-2.18.18-1.24a1.22,1.22,0,0,0,.36,0c1.52-5,5.94-17.3,7.79-25.73,1.47-6.66,3.49-26.13,3.76-26.13,1.09,9.8-.64,19-2.79,38.66-.2,1.83-1.39,4-1.47,6a4.52,4.52,0,0,0,2,4l-1.13,12.67-1.69,46.9s-.11,11.54-1.69,48.22l-2.53,2.34c-1.32,1.21-.44,2.17-.44,2.17l9.19-.35.12-3.37h0c5-37.58,7-68.47,11.53-92.47l3.76-1.08c3,26.85,5.54,85,6,95.61l-.1,1.48,8.44.18s.69-.22-.63-1.42a16.82,16.82,0,0,1-2.15-3.17l-.41.07,2.91-44.82,1-47-.54-16a5.11,5.11,0,0,0,.77-.6c2.69-.54-.12-4.81-.17-6.29-.77-20.19-.09-30.25.6-38.4,0,0,1.14.89,1.14,1.8.5,1.68,1.19,6.23,2.05,10.95-2.88,4.39-4.17,7.63-2,11.28a11.23,11.23,0,0,0,7.32,4.81,49.51,49.51,0,0,0,6.82,7.79,4.1,4.1,0,0,1-.25.93c-.25.22-.67.4-1.19.84h0l-1.51.68,0,0-.62.27v0l-1.43.65v.07c-.64.3-2,1-2.2,1.63a51.9,51.9,0,0,0-1.27,10.28c-.17,5.26.85,15.79.85,15.79l2.49,5.22-.21,9.31h-.07l-.52,22h3.62L227,291l-.5,2.27h-.07c-1.13,1.24-1,1.24-1.24,1.93a2.35,2.35,0,0,0,.34,1.35l6.23.11-.14-3.36-.1,0,.13-18.64-1.48-13.93s.22-9.21.34-17h2.23l.83,17.16,1.05,30.22-.65,1.92-.06,0a9,9,0,0,0-1.27,1.78c0,1.56,0,1.84,0,1.84l6.56.12-.22-3.4-.1.1.16-17.69-1.3-16s.58-9.55.88-16h3.07L240,221.35h0l-.72-10.68,2-6.33s.11-16.44-.61-22.56a7.26,7.26,0,0,0,.59-.77c.29-.56-.33-.92-.59-1.44a10,10,0,0,1-1.39-.76c-.23-.06-.49.14-.74.65a1.7,1.7,0,0,0,0,.27c-.15-.09-.3-.16-.44-.23v0a.15.15,0,0,1,0-.09c.29-.56.36-.42.63-1a3.18,3.18,0,0,1-.51-.66,1.28,1.28,0,0,0-1.21-.16,3.64,3.64,0,0,0-.45,1.26l-.37-.14.23-.51,0,0s0,0,0,0q.13-.28.3-.57l-.31-.72a2.85,2.85,0,0,0-1.23-.21s0,0,0,.06a50.89,50.89,0,0,1-3.34-4.47c0-.37,0-.72,0-1.06a12.3,12.3,0,0,0,2.31-1.3c2.89-.1,6.84-.58,9.59-2.29C246.9,165.6,245.81,158.73,243.47,152.81Zm-126.13,45.7-6.85,6.13,0-.32.56-20.65h0v-.3l.11-4.18.15-.09C113.24,184.86,114.53,187.87,117.34,198.51Zm22.25-91.27h.11l.54,3Z" />
    </g>
   <text class="hiddenText" id="fam1"></text>
   <text class="hiddenText" x="-2" y="26" id="fam2"></text>
<text class="hiddenText" x="-2" y="50" id="fam3"></text>
<text class="hiddenText" x="-2" y="72" id="fam4"></text>

    </g>
</svg>