<svg xmlns="http://www.w3.org/2000/svg" viewBox="0 0 407.53 319.26">
    <defs>
        <style>
        .friends1 {
            fill: #00fff8;
            opacity: 0.05;
        }

        .friends3 {
            fill: none;
            stroke-miterlimit: 10;
            stroke-width: 3px;
        }

        .friends4 {
            fill: #fff;
        }

        </style></defs>
        <path class="friends1" d="M365.75,315.86H24.3C11.82,315.86,2,304,2.83,290L19.39,25c.8-12.67,10.17-22.5,21.47-22.5H382.31c12.48,0,22.34,11.9,21.47,25.9l-16.56,265C386.42,306,377.05,315.86,365.75,315.86Z"/>
        <text class="peopleTitle" transform="translate(290.57 54.31)" id="fr"></text>
        <path class="friends3" d="M365.75,315.86H24.3C11.82,315.86,2,304,2.83,290L19.39,25c.8-12.67,10.17-22.5,21.47-22.5H382.31c12.48,0,22.34,11.9,21.47,25.9l-16.56,265C386.42,306,377.05,315.86,365.75,315.86Z"/>
        <g id="FRIENDS">
            <path class="friends4" d="M328.1,261.31s0-1.39-1.81-1.85-2.86,0-5.28,1.3a10,10,0,0,1-1.78.76,8.37,8.37,0,0,1-1.1.27,5,5,0,0,1-1.56,0,2.43,2.43,0,0,1-.9-.36,1.5,1.5,0,0,1-.33-.29c-1.39-1.56.44-2-1.49-2.27a2.14,2.14,0,0,0-1.69.31c-2.52-5.46-5.64-16.71-7.6-24.26a3.48,3.48,0,0,0,1.14-1.37s-.25-.86-.71-2.21c0-.12-.09-.23-.14-.36h0a52.21,52.21,0,0,0-5-10.73,83.16,83.16,0,0,0-6.57-7.63l-.23-.25c-2.38-2.56-5.15-5.48-8-8.44l-.31-.33L282.17,201l-.25-.26c-2.18-2.26-4.36-4.49-6.37-6.54l-.35-.34L271,189.58a2.91,2.91,0,0,0-.9-2.56c1.6-8.18-12.17-22.34-13.05-30.57a17.77,17.77,0,0,0-.37-2.16h0c.34-4.16,11.92-20.63,12-22.1.24-2.77,5.14-15.14,1.87-25.53a3.16,3.16,0,0,0-1.8-1.43,2.3,2.3,0,0,1,.39-1.29c.66-.86.86-1.9,1.22-3.79a14.62,14.62,0,0,1,1.34-2.82c.5-.58,1.13-2.25.44-2.36s-.51.77-2,2.45a7.57,7.57,0,0,1,.53-1.77c.43-.79.74-2.88-.09-2.83s-.34,1.08-1.77,3.56l-.4-.22c0-.43.1-1.14.15-1.82.06-1,.38-2.46.17-2.91s-1.14-1-1.25.45a12.46,12.46,0,0,1-.83,4.06l-.34,0c-.69-3.27.13-4.09-.77-4.44s-1,1.7-.92,3.18c0,1.07-.13,3.45-.82,4.25a.13.13,0,0,1-.06,0,1,1,0,0,1-.83.22h0l-.25-.06c-.42-.14-.9-1.53-1.67-2.08s-1.17.35-1.17.35a13.66,13.66,0,0,1,1.94,3.67c.48,1.74,1.91,2.2,2.35,3.06a3.05,3.05,0,0,1,.08,1.23,3.27,3.27,0,0,0-1.25.94c-1.53,4.46-3.17,21.54-3.76,22.14-.22.23-10.33,7.07-15.8,10.75-.56-.95-2.16-1.61-4.26-2a14.77,14.77,0,0,0,.4-1.62c.72.57,2.94-.6,2.66-3.25-.15-1.34-.82-1.33-1.43-1,.93-3.88.85-8.25-1.56-8.62,0,0-.58-4.17-6.45-3.56-6.07.63-7.8-1.37-7.8-1.37a4,4,0,0,0-.08,4.1,5.41,5.41,0,0,0-1.62,3.92,16.83,16.83,0,0,0,.67,5.32c-.56-.22-1.14-.12-1.26,1.1-.28,2.65,1.93,3.82,2.65,3.26a14.73,14.73,0,0,0,.72,2.57,10.87,10.87,0,0,0-4.74,2.51,2.32,2.32,0,0,0,.13,3.68,16.94,16.94,0,0,0-3.47,1c-6.86,2.43-14.58,10.14-14.6,13.86a3.38,3.38,0,0,0,.81,2.14c-4.12-2.34-11.79-1.1-11.79-1.1a22.54,22.54,0,0,0-5.77,1.3c0-.17,0-.33-.07-.51,1.71-1.1,2.75-3,3-6.1a7.61,7.61,0,0,0,.36-.93c.95,0,2.56-1.51,1.9-3.94-.38-1.37-1.1-1.23-1.68-.83q-.06-.65-.18-1.35a11.53,11.53,0,0,0-.31-3.32c.32-.37,3.88-4.51,0-5.92a11.68,11.68,0,0,0-2.44-.56,3.21,3.21,0,0,0-.44-.56,2.92,2.92,0,0,0-1.13-.64,15.7,15.7,0,0,0-12,1.65,11.22,11.22,0,0,0-1.49,1.1c-1.78,1.59-.77,8.35-.77,8.35l.13-.11a19,19,0,0,0,.75,4.32c-.44,0-.78.39-.72,1.39.14,2.41,2,3.38,3,3.15a5.18,5.18,0,0,0,.77.78c1.19,2.66,2.69,4,4.52,4.53a8.08,8.08,0,0,1,.56,2.4c-2.35,1.27-5.78,4.95-7.77,8.51l-.12.16a10.29,10.29,0,0,0-1.35,3.49v0c-.93,5.1,2.45,10,5.63,13.34,6.2,9.58,12.55,18.26,15.31,29.61a10,10,0,0,0,2.53.63c0,1.38-.11,2.93-.19,4.62,0,.13,0,.27,0,.4-.41,8.82-1.08,20.61-2,25.91a292.92,292.92,0,0,0-20.94,29.42q-.15-.54-.3-1.17a2.5,2.5,0,0,0,.55-.88l-3.93-49.19-7.2-44.61.66-.22s0-3.62,0-8.83a13.54,13.54,0,0,0,1.86-2.07c2.2-3,2.1-19.5,0-32.27,7.3-3.74,18.72-9.91,21.8-13.39,4.64-5.23,13.17-23.5,13.17-23.5a6.69,6.69,0,0,0-.37-1.12,1.41,1.41,0,0,1,1-.7c1.08-.09,2-.64,3.63-1.64a14.86,14.86,0,0,1,3-.9c.77,0,2.43-.68,2-1.27s-.91.15-3.14.2a8.05,8.05,0,0,1,1.67-.8c.88-.2,2.63-1.39,2-2s-1,.47-3.82,1.08l-.11-.44,1.45-1.11c.81-.65,2.07-1.37,2.27-1.83s-.05-1.5-1.18-.62a12.25,12.25,0,0,1-3.56,2.1l-.19-.28c1.94-2.7,3.11-2.64,2.76-3.54s-1.9.43-3,1.45c-.77.74-2.64,2.21-3.71,2.24h-.07a1,1,0,0,1-.72-.47v0a.84.84,0,0,1-.12-.23c-.18-.4.52-1.69.42-2.63s-1.05-.64-1.05-.64a13.73,13.73,0,0,1-1.42,3.91c-1,1.52-.34,2.88-.68,3.79a9.48,9.48,0,0,1-.81,1.3l-.12,0c-2.7,2.46-15.95,19.06-15.95,19.06s-12.12,4.29-20.28,7.41a2.3,2.3,0,0,0-.43,0c-.91,0-3.32.3-7.73,2.79h0c-.66-2.36-3,0-3,0a4.54,4.54,0,0,1-1.37,1,3.86,3.86,0,0,1,0-.9c1.68-.86,2.87-2.58,3.47-5.68.7.56,2.85-.59,2.58-3.18-.15-1.46-1-1.26-1.59-.89,2-8.49-1-10.18-1-10.18s2.14-.31,1.86-.86-2.1,0-2.1,0-1.16-3-1.82-2.52,1,2.14,1,2.14c-5.77-2.79-14.33-1.48-14.88,4.2a19.45,19.45,0,0,0,.7,6.88c-.54-.19-1.09-.08-1.21,1.09-.27,2.58,1.88,3.73,2.59,3.18.63,3.35,2,5.21,3.89,6,0,.12,0,.23,0,.35a4.27,4.27,0,0,1-1-.62s-2.32-2.36-3,0l-.22-.1c-5.65-3.14-7.94-2.63-7.94-2.63-4.08-1.56-9.16-3.42-13.21-4.88s-7.07-2.53-7.07-2.53-13.29-17.09-16-19.55l-.17.1a9.32,9.32,0,0,1-.54-.89c-.34-.91.28-2.27-.68-3.79a13.56,13.56,0,0,1-1.41-3.91s-1-.3-1.06.64.6,2.23.43,2.63a1.26,1.26,0,0,1-.13.23v0a1,1,0,0,1-.73.47h-.06c-1.07,0-2.94-1.5-3.71-2.24-1.06-1-2.62-2.35-3-1.45s.81.84,2.75,3.54l-.19.28a12.5,12.5,0,0,1-3.57-2.1c-1.13-.88-1.36.17-1.16.62s1.46,1.18,2.26,1.83L81,96.73l-.09.44c-2.8-.61-3.24-1.66-3.83-1.08s1.16,1.77,2.05,2a8,8,0,0,1,1.66.8c-2.23,0-2.77-.76-3.14-.2s1.27,1.25,2,1.27a15.08,15.08,0,0,1,3,.9c1.64,1,2.54,1.55,3.64,1.64a1.49,1.49,0,0,1,1.07.86,6.74,6.74,0,0,0-.46,2.11s8.35,17.12,13,22.35c3.09,3.48,14.5,9.65,21.81,13.39-2.12,12.77-2.22,29.28,0,32.27a13.24,13.24,0,0,0,1.61,1.83c0,2.33.06,4.29.1,5.73l-7.55-4.86s-1-.78-3.89-8.65c-2.72-7.37-5.63-11.54-10.16-10.69a36.62,36.62,0,0,0,1-10,3.12,3.12,0,0,0,.2-1.1,3.69,3.69,0,0,0-.2-1.17,2.09,2.09,0,0,0-.26-.54c-1.31-10.22-5.95-9.68-5.95-9.68a10.47,10.47,0,0,0-9.09-.58c-5.39,1.93-6.6,9.2-5.28,15.1a17,17,0,0,1-.29,6,5.93,5.93,0,0,0-2.7,1.6h0a4.46,4.46,0,0,0-1.34,2.09,13.57,13.57,0,0,0-.88,4.89.18.18,0,0,1,0,.06c-.47,4.71-1.1,8.53-1.56,11l-.61-.51c-3.2-2.53-9.92-12-10.95-13.43.49-2.12-1.78-3.09-1.62-6.21,0,0-.88-.38-.84,2.43l-.47-.35c-1.28-1-4.78-3.49-5.49-3.24s.58.64,2.35,2.31c-.1-.05-3.28-1.54-4.12-.89-.61.48.3-.07,3.65,2.16,0,0-2.57-.93-3.3-.49s.06.55,1,.91c.11.06.23.1.36.16s-.71.19.54.91a25,25,0,0,1,4.49,3.41,2.28,2.28,0,0,0,1.11.62c1.88,5.57,7.39,15.15,10.54,18.15.54.52,2.86,3,4.6,2.86h0c.91.2,1.89-1.07,2.84-3.11a27.24,27.24,0,0,1-.67,8.61s-4.15.84-9.47,4.87S57.61,205,53,217.78a11.71,11.71,0,0,0-3-3.19,5.32,5.32,0,0,0-1.19-.6,3.15,3.15,0,0,0-2.28,0c-.85.35-1.18.79-1.26,1.32-2.32-3.12-5-6.44-8.1-10a.87.87,0,0,0,.25-1.11c-.39-.76-1.1-1.16-1.1-1.94a5.47,5.47,0,0,0-.78-2.07s-2.26-1.8-5.73,1.23-6.65,6.33-6.16,9.15,3.08,2.2,4.09,1.15l.5-.55a15.15,15.15,0,0,1,3-2.88,2.68,2.68,0,0,1,.33-.18c1.32-.62,2.08.79,2.75.18,1.29,2.81,4.28,9.46,7.26,16.4-1.06,2.46-.75,5.38,3.05,8.1l.48.36.39,1a10.08,10.08,0,0,0,3.08,4.17c.87,3.16.32,6.48,1.51,9.29,3.52,8.38,14.19,7.51,20.07,7.25a126,126,0,0,0,2.52,28.91c-.44-.09-.85.18-.65,1.83.23,1.82-1.11,3.9-.38,6H82.69s.66-.31.32-1.93c0-.12-.05-.24-.09-.37-.35-1.3-2.41-1.28-3.66-3.09a7.13,7.13,0,0,1-1-4.42c0-.52-.55-.77-1.3-.75.52-4.94,1.48-13.66,2.55-21.45a5.32,5.32,0,0,0,2.2.37c3.52-.09,3.47-5.45,3.47-5.45s10.48-20.24,10.08-60h0l4.78-10.4a23.9,23.9,0,0,0,4.79-16c2.39,4.18,6.3,10.82,8,12.61,2.14,2.19,9.78,5.41,12.38,6.48l-6.78,42-3.93,49.19a2.81,2.81,0,0,0,.75,1.07c-.52,2.22-1.13,3.41-1.88,4.12s-2,1-3.41,1.52a4,4,0,0,0-2.79,3.36,7.6,7.6,0,0,0,.28,3.16h16.42a32.76,32.76,0,0,0-.4-11.82l.46-.15S130.08,234,131,233s10.58-30.81,10.58-30.81h3S154.24,232,155.18,233s7,46.63,7,46.63l.69.23a32.51,32.51,0,0,0-.38,11.74H182a5.23,5.23,0,0,0,.22-1.17,3,3,0,0,0-1.51-3.17,4.23,4.23,0,0,1-1.72-3l.81.14s24.71-23,27-28.44c2-4.79,6.75-25.73,7.88-30.72.15-.7.24-1.08.24-1.08l.06,0,22.74,17s0,.77,0,2.16a31.67,31.67,0,0,1-1.32,3.33c0,.13-.11.25-.16.36-.22.48-.38.78-.38.78a11.42,11.42,0,0,0,2,3c0,1.54.09,3.25.14,5.07-1.85,5.44-3,14.21-3.5,19.07-1.7.69-2.52,2.93-2,7.72a21.12,21.12,0,0,0-.37,3.85,12.73,12.73,0,0,0,.93,5h25.28a10.66,10.66,0,0,0,.06-1.17c0-1.5-.32-4-2.44-4.29a33.07,33.07,0,0,1-4.79-.84,8.43,8.43,0,0,1-1.27-.47,5.85,5.85,0,0,1-.56-.28,7.43,7.43,0,0,1-2.16-1.69l.47,0s1.25-11.41,2.45-23.26a32.33,32.33,0,0,0,1.61-6c.49-.16,1-.33,1.47-.54,0,0,.21-.5.53-1.29l.17-.45A33.29,33.29,0,0,0,255.5,246c3.38-18.78,3.64-30,6.5-32a1.41,1.41,0,0,1,.35-.21h0c4.16-1.76,25.52,19.19,25.52,19.19l2,3,.27.38,1,1.45s.93,0,2.32-.12c1.89,7.79,10.84,21.7,13.48,25.7a2.69,2.69,0,0,0-.58,1.82c.35,1.14,3,3.52,3,3.52a7,7,0,0,0,2.84,4.83,29.55,29.55,0,0,0,16.53-11.14ZM171.57,281.05c-.06-.17-.11-.34-.17-.53l.35.28Zm37-108.18h0l0,.07Zm30.17,34c0,.11,0,.24,0,.36-.19,2.37-.37,5.83-.48,10.82-4.23-4.15-8.51-8.22-11.45-11l-.3-.28-2.38-2.23s0,0,0,0a111.84,111.84,0,0,1-11.18-19.06c3.22-.62,5.45-1.32,5.73-2,1.18-2.91-5.72-12.65-5.72-12.65a8.44,8.44,0,0,1,.91-.17s-2.12-2.68-4.69-5.3a34.69,34.69,0,0,0,15.54,3.48c6.82,14.32,5.75,23.59,13.09,27.53,0,1,.15,3.18,1.06,3.36l.3.07.32,2.22S239.1,202.46,238.74,206.9ZM312,262.2l.06-.07c.06.15.12.31.19.47A4.1,4.1,0,0,0,312,262.2Z"/>
        </g>
       <text class="hiddenText" id="fr1"></text>
           <text class="hiddenText"  x="-2" y="26" id="fr2"></text>
            <text class="hiddenText"  x="-2" y="50" id="fr3"></text>
            
     
</svg>