<!-- Generator: Adobe Illustrator 23.0.2, SVG Export Plug-In . SVG Version: 6.00 Build 0)  -->
<svg version="1.1" id="NAMES" xmlns="http://www.w3.org/2000/svg" xmlns:xlink="http://www.w3.org/1999/xlink" x="0px" y="0px"
	 viewBox="0 0 300 300" style="enable-background:new 0 0 300 300;" xml:space="preserve">
<style type="text/css">
	.st0{fill:#00FFDA;}
</style>
<g>
	<path class="st0" d="M90.2,90.4c1.2-1.1,2.4-1.6,3.9-1.6H146v10.7H99.7l-0.1,32h46.3v10.7H94c-1.4,0-2.7-0.5-3.9-1.6
		c-1.2-1.1-1.7-2.3-1.7-3.7l0.1-42.7C88.5,92.7,89.1,91.5,90.2,90.4z"/>
	<path class="st0" d="M160.6,88.8v43.8h41.1V88.8h10.3v48.6c0,1.3-0.5,2.4-1.5,3.3c-1,0.9-2.2,1.4-3.6,1.4h-51.4
		c-1.3,0-2.5-0.5-3.5-1.4c-1.1-0.9-1.6-2.1-1.6-3.3V88.8H160.6z"/>
	<path class="st0" d="M98.4,168.4l30.3-10.9c5.6-2,9.8-3,12.6-3c3.1,0,4.7,1.5,4.7,4.5v36.5c0,1.2-0.5,2.3-1.5,3.2
		c-1,0.9-2.1,1.4-3.3,1.4H93.2c-1.3,0-2.4-0.5-3.4-1.4c-1-0.9-1.4-2-1.4-3.2v-50.1h10V168.4z M136.3,165.3L98,178.2v12.8h38.4V165.3
		z"/>
	<path class="st0" d="M151.3,175.8l20.3-29h40.3v31.8H182v-10.7h18.7v-10.5h-23.1l-16.1,22.9v9.1h50.4v10.7h-56
		c-1.4,0-2.7-0.5-3.9-1.6c-1.2-1.1-1.7-2.3-1.7-3.7v-16C150.3,177.7,150.6,176.7,151.3,175.8z"/>
</g>
<g>
	<g>
		<path class="st0" d="M149.5,300.5c-2.4,0-4.8-0.6-6.9-1.8L24.5,230.3c-4.2-2.4-6.8-7-6.8-11.9l0.1-136.6c0-4.9,2.6-9.4,6.8-11.8
			L142.9,1.8c4.2-2.4,9.5-2.4,13.7,0l118.2,68.4c4.2,2.4,6.8,7,6.8,11.9l-0.1,136.5c0,4.9-2.6,9.4-6.9,11.8l-118.3,68.2
			C154.3,299.8,151.9,300.5,149.5,300.5z M149.8,3.2c-1.8,0-3.6,0.5-5.2,1.4L26.2,72.8c-3.2,1.9-5.2,5.3-5.2,9l-0.1,136.6
			c0,3.7,2,7.2,5.2,9l118.2,68.4c3.2,1.8,7.3,1.8,10.4,0l118.3-68.2c3.2-1.9,5.2-5.3,5.2-9l0.1-136.5c0-3.7-2-7.2-5.2-9L155,4.6
			C153.4,3.7,151.6,3.2,149.8,3.2z"/>
	</g>
	<g>
		<polygon class="st0" points="144.5,297.7 154.8,297.7 150,223.2 		"/>
	</g>
	<g>
		<polygon class="st0" points="23.5,72.3 18.8,81.3 77.5,106.5 		"/>
	</g>
	<g>
		<polygon class="st0" points="275.7,72.3 280.3,81.3 221.7,106.5 		"/>
	</g>
</g>
<g>
	<path class="st0" d="M91.6,212.6c0,0.6-0.5,1-1,1v0h-0.7c-0.6,0-1.1-0.4-1.1-1v-7c0-0.1,0.1-0.2,0.3-0.2h0.6v7.1
		c0,0.2,0.2,0.4,0.5,0.4h0.1c0.3,0,0.5-0.2,0.5-0.4v-7.1h0.9V212.6z"/>
	<path class="st0" d="M99.2,212.7c-0.1,0.2-0.2,0.5-0.3,0.6c-0.1,0.1-0.2,0.2-0.5,0.2h-2.1v-8.2H97c0.1,0,0.3,0.1,0.3,0.3v7.1H99.2z
		"/>
	<path class="st0" d="M105.6,206c0,0.1-0.2,0.2-0.5,0.2h-0.7c-0.1,0-0.2,0.1-0.2,0.2v7.2h-0.6c-0.2,0-0.2-0.1-0.2-0.2v-7.2h-1.2
		v-0.6c0-0.1,0.1-0.3,0.3-0.3h3.5L105.6,206z"/>
	<path class="st0" d="M110.4,205.4c0.3,0,0.4,0.2,0.4,0.3v7.9h-0.6c-0.2,0-0.2-0.1-0.3-0.2v-8H110.4z"/>
	<path class="st0" d="M119,213.6h-0.9v-4.2l-0.7,2.8h-0.3c-0.5,0-0.6-0.5-0.7-0.7l-0.5-2.1v4.2h-0.9v-8.2h0.5c0.3,0,0.4,0.3,0.4,0.3
		l1,4.7l1-4.7c0,0,0.1-0.3,0.4-0.3h0.5V213.6z"/>
	<path class="st0" d="M126.1,213.6h-1l-0.8-5.6l-0.8,5.6h-1l1.3-8.2h0.5c0.4,0,0.4,0.2,0.5,0.4L126.1,213.6z"/>
	<path class="st0" d="M132.8,206c0,0.1-0.2,0.2-0.5,0.2h-0.7c-0.1,0-0.2,0.1-0.2,0.2v7.2h-0.6c-0.2,0-0.2-0.1-0.2-0.2v-7.2h-1.2
		v-0.6c0-0.1,0.1-0.3,0.3-0.3h3.5L132.8,206z"/>
	<path class="st0" d="M139.8,212.7c-0.1,0.2-0.2,0.5-0.3,0.6c-0.1,0.1-0.2,0.2-0.5,0.2h-2v-8c0-0.1,0.1-0.2,0.3-0.2h2.3l-0.3,0.6
		c0,0.1-0.2,0.2-0.5,0.2h-0.7c-0.1,0-0.2,0.1-0.2,0.2v2.4h1.3c-0.1,0.2-0.2,0.5-0.3,0.6c-0.1,0.1-0.2,0.2-0.5,0.2h-0.4
		c-0.1,0-0.2,0.1-0.2,0.2v2.8H139.8z"/>
	<path class="st0" d="M154.1,212.6c0,0.6-0.5,1-1,1h-0.5c-0.6,0-1.1-0.5-1.1-1v-6.3c0-0.6,0.5-1,1.1-1h0.5c0.6,0,1,0.5,1,1v1.3
		c0,0.3-0.1,0.4-0.2,0.4l-0.6,0.3v-1.8c0-0.2-0.2-0.4-0.5-0.4c-0.3,0-0.5,0.2-0.5,0.4v6c0,0.3,0.2,0.5,0.5,0.5
		c0.3,0,0.5-0.2,0.5-0.5v-1.1c0-0.3,0.1-0.4,0.2-0.5c0.1,0,0.4-0.2,0.6-0.3V212.6z"/>
	<path class="st0" d="M161.2,205.4c0.3,0,0.4,0.2,0.4,0.3v7.9h-0.9V210c0-0.1-0.1-0.2-0.2-0.2h-1v3.8h-0.9v-7.9
		c0-0.1,0.1-0.3,0.4-0.3h0.5v3.3c0,0.2,0.1,0.3,0.3,0.3h0.9v-3.6H161.2z"/>
	<path class="st0" d="M168.9,213.6h-1l-0.8-5.6l-0.8,5.6h-1l1.3-8.2h0.5c0.4,0,0.4,0.2,0.5,0.4L168.9,213.6z"/>
	<path class="st0" d="M176,212.7c-0.1,0.2-0.2,0.5-0.3,0.6c-0.1,0.1-0.2,0.2-0.5,0.2h-2.1v-8.2h0.6c0.1,0,0.3,0.1,0.3,0.3v7.1H176z"
		/>
	<path class="st0" d="M182.7,212.7c-0.1,0.2-0.2,0.5-0.3,0.6c-0.1,0.1-0.2,0.2-0.5,0.2h-2.1v-8.2h0.6c0.1,0,0.3,0.1,0.3,0.3v7.1
		H182.7z"/>
	<path class="st0" d="M189.4,212.7c-0.1,0.2-0.2,0.5-0.3,0.6c-0.1,0.1-0.2,0.2-0.5,0.2h-2v-8c0-0.1,0.1-0.2,0.3-0.2h2.3l-0.3,0.6
		c0,0.1-0.2,0.2-0.5,0.2h-0.7c-0.1,0-0.2,0.1-0.2,0.2v2.4h1.3c-0.1,0.2-0.2,0.5-0.3,0.6c-0.1,0.1-0.2,0.2-0.5,0.2h-0.4
		c-0.1,0-0.2,0.1-0.2,0.2v2.8H189.4z"/>
	<path class="st0" d="M196.4,213.6H196c-0.5,0-0.5-0.4-0.6-0.5l-0.9-4v4.6h-0.9v-8.2h0.4c0.5,0,0.6,0.2,0.6,0.5l0.9,4.3v-4.7h0.9
		V213.6z"/>
	<path class="st0" d="M203.6,207.6c0,0.3-0.1,0.4-0.2,0.5c-0.1,0-0.4,0.2-0.6,0.3v-1.9c0-0.2-0.2-0.4-0.5-0.4
		c-0.3,0-0.5,0.2-0.5,0.4v6c0,0.2,0.2,0.4,0.5,0.4c0.3,0,0.5-0.2,0.5-0.4V210h0c-0.2,0-0.3-0.3-0.3-0.3l-0.3-0.6h1.1
		c0.3,0,0.4,0.1,0.4,0.5v3c0,0.6-0.5,1-1.1,1H202c-0.6,0-1.1-0.5-1.1-1v-6.3c0-0.6,0.5-1,1.1-1h0.5c0.6,0,1.1,0.5,1.1,1V207.6z"/>
	<path class="st0" d="M211.3,212.7c-0.1,0.2-0.2,0.5-0.3,0.6c-0.1,0.1-0.2,0.2-0.5,0.2h-2v-8c0-0.1,0.1-0.2,0.3-0.2h2.3l-0.3,0.6
		c0,0.1-0.2,0.2-0.5,0.2h-0.7c-0.1,0-0.2,0.1-0.2,0.2v2.4h1.3c-0.1,0.2-0.2,0.5-0.3,0.6c-0.1,0.1-0.2,0.2-0.5,0.2h-0.4
		c-0.1,0-0.2,0.1-0.2,0.2v2.8H211.3z"/>
</g>
</svg>
