<svg  data-name="Layer 1" 
    xmlns="http://www.w3.org/2000/svg" viewBox="0 0 407.53 319.26">
    <defs>
        <style>
            .schooltrips1 {
                fill: #00fff8;
                opacity: 0.05;
            }

            .schooltrips2 {
                fill: none;
                                                                            <!-- stroke: #fff33e; -->
                stroke-miterlimit: 10;
                stroke-width: 3px;
            }

            .eventTitle {
                font-size: 25px;
                fill: #fff33e;
font-family: TitilliumWebBold;
                font-weight: 700;
            }

            .schooltrips4 {
                fill: #fff;
            }
        </style>
    </defs>
    <path class="schooltrips1" d="M366.43,316.21H25c-12.47,0-22.33-11.9-21.46-25.9L20.07,25.36c.79-12.68,10.17-22.5,21.46-22.5H383c12.48,0,22.34,11.89,21.46,25.89l-16.56,265C387.1,306.38,377.73,316.21,366.43,316.21Z" />
    <path class="schooltrips2" d="M366.43,316.21H25c-12.47,0-22.33-11.9-21.46-25.9L20.07,25.36c.79-12.68,10.17-22.5,21.46-22.5H383c12.48,0,22.34,11.89,21.46,25.89l-16.56,265C387.1,306.38,377.73,316.21,366.43,316.21Z" />
    <text class="eventTitle" transform="translate(185.37 63.01)" id="school"></text>
    <g id="SCHOOL_TRIPS">
        <g data-name="SCHOOL TRIPS">
            <path class="schooltrips4" d="M148.36,241.45v0c-.5-1.2-2.76-6.67-3.47-8.19a33.75,33.75,0,0,0-3-4.83,11.61,11.61,0,0,1-1-3.39c-.29-1.38-1.21-5.28-1.21-5.28h-.21a.41.41,0,0,0,.16-.35c-.13-.94-.55-6.25-.63-7.59a3.67,3.67,0,0,0-1.32-2.49,2.36,2.36,0,0,0-1.3-.62l-.14-.07.3-.08-1.89-1a2.93,2.93,0,0,0-1.25,0c-.55-.19-1.07-.36-1.49-.53a13.2,13.2,0,0,1-.05-3.66,12.66,12.66,0,0,0,3.24.18c.76-.22,1.05-1.76,1.33-2.67a19,19,0,0,0,.24-3.49,19.91,19.91,0,0,0-.3-4,3.78,3.78,0,0,0-.27-1h.38A8.8,8.8,0,0,1,139,193a3.33,3.33,0,0,0-2.84-2.47,5.13,5.13,0,0,1,1.94-.35,6.76,6.76,0,0,0-5-2.13,3,3,0,0,1,1.26-.89c-1.48-.61-3.15-.11-4.67.38a2.44,2.44,0,0,1,.8-.83,13.09,13.09,0,0,0-5.55,2.89,7.09,7.09,0,0,0-2.31,5.11,6.18,6.18,0,0,0,1.26,4.45,23.63,23.63,0,0,1,1.64,2,4,4,0,0,1,.6,2.2l.07,0a4.84,4.84,0,0,1-1.31,2.39v0a3.31,3.31,0,0,0-.73.2,13,13,0,0,1-1.57.4h0l-2.31.42h0c-.4.07-.75.13-1,.19a4.17,4.17,0,0,0-2.16,1.51c-.52,1-.58,5.84-.46,6.9,0,0,.2.19.52.46a16.07,16.07,0,0,0-1.93,4.14,3,3,0,0,0,.22,2.8,23.49,23.49,0,0,0-.22,2.64A38.09,38.09,0,0,0,117,236.94c.1.35.21.69.34,1h0a5.1,5.1,0,0,0,.58,1.14,5.35,5.35,0,0,0,2.25,1.75l.05.89a5.6,5.6,0,0,0,1.1,1c.08,1.51.17,3.06.26,4.41.24,3.36,1,10.43,1.11,11.72s-1.75,5.39-2.45,7.36a26.18,26.18,0,0,0-1.23,7.14c0,1.9-.59,13.39-.59,13.39a3.56,3.56,0,0,0,.31.26,5.92,5.92,0,0,0,.21,3.23,1.71,1.71,0,0,0,.31.56,1.45,1.45,0,0,0,1.65.25,3.19,3.19,0,0,0,1.26-1.21,9.56,9.56,0,0,1,1-1.44,3.15,3.15,0,0,1,1.3-.81,6,6,0,0,0,.67-.24,3,3,0,0,0,1-1l.63-.83a1.51,1.51,0,0,0,.41-.93,1,1,0,0,0-.77-.81,2,2,0,0,0-.73-.05l2.4-19.41h0a23.54,23.54,0,0,0,.63-2.57c.4-2.58,2.17-14.93,2.17-14.93s5.29,14.32,5.47,15.33a4.55,4.55,0,0,1,0,.58s0,.29-.06.78c-.17,1.95-.68,5.34-.72,7.84,0,.22,0,.47,0,.76-.41,3.81-.52,13.42-.52,13.42l.74.7a9.1,9.1,0,0,0,.91.6c-.38,2.31-.19,2.91.19,3.34s2.06.3,2.79,0a7.22,7.22,0,0,1,3.38-1.16,4.8,4.8,0,0,0,3.57-1.64,2.27,2.27,0,0,0,0-2.42,2.24,2.24,0,0,0-1.79-.91,19.62,19.62,0,0,0-2.47.78c.12-4.2.64-22,.64-23.57,0-1.8-.64-17.29-1.22-20.09l-.06-.28c-.16-.77-.45-2.63-.8-5,.81.87,1.7,1.74,2.06,2.13s2,2.49,2.52,3.19a5.92,5.92,0,0,1-.65,1.31,4.77,4.77,0,0,0-.11,3c.13.74.26,1.48.38,2.22.54.07.92-.56.9-1.08a10.54,10.54,0,0,1-.19-1.56c1,0,1.72,1,1.91,2a14,14,0,0,0,.48,2.89.6.6,0,0,0,0,.92.68.68,0,0,0,0,.84.92.92,0,0,0,.66-.5,7.19,7.19,0,0,0,.9-4.93A21,21,0,0,0,148.36,241.45Z" />
            <path class="schooltrips4" d="M68.14,252.81c.31,1.3,2.72,2.72,3.4,2.72s.8-2.59.74-3.58-2.6-1.54-2.6-1.54-3.42-4.69-6.59-9.06c-.78-7.12-1.86-15.93-2.61-17.75-1.29-3.15-3-3.09-3-3.09l.68-1.17,2.85-.05a.77.77,0,0,0,.74-.6,16.9,16.9,0,0,0,.48-3.61c-.06-1.42.19-4.7-.86-6.42s-.31-2.17-.31-2.17a4.62,4.62,0,0,0,1.64-.86,8.62,8.62,0,0,0,1.32-3,19.93,19.93,0,0,1-3.7-.5c-.74-.33-4.28-2.47-7.41-1.81s-4,1.64-4.53,2.8a13.69,13.69,0,0,0-.91,2.47,1.72,1.72,0,0,0-2.06,1.56c-.24,1.9-.74,7.08,1.16,9.06a13.08,13.08,0,0,0,4.2,2.88l-1.57,1.65-2.39,4.78s-3.62-1.57-4.94-1.07S38.12,228,38,229s-4.12,17.46-4,18,1.4.57,1.4.57-1.31,4-.08,4.78,9.47,0,9.47,0-.41,5.52-.49,7.33.49,8.56.49,8.56-10,12.27-10,12.77a7.21,7.21,0,0,0,.08,1l-.58.74a2.33,2.33,0,0,0-1.31.65,6.83,6.83,0,0,0-.58,3.3c.17.9,1.73,1.48,2.47,2.14s2.64,4.61,5.93,3.95,2.06-1.4.16-4.11c-1.62-2.34-2.34-2.73-2.51-2.79a2,2,0,0,0,1.53-.1C40.51,285.3,45,280,45,280s8.81-12.23,9.31-13.36a5.22,5.22,0,0,1,.82-1.46s2.8,2.63,3.13,4.11,1.4,6.59,1.48,8-.9,10.13-.9,10.13l.57.33s-1.31,4.69-.24,5,12.35,0,12.35,0,.49-2.55-.33-3.29S67,288.35,66.29,288a6.12,6.12,0,0,1-1.4-1.15s1.32-.25,1.32-.58-.33-14.16-.33-15.89-3-16.23-4.7-17.46S63,251,63,251l1.07-.16s-.09-1-.26-2.67l4.4,3.06S67.83,251.52,68.14,252.81Z" />
            <path class="schooltrips4" d="M118.07,244.87a22.28,22.28,0,0,0-2.63-.26,47.93,47.93,0,0,1-4.21-5.52,88.69,88.69,0,0,0-5.37-7.1c-.2-3.1-.47-5.7-.86-6.5-1.14-2.36-3.5-5.78-3.5-6.22s.17-4.21.17-4.21,3.1-.41,4.82-.85c1.64-.82,2.86-3,3.4-4.18a14.8,14.8,0,0,0,1.45-6.1,5.29,5.29,0,0,0,2-.48,5.43,5.43,0,0,0-1.19-4.31,7.8,7.8,0,0,0-3.47-2.31,10.72,10.72,0,0,0-10.06-2.71,9,9,0,0,0-1.54.51s-5.35-4.83-8.68-1S85.89,209.18,84,210.32s-3,4.12-5.35,2.28,2.72,4,6.49,5.09,6.13.17,6.66-4.3.09-7,.09-11.14,1.49-2.45,1.49-2.45-.7,5,.88,7.8,2.89,1.85,2.89,5.27-.53,3.94-.53,3.94l-4.64,4.74s-4.56-2.37-6.41.44-4.2,18.24-4.2,18.24,1,5.87,1.75,6.22,8.68,1.06,8.68,1.06-5.87,13.15-5.09,13.59a11.38,11.38,0,0,1,2,1.84l-.7,2s-4.38,4-5.88,5.61-6,9.12-6.48,9.56-2.37.52-3.6,1.75-.35.61-.35,3.6,1.93,6.49,3.42,6.57a7.67,7.67,0,0,0,3.16-.7,15,15,0,0,1-1.41-2.28c-1.14-2,.18-4.56.18-4.56s9.12-9.91,11.57-12.36a35,35,0,0,0,4.83-7l11.13-.09a33,33,0,0,1,.62,3.42c.09,1.14-.7,5.88-.26,7.19s1.84,3.6,1.75,5.88-.09,5.61-.09,5.61-1.84,2.28-.88,3.25,6.58,1.49,8.51,1.49,4.39,0,3.16-1.4-4.83-1-5.79-4,.88-23.06,1.14-23.33,2.28.18,1.23-2.19-7.11-14.73-7.37-14.73c-.1,0-.2-2.95-.34-6.64,2.78,2.3,6.45,5.21,8.15,6.29,2.89,1.84,1.49,1.22,1.49,2.19s2,.44,3.07.35S118.77,245.05,118.07,244.87Z" />
            <rect class="schooltrips4" x="158.49" y="247.47" width="177.38" height="8.73" />
            <path class="schooltrips4" d="M188.75,265.5a6.5,6.5,0,0,0,6.51,6.51H299.1a6.51,6.51,0,0,0,6.52-6.51v-.57H188.75Z" />
            <path class="schooltrips4" d="M161.66,266.54v22.81a3.91,3.91,0,0,0,3.91,3.91h14.25a3.91,3.91,0,0,0,3.91-3.91V266.54a3.91,3.91,0,0,0-.35-1.61H162A3.76,3.76,0,0,0,161.66,266.54Z" />
            <path class="schooltrips4" d="M310.63,266.54v22.81a3.91,3.91,0,0,0,3.91,3.91h14.25a3.91,3.91,0,0,0,3.91-3.91V266.54a3.91,3.91,0,0,0-.35-1.61H311A3.91,3.91,0,0,0,310.63,266.54Z" />
            <polygon class="schooltrips4" points="158.49 259.02 158.49 262.11 162.01 262.11 183.38 262.11 188.75 262.11 305.62 262.11 310.98 262.11 332.35 262.11 335.87 262.11 335.87 259.02 158.49 259.02" />
            <path class="schooltrips4" d="M336.12,168.27H334.8v-19a.29.29,0,0,0-.29-.27h-9.44v-1.32h9.44a1.62,1.62,0,0,1,1.61,1.58Z" />
            <path class="schooltrips4" d="M336.12,173H334.8v-19a.29.29,0,0,0-.29-.28h-9.44v-1.31h9.44a1.61,1.61,0,0,1,1.61,1.57Z" />
            <rect class="schooltrips4" x="329.43" y="159.65" width="11.65" height="23.76" rx="1.24" />
            <path class="schooltrips4" d="M159.53,168.38h-1.32v-19a1.62,1.62,0,0,1,1.61-1.59h9.44v1.32h-9.44a.29.29,0,0,0-.29.29Z" />
            <path class="schooltrips4" d="M159.53,173.13h-1.32V154.18a1.62,1.62,0,0,1,1.61-1.59h9.44v1.32h-9.44a.28.28,0,0,0-.29.28Z" />
            <rect class="schooltrips4" x="153.24" y="159.76" width="11.65" height="23.76" rx="1.24" transform="translate(318.14 343.28) rotate(-180)" />
            <line class="schooltrips4" x1="210.53" y1="183.8" x2="207.13" y2="180.29" />
            <line class="schooltrips4" x1="286.45" y1="183.81" x2="282.93" y2="180.29" />
            <path class="schooltrips4" d="M320.27,203.34H174.1a13.21,13.21,0,0,0-13.22,13.21v30.92h10v-4.6a2.1,2.1,0,0,1,2.09-2.1h4.55a2.1,2.1,0,0,1,2.1,2.1v4.6h135v-4.6a2.1,2.1,0,0,1,2.09-2.1h4.55a2.1,2.1,0,0,1,2.1,2.1v4.6h10V216.55A13.2,13.2,0,0,0,320.27,203.34ZM188.88,236.82a11.42,11.42,0,1,1,11.46-11.47A11.44,11.44,0,0,1,188.88,236.82Zm86.8-3.26h-56.6V230.8h56.6Zm0-6.77h-56.6V224h56.6Zm0-6.78h-56.6v-2.76h56.6Zm29.73,16.81a11.42,11.42,0,1,1,11.52-11.4A11.36,11.36,0,0,1,305.41,236.82Z" />
            <path class="schooltrips4" d="M305.44,114.73H188.92a20.3,20.3,0,0,0-20.3,20.3v77.53H325.74V135A20.3,20.3,0,0,0,305.44,114.73ZM283.57,131q.1-4.81.26-9.67h7.25c-.22,2-.42,4.06-.62,6.09s-.33,4.08-.41,6.14c.43,0,.87,0,1.29,0h2.83l1.53,0-.58,6.19-11.73.92C283.44,137.4,283.5,134.17,283.57,131Zm-18.49-1.35a9.36,9.36,0,0,1,.84-2.19,9.68,9.68,0,0,1,1.33-1.9A9.21,9.21,0,0,1,269,124a8.38,8.38,0,0,1,2.1-1,8.06,8.06,0,0,1,2.38-.35,10.48,10.48,0,0,1,3.68.62,7.82,7.82,0,0,1,4.67,4.61,9.86,9.86,0,0,1,.65,3.69,10.32,10.32,0,0,1-.29,2.44,10.1,10.1,0,0,1-.84,2.21,9.37,9.37,0,0,1-1.34,1.89,8.87,8.87,0,0,1-1.77,1.47,8.41,8.41,0,0,1-2.14.95,9,9,0,0,1-4.84,0,8.74,8.74,0,0,1-2.13-.9,8.54,8.54,0,0,1-3.15-3.2,9.18,9.18,0,0,1-.88-2.14,8.93,8.93,0,0,1-.31-2.38A9.52,9.52,0,0,1,265.08,129.62Zm-50.4-1.34a10.88,10.88,0,0,1,2-3.69,9.43,9.43,0,0,1,3.29-2.51,10.37,10.37,0,0,1,4.5-.92,13.5,13.5,0,0,1,2,.15,6.46,6.46,0,0,1,1.87.57l-.78,5.88a5.76,5.76,0,0,0-.81-.15,7.32,7.32,0,0,0-.81,0,7,7,0,0,0-2,.27,4.84,4.84,0,0,0-1.65.83,4,4,0,0,0-1.14,1.39,4.21,4.21,0,0,0-.43,2,3.17,3.17,0,0,0,.23,1.25,2.3,2.3,0,0,0,.65.88,2.74,2.74,0,0,0,1,.51,4.5,4.5,0,0,0,1.25.17,5.8,5.8,0,0,0,1.07-.11,8.08,8.08,0,0,0,1.1-.29,9,9,0,0,0,1.06-.42,10.46,10.46,0,0,0,.95-.49l-.56,6.55a9,9,0,0,1-1.17.5c-.43.14-.86.26-1.31.37a10.32,10.32,0,0,1-1.33.24,9.77,9.77,0,0,1-1.29.09,8.24,8.24,0,0,1-3.3-.66,8,8,0,0,1-2.66-1.8,8.44,8.44,0,0,1-2.42-6A14.42,14.42,0,0,1,214.68,128.28Zm-7.57,5.77a1.27,1.27,0,0,0-.43-.3,2.63,2.63,0,0,0-.6-.18,5.07,5.07,0,0,0-.65-.09l-.6,0h-.45a5.5,5.5,0,0,1-2.18-.42,5,5,0,0,1-1.68-1.16,5.35,5.35,0,0,1-1.1-1.77,6.26,6.26,0,0,1-.39-2.23,6.42,6.42,0,0,1,.66-2.94,7.12,7.12,0,0,1,1.77-2.22,8.09,8.09,0,0,1,2.55-1.4,9.25,9.25,0,0,1,3-.49c.45,0,.92,0,1.4.05a11.33,11.33,0,0,1,1.44.18,12.41,12.41,0,0,1,1.4.32,7.75,7.75,0,0,1,1.3.49l-.53,5.65a16.86,16.86,0,0,0-2-.53,9.62,9.62,0,0,0-2-.22h-.47c-.19,0-.39,0-.6,0s-.42.06-.63.1a2.54,2.54,0,0,0-.57.19,1.17,1.17,0,0,0-.41.31.68.68,0,0,0-.14.46.69.69,0,0,0,.23.5,1.64,1.64,0,0,0,.56.29,4.15,4.15,0,0,0,.75.15c.28,0,.55,0,.82.05h.75a3.28,3.28,0,0,1,.57,0,5.59,5.59,0,0,1,2,.47,4.75,4.75,0,0,1,1.51,1.07,4.66,4.66,0,0,1,.95,1.6,6.32,6.32,0,0,1,.32,2,7.9,7.9,0,0,1-.66,3.34,6.58,6.58,0,0,1-1.81,2.37,7.61,7.61,0,0,1-2.69,1.42,11,11,0,0,1-3.31.48,7.09,7.09,0,0,1-1.5-.18A15.77,15.77,0,0,1,202,141c-.55-.18-1.09-.37-1.61-.58l-1.37-.59.62-5.74a9.89,9.89,0,0,0,2.62,1.08,11.72,11.72,0,0,0,2.84.37l.64,0a3.39,3.39,0,0,0,.72-.13,1.49,1.49,0,0,0,.57-.31.75.75,0,0,0,.24-.6A.69.69,0,0,0,207.11,134.05Zm35.71,44a4.9,4.9,0,0,1-5.25,5.28H209.28c-9.3,0-18.61-.07-27.91,0a5.38,5.38,0,0,1-5.67-5.72c.16-7.69.05-15.38.05-23.07,0-3.48,2-5.47,5.45-5.47q28.1,0,56.2,0c3.41,0,5.42,2,5.43,5.36Q242.83,166.3,242.82,178.08Zm-4-36.27-.06-6.44h-3.2l-.2,6.1h-6.24l.53-19.59,6.63.31-.41,10h3.09l0-10.75,6.35.16.45,19.87Zm10.37-3.48a8.58,8.58,0,0,1-1.36-1.81,9.18,9.18,0,0,1-.88-2.14,8.93,8.93,0,0,1-.31-2.38,10,10,0,0,1,.29-2.38,10.33,10.33,0,0,1,.84-2.19,9.68,9.68,0,0,1,1.33-1.9A9.21,9.21,0,0,1,250.8,124a8.72,8.72,0,0,1,2.1-1,8.11,8.11,0,0,1,2.38-.35,10.58,10.58,0,0,1,3.69.62,7.89,7.89,0,0,1,4.67,4.61,10.06,10.06,0,0,1,.64,3.69,9.82,9.82,0,0,1-.29,2.44,9.18,9.18,0,0,1-.84,2.21,9,9,0,0,1-1.34,1.89,8.34,8.34,0,0,1-1.77,1.47,8.26,8.26,0,0,1-2.14.95,8.89,8.89,0,0,1-7-.88A8.66,8.66,0,0,1,249.14,138.33Zm69.52,39.47c0,3.54-2,5.56-5.51,5.56H257c-3.44,0-5.48-2-5.49-5.46q0-11.65,0-23.32c0-3.42,2.06-5.43,5.52-5.43h56c3.61,0,5.61,2,5.61,5.6Z" />
            <path class="schooltrips4" d="M254.13,134.86a2.26,2.26,0,0,0,1.15.29,2.66,2.66,0,0,0,1.18-.26,2.63,2.63,0,0,0,.88-.7,3,3,0,0,0,.56-1,3.61,3.61,0,0,0,.2-1.18,3.86,3.86,0,0,0-.18-1.17,3,3,0,0,0-.51-1,2.56,2.56,0,0,0-.82-.71,2.34,2.34,0,0,0-1.14-.27,2.72,2.72,0,0,0-1.17.24,2.85,2.85,0,0,0-.89.64,3,3,0,0,0-.56,1,3.4,3.4,0,0,0-.19,1.16,4.29,4.29,0,0,0,.16,1.17,3.56,3.56,0,0,0,.5,1.06A2.9,2.9,0,0,0,254.13,134.86Z" />
            <path class="schooltrips4" d="M271.5,134.09a2.78,2.78,0,0,0,.83.77,2.26,2.26,0,0,0,1.15.29,2.66,2.66,0,0,0,1.18-.26,2.63,2.63,0,0,0,.88-.7,3.2,3.2,0,0,0,.56-1,3.6,3.6,0,0,0,.19-1.18,3.85,3.85,0,0,0-.17-1.17,3.15,3.15,0,0,0-.51-1,2.59,2.59,0,0,0-.83-.71,2.33,2.33,0,0,0-1.13-.27,2.74,2.74,0,0,0-2.06.88,3,3,0,0,0-.56,1,3.41,3.41,0,0,0-.2,1.16A4.3,4.3,0,0,0,271,133,3.56,3.56,0,0,0,271.5,134.09Z" />
        </g>
    </g>
    <text x="-10" y="20" class="hiddenText" id="school0">  </text>
    <text x="-10" y="40" class="hiddenText" id="school1"></text>
        <text x="-10" y="60" class="hiddenText" id="school2"></text>
        <text x="-10" y="80" class="hiddenText" id="school3"></text>
   
</svg>