<svg xmlns="http://www.w3.org/2000/svg" viewBox="0 0 407.53 319.26">
    <defs>
        <style>.students1 {
            fill: #00fff8;
            opacity: 0.05;
        }

        .students3 {
            fill: none;
            stroke-miterlimit: 10;
            stroke-width: 3px;
        }

        .students4 {
            fill: #fff;
            fill-rule: evenodd;
        }

        </style>
    </defs>
        <path class="students1" d="M365.31,315.86H23.85C11.38,315.86,1.51,304,2.39,290L19,25C19.74,12.33,29.12,2.5,40.41,2.5H381.87c12.48,0,22.34,11.9,21.46,25.9l-16.56,265C386,306,376.61,315.86,365.31,315.86Z"/>
        <text class="peopleTitle" transform="translate(240.4 62.47)" id="st"></text>
        <path class="students3" d="M365.31,315.86H23.85C11.38,315.86,1.51,304,2.39,290L19,25C19.74,12.33,29.12,2.5,40.41,2.5H381.87c12.48,0,22.34,11.9,21.46,25.9l-16.56,265C386,306,376.61,315.86,365.31,315.86Z"/>
        <g id="STUDENTS">
            <path class="students4" d="M143,73.48,142,69.3l1.23-.52-3.45-9.33,0,0-1.35-3.65h0a3.27,3.27,0,0,0-1.18-1.46L111.61,65.7a2,2,0,0,0,.14,1.41l-.41.15a2.32,2.32,0,0,0,.12,1.87h0l5.18,12.77,9.54-3.06a41.36,41.36,0,0,0,.31,4.2c.07,6.32,1.11,20,1.54,25.45a.39.39,0,0,0-.06.11l-.51,2a65.64,65.64,0,0,0-2.18-6.9C123.58,99.25,121,94.07,116.9,90a10.06,10.06,0,0,0-8.18.1c-.81.34-.74-.11-2.82-.64l-.09,0a1.14,1.14,0,0,1-.25-.06c-4.81,3-6.26,9.46-6.56,12.24h0a33.68,33.68,0,0,1-2.87,8.25c-3,5.82-3.46,6.77-1.51,9.4a20.66,20.66,0,0,0,12.41,8l-.08,1.57-1.5.82c-.44.2-.89.39-1.36.58v-.08a1,1,0,0,0-.66-.24,17.16,17.16,0,0,0-2,.71c-.27.13-.32.36-.51.61,0,.15,0,.3,0,.43-.83-1.35-2.23-3.7-3-4.81l-.14.2c-1.18-2.58-2.83-6.23-4.21-9.52-.69-2.06-1.58-4.56-2.47-7.35,1.37-7.17,3.14-16.8,4.64-24.45L98.11,82l2-4.91-.56-.55-2,2.81L97.36,79l-.54-2.52-.4-4.88-.78-.54-.24,5.08L95,70.6l-2,1-.34,5.16-.31.5-.42-3.77-.67.55-.07,5,.51,4.4L92,86c-2.39,8.36-5.43,17.32-6.93,25.86,1,3.5,4.42,14.45,5.77,18.26.5,1.59,1,3.22,1.62,4.89l0,.09c1,3.52,2.12,7.58,3.7,11.76l-1,3.06c.36,2.53,1.23,3.78,1.69,5.69a92.15,92.15,0,0,1,.14,16.61c-.53,7.85-1,9.81-1.54,14.39l.08,0a66.23,66.23,0,0,0-2.31,9.12l-6,42.39v.06l4.44,6.57,20.9,36,0,0c.57,1.74-.17,4.27-1.29,6.68l-.11.06-4.3,3.86,1,1.7h0l.57.94,3.3-1.1,4-2.57,0,.19h0l-1.82,7.81,1.59,5.63,4.69-.79,1.07-5.28-2.2-7.51h.1l0-2.29,2.81-1.83-1-1.8h0l-1.77-2.77.21-22.94-6-17.65,1.45-7.13h0L122,206.09a27.07,27.07,0,0,0,6.49-2.34l0-7.76.25-.08c.82-.25,1-1.81.93-3.94-.13-2.95-.78-6.94-1.07-10-.39-1.64-1.23-2.52-2.49-2.69l-.46.23c-1-2.57-2.17-5.43-3.39-8.44-.53-1.34-1.07-2.68-1.61-4l.58-7.14a56.27,56.27,0,0,1,1.18-7.88s0,0,0-.07c2.21-7.34,4.27-11.66,6.9-19.61l0,0c1.45-6.17,3.48-15.89,3.86-22.51l0,0c-.44-9.52-1.62-19.17-2.93-28.83L132,77Zm-42.49,27.76h0l.18-.07ZM106,248.59,95.79,236.22l0-.5,9.82-35.58,2.22,0-2.57,38h0v.12l4.06,20.27Zm16.56-68.05c-.45.1-.91.18-1.38.25-.16-1.66-.33-3.32-.47-4.85C121.37,177.67,122,179.21,122.52,180.54Zm.71-54.33-4.16,4.56c-1.07-.45-2.1-.8-3.08-1.12v0l-2.76-.92,0-1.14c.26,0,.49-.1.65-.13a26,26,0,0,0,8.24-2.85,19.36,19.36,0,0,0,2.06-1.29l-.78,3,1,1Z"/>
            <path class="students4" d="M255.37,169.62l5.36.12-.08-1-5.17-.6v-.24l3-.77-.44-.87-4.62-.13-4.19-.68-6.82-9.33.54-.52-7.94-9.79-12.2-7.7c-.59-2.73-2.16-5.76-2.87-6.11a17.93,17.93,0,0,0-2.55-1,11.25,11.25,0,0,0-7.6-5.4,8.19,8.19,0,0,0-6.5,1.78l-.42-9.44.73-.18,1.73-4.16,3.5-13.24.42-1.23a6.27,6.27,0,0,0-3.3-3.87c-2.87-8.32-7.71-9.59-12.84-10.51,0,0-4.47.75-7,6.35a9.39,9.39,0,0,0-.32,2.1l-3.12,4.06.8,5.06-.8,0,0,.28s0,.12,0,.31a15,15,0,0,0-.06,2,6.14,6.14,0,0,0,.14,1.16,2.68,2.68,0,0,0,.31.73l-.71,1.53-.6,13a15.23,15.23,0,0,0,4.89,5l.12,0-.42,5.1-.41-.85L183,131.84l.1,1-.4.13-6.93-11.88-3-14.6-.52.16c-1.17-5.26-2.39-10.56-3.16-15.94l1.7-2.64.35-1.41,0-2.75,14.1-4.51-1-4.17,1.24-.53-3.46-9.33s0,0,0,0l-1.36-3.65h0a3.43,3.43,0,0,0-1.17-1.46L154,71.6a2,2,0,0,0,.13,1.4l-.41.15a2.35,2.35,0,0,0,.12,1.88L159,87.78l2.61-.83.22,1,1.71,3.33c.5,7.67.48,12.42.63,17.85l-.76.24.6,12.06,10.54,30c-.16,1.21-.3,2.44-.46,3.72-.41,8.82.16,15.85.22,25.82.05,6.14.5,12.54,2.12,15.76a14,14,0,0,0,1.74.13c0,1.24,0,2.51,0,3.8l-15.84,32.49,1.86,8,23.16,37.58,4.3-3.33-3.8,4.2.14,5.4a19.81,19.81,0,0,0-1.15,1.66.73.73,0,0,0,0,.09,1.51,1.51,0,0,0-.1.17c0,.06-.07.11-.09.16l-.1.17a.7.7,0,0,1-.09.17s-.05.11-.08.16a.73.73,0,0,0-.07.19,1,1,0,0,0-.08.14,1.46,1.46,0,0,1-.07.19.69.69,0,0,1-.05.13l0,.2s0,.07,0,.11a1.42,1.42,0,0,0,0,.2v.08a1.13,1.13,0,0,0,0,.26l.11.27,0,.07a2.12,2.12,0,0,1,.11.21l0,.05a2,2,0,0,0,.16.24l0,.06.15.18.05.06a1.39,1.39,0,0,0,.21.21l.21.21.06.05.18.15s0,0,0,0,.15.11.21.17l.05,0a1,1,0,0,1,.17.12l.06,0,.2.13h0l.17.11.06,0,0,0,0,0,.91.55c1.14-1.6,2.27-3.39,3.89-5.62,1.05-2.94,2.53-6.76,3.55-9.71-.49-.27-1-.53-1.46-.81l0,.08-2.86-1.39-.2.22-11.6-32.4-4.06-7.31,3.4-4.08c.75,3.84,1.62,7.66,2.48,11.24l7.75,2.79,42.28,1.72,0,.17,2.33,4.87a19.05,19.05,0,0,0-.36,2h0c0,.11,0,.23-.05.34v0l0,.33v0c0,.11,0,.22,0,.33v.39c0,.1,0,.21,0,.3s0,0,0,0a1.2,1.2,0,0,0,0,.28,0,0,0,0,0,0,0,1.68,1.68,0,0,0,.07.24v0a.88.88,0,0,0,.1.22,2.68,2.68,0,0,0,.3.28l.09.07a1.81,1.81,0,0,0,.29.19l.07,0a2.58,2.58,0,0,0,.37.19l.1,0c.1.05.21.08.31.12l.09,0,.38.11h.08l.31.07.1,0,.32.05h0l.29,0h.09l1,.13c.4-1.93.69-4,1.24-6.72-.24-3.11-.45-7.2-.73-10.31l-1.66-.14s0,.06,0,.09l-3.19-.1-1.61,5,.82-4.41-25-8.43-12.29-1.57,6-20.82c3.27-3.77,6.12-6.87,8.06-10.64a24.7,24.7,0,0,0,.36-7.54c3.39-.32,6.39-1.43,8-2.8a3.1,3.1,0,0,0,.62-.72,13.7,13.7,0,0,0,2.94-5.41A82,82,0,0,0,225,168.11c.38-3.59,1.14-10.31.94-14.73H226l10.8,8.05.24-.24,9.63,8.09-.08,2.76,2.14,3.23.35,1.9.69,0,.45-2.21-.78-1.86.54-.2,3.21,1.35,5.39,1.81.35-.78-4.65-2.82.23-.4,5.32,1.2.32-.86-5.05-2Zm-72-63.55a.53.53,0,0,0,0-.12,7.35,7.35,0,0,1-.15-1.61c0-.56.05-1.07.08-1.38v0H183v-.32l.3,0a.45.45,0,0,1,0,.08c0,.05,0,.11,0,.2h.35l.3,1.92Zm23.73,23.57-.78-1.35a6,6,0,0,1,3.2-.4,7.94,7.94,0,0,1,4.36,2.34A65.54,65.54,0,0,0,207.07,129.64Z"/>
        </g>
       <text class="hiddenText" id="st1"></text>
            <text class="hiddenText" x="-2" y="20"  id="st2"></text>
            <text class="hiddenText" x="-2" y="42"  id="st3"></text>
    
</svg>