<svg xmlns="http://www.w3.org/2000/svg" viewBox="0 0 407.53 319.26">
    <defs>
        <style>
            .teambuilding1 {
                fill: #00fff8;
                opacity: 0.05;
            }

            .teambuilding3 {
                fill: #fff;
            }

            .teambuilding4 {
                fill: none;
                stroke-miterlimit: 10;
                stroke-width: 3px;
            }
        </style>
    </defs>
        <path class="teambuilding1"
            d="M365.68,316.94H24.23c-12.48,0-22.34-11.89-21.46-25.89l16.56-265c.79-12.67,10.16-22.5,21.46-22.5H382.24c12.48,0,22.34,11.9,21.47,25.9l-16.56,265C386.35,307.12,377,316.94,365.68,316.94Z" />
        <text class="eventTitle" transform="translate(160.44 55.4)" id="team">
            </text>
        <g id="TEAM_BUILDING" data-name="TEAM BUILDING">
            <path class="teambuilding3"
                d="M264.94,91l-1.41.42,2.73-1.28a.26.26,0,0,0-.26-.27,1.05,1.05,0,0,0-.46.09l.64-.47s.1,0,0-.2-.46-.07-.46-.07l-2.6,1.1,2.32-1.81s.15-.29-.23-.31c-.14,0-.48.26-.48.26l-.63.41-1.52.74-1.19.69s-.73.3.16-.79.22-1.27.22-1.27l-.37.39s-1.3,1.65-1.62,2.12.1,1.8.23,2.25l-6.7,3.77-.61-.85-2.65.63.24.44-9.06,4.2-3.23-.71A22,22,0,0,1,239.31,97a.49.49,0,0,0,.65-.18l.57-1a.48.48,0,0,0-.07-.57c.85-1,2-2.49,1.55-3.09a4.13,4.13,0,0,0-.36-.45,1.66,1.66,0,0,0-1-1.54c-1.77-.44-1.7-1.93-2.87-2.24a1.3,1.3,0,0,0-1.27.27,1.52,1.52,0,0,0-.1,1.6l-3.32,5.72s-.85,1.47-.41,2a4.29,4.29,0,0,0,1.75,1c-.11.48-.17.81-.21,1h0v0l-2.7-.58-4.37-5.79-.34-2.38.6.07-.64-2.32h-.61a27.32,27.32,0,0,0-1.6-8.17c.49-.38,1.25-1,1.27-1.41,0-.57,0-2.67,0-2.67l-.05-.54s-.63-.27-.61,1.14-.36.72-.36.72l-.51-1.27-.74-1.52-.25-.72s-.1-.41-.21-.49c-.32-.23-.37.1-.37.1l.71,2.85-1.37-2.46s-.23-.29-.42-.23-.12.16-.12.16l.22.76a1.14,1.14,0,0,0-.3-.35.27.27,0,0,0-.38,0l1.36,2.68-.85-1.19s-.23-.28-.41-.23l-.25.06,2.62,5-.64,7.7h-.73l-.37,3.71.63.13.08,2.18.85.55,2.3,8c-2.29,3.06-4.43,8.39-4.54,17.65l.13,0,.22,15.16-1,13.74-.23,5.19.13,15.19L212,171l-.06-2s-1.2-18.42-1.39-24.73a114.66,114.66,0,0,0-1.83-14.14,11.06,11.06,0,0,0,2.15-1.46,35.77,35.77,0,0,1-2.15-5,27.15,27.15,0,0,1-1.17-5.38,31.13,31.13,0,0,1,.77-7.16l.09-.42a13.48,13.48,0,0,1,1.07-2.14c.39-.64,2.19-4.38,2.53-4.76s5.17-9.09,5.17-9.09l-1.55-.69,2.56-5.89a7.8,7.8,0,0,0,1-2.14,10.88,10.88,0,0,0-.18-2.57,8.73,8.73,0,0,0-.56-1.72,1.82,1.82,0,0,0-.05.86c.09.67.36,1.68.11,2-.43.66-.35.81-.43.37s.25-1.07-.3-1.89a14.27,14.27,0,0,1-.14,1.88c-.14.87.28,2.1-.67,3.91-.92,1.29-2,2.88-3,4.44l-.33-.15-.29.69-6.11,11.33a1.37,1.37,0,0,0,0,.17l-1-.34-.22.09-.09,0a36.86,36.86,0,0,0,.73-5.07,1.3,1.3,0,0,0-.05-.43,1.7,1.7,0,0,0,0-.22,4.64,4.64,0,0,0-9.2-1,18,18,0,0,0-1.17,4.06l-4.33-8-.29-.68-.33.14c-1-1.56-2.06-3.14-3-4.43-.95-1.82-.53-3-.67-3.92a14.07,14.07,0,0,1-.14-1.87c-.55.82-.22,1.44-.3,1.88s0,.29-.43-.36c-.25-.38,0-1.39.11-2.06a1.82,1.82,0,0,0,0-.86,9,9,0,0,0-.56,1.73,10.8,10.8,0,0,0-.18,2.56,7.8,7.8,0,0,0,1.05,2.14l2.56,5.9-1.55.68s4.83,8.71,5.17,9.09a27.8,27.8,0,0,1,1.6,2.81c-4.22,5.59-19.87,5.65-11.7,13.91,4.09,4.14,7.53,5.42,10.41,4.92a5.9,5.9,0,0,0-.78,1.62c-.22,1.48,1.32,2.87,1.32,2.87a5.88,5.88,0,0,0,1.48.63.91.91,0,0,0,.47-.07c-.76,5.6.52,16.13.69,17.65.22,1.83-.15,23.25-.15,23.25h.6c0,.17,0,.36,0,.57l-13.7,1.49-.59,84.5v.18l15.85,12.09,52.78-5.72,1.19-.13v-.83l.05-7.64.54-76.21-7.31-5.58h.13l-9.78-53.07h-.07a37.28,37.28,0,0,1,2.38-11.14l8.54-6,2.35-.25,2.79-2.52-.61-1.4.75,1.15.38.78,2.94-1.88-.54-.75a51.92,51.92,0,0,0,5.38-6.29l4.77-2.16-.17-.2C265.29,90.88,264.94,91,264.94,91Zm-65.36,81h.4l1.9-21.18.86-12.86,2.2,10.86,4.42,22.5-9.79,1.06ZM237,157.42l4.44,13.67-3.8-2.89-12.43,1.35L226,153.3l1.9-9.67,1.8-9.74,6,18.4Z" />
            <path class="teambuilding3"
                d="M183.54,124.15a.3.3,0,0,0-.2-.31.22.22,0,0,0,0-.14c-.12-.2-.55-.13-.55-.13l-3.2,1.09,2.92-2s.22-.33-.24-.38c-.17,0-.59.26-.59.26l-.79.44-1.88.76-1.48.73s-.9.3.25-.94.38-1.5.38-1.5l-.48.44s-1.69,1.86-2.12,2.4c-.29.36-.13,1.55,0,2.28l-.54.52-.29-.5-5.48,6-2.29,2.21v.08l-10.57.36-2-.56-.2-.29-2.18-.72-.35-.69-.08.06c0-.39,0-.79,0-1.19a1.72,1.72,0,0,0,.76-1.26c0-1.59,0-3.73,0-5.33a3.6,3.6,0,0,0-.14-.9c.4,1.08-.3-2.28-.3-2.28a3.74,3.74,0,0,0-2.75-1.69c-1,0-1.39.55-1.72,1.29-.05.11.38,0,.65-.18a12.91,12.91,0,0,0-1,.95,5.86,5.86,0,0,1-.56,1.12c-.87,1.28-1.33,1.44-1.33,1.44l.62,1.19h0a1.19,1.19,0,0,0-.25,1.27l.23.78a1.36,1.36,0,0,0,.64.84l.48,3.88,0-.06-.44.8-2.27.49,0,.09-3.33.72-6.42,13.27s-2.81,8.59,2.26,6.67l0,0,1.21-.46-.67,6.14,2.59.28.28,13.18-.86,14.08-.16,5.32.34,16.31c-.56-1.55-1.15-3.3-1.59-4.87a50.13,50.13,0,0,0-3.11-7s3.29-16.21,1.48-21.26l0-.07c.06,0,.09,0,.09-.07.12-1.44-6.12-7-12.41-10.26a5.06,5.06,0,0,0-2.28-4.9,5,5,0,0,0-3.9-.64,4.79,4.79,0,0,0-2-2.69,4.94,4.94,0,0,0-6.8,1.57,4.49,4.49,0,0,0-.24.42,3.79,3.79,0,0,0-.45-.34l-1.19-.76a3.75,3.75,0,0,0-5.17,1.14l-.51.79a3.76,3.76,0,0,0,1.14,5.18l2.68,1.72a3.76,3.76,0,0,0,5.18-1.14l0-.05a3.79,3.79,0,0,1,.75.61,8.39,8.39,0,0,1,.95,1.25,86.18,86.18,0,0,0-3.22,9.71l-2.63,4.09.63.21a34.9,34.9,0,0,0-2.06,3.1,25.77,25.77,0,0,1-1.75,2.76,10,10,0,0,0-1.24,1.83l0,.27a1.62,1.62,0,0,0-.26.4,8.18,8.18,0,0,0-.33.83c-.08.28-.25,1.62-.25,1.62a1.57,1.57,0,0,0,.44-.88l.06-.31a7.78,7.78,0,0,0,.2,1.26,1.15,1.15,0,0,0,.17-1,3.54,3.54,0,0,1-.07-.89c.09.47.29,1.37.29,1.37a1.59,1.59,0,0,0,.11-1,4.4,4.4,0,0,1-.08-.87l.37-.58s.35,0,.21.27c-.54.91-.27,1.15-.27,1.15s.16-.3.53-.86A21.62,21.62,0,0,1,104,189c.21-.29.55-.71.89-1.13.67-.61,2.44-2.25,4.07-4l1.75.59,2.29-5,1.49-5.12a2.44,2.44,0,0,0,1.17,1.06l.36,1.35a6.94,6.94,0,0,0,.3,1,9.67,9.67,0,0,0-.5,1.49l-.69,5,.78-.14c-.27,1.78-.48,3.59-.63,5.09a3.76,3.76,0,0,0-.16.54c-.57,2.23-1.83,2.93-2.37,3.74a17.24,17.24,0,0,1-1.23,1.56c1-.27,1.2-1,1.57-1.28s.21-.23.06.58c-.08.47-1,1.07-1.56,1.54a2,2,0,0,0-.57.7,9.53,9.53,0,0,0,1.65-1l.48-.39a6.88,6.88,0,0,1-.87.75,2.42,2.42,0,0,0-.7.86c.12-.06,1.09-.6,1.28-.75A11.63,11.63,0,0,0,114,194.4a7.69,7.69,0,0,0,.65-.72,8.59,8.59,0,0,0,.73-2.26l2.4-7.67,1.3-.22s.81-2.76,1.42-5.22l.5.44c1.71,1.53,2,3.37,2.56,4.53-2.6,4.81-5.7,10.69-5.71,11.34,0,1.17,3.82,17.73,3.82,17.73l.42.06.26,1.37-13.56,1.47,0,9.63-6.18,4,0-.13-.82.46-.34-.88-11.37-4.12a11.2,11.2,0,0,0,0-1.4,30,30,0,0,0,7.1-2.14c5.77-2.37,6.18-5.31,6.18-5.31l1.32-2.68-.6-.35.24-.43c2.14-4,.08-9.77-1.42-11.4-.21-.23-.43-.45-.64-.67l-.33-.89a6.5,6.5,0,0,0-.92-1.72,1.8,1.8,0,0,0-.48-.44l-.27-1.06-.24-1.47-.31-.29-.22,2.12-.23-.34L98.84,194l-.48-.21.09,1.37,0,.66-.27-.35-.53-1.64-.41.14.23,1.71.41.93-1.11-.67L96,194.75l-.43,0,.8,1.76.85,1.66-.48-.14c-1.17-.26-.85.25-.85.25a5.1,5.1,0,0,1,1.39,1.25c.31.57,3.18,1.25,3.18,1.25a2.86,2.86,0,0,1,1.18.62,7.49,7.49,0,0,1-2.92,7.81l-.54-.31-2.1,2.77.26.45a1.39,1.39,0,0,1-.86.84,28.48,28.48,0,0,0-4.87,2.06,5.29,5.29,0,0,0-.44-1l-3.46-5.82a1.53,1.53,0,0,0-.11-1.63,1.31,1.31,0,0,0-1.3-.26c-1.2.33-1.11,1.85-2.92,2.31a1.72,1.72,0,0,0-1,1.6,4.22,4.22,0,0,0-.35.45c-.42.62.72,2.14,1.61,3.15a.48.48,0,0,0-.07.59l.59,1a.5.5,0,0,0,.67.18c.25.5.62,1.35.92,2.13l-.38.42a5.27,5.27,0,0,0-.87.07c-5.71.93-9.66,9.62-9.66,9.62l-7.64,19.17,1.47.15a22.29,22.29,0,0,0-.62,2.16l-32.72,3.55.31,25.57L37.83,281l11.54,8.81c-.09.37-.16.77-.27,1.27-.15.66-.35,1.51-.73,2.69-.89,2.82-.57,3.73.67,4.73a1.79,1.79,0,0,0,.28.2l.08,0,.2.1.07,0a1.49,1.49,0,0,0,.53.08h0l.25,0a1.85,1.85,0,0,0,1.19-1.56A21.17,21.17,0,0,0,52,295c.06,0,.11,0,.13-.05s0-.14-.11-.23l.06-.61c.09,0,.16,0,.18-.06a.32.32,0,0,0-.14-.25c0-.18.06-.36.1-.53.14,0,.23,0,.25-.05s-.06-.17-.16-.27a3.47,3.47,0,0,1,1-1.55v0c.11-.16,0-.34-.18-.5l.34-.58.35,0,0,0,0,0,28.9-3.14a2.39,2.39,0,0,1-.13.21,5.78,5.78,0,0,0,.21.83c0,.18.24.11.31.32s-.07.49,0,.61.15.43.22.64a4.86,4.86,0,0,0,.49,1c.87,1.25,4.65,4,4.65,4a2.85,2.85,0,0,0,.52-.49h0a1,1,0,0,0,.21-.42c.1-.62-.49-1.63-1-2.83.06,0,.11,0,.13,0s-.06-.28-.23-.46l-.11-.11a3.68,3.68,0,0,1-.15-.47c.11.07.21.09.24,0s-.06-.27-.25-.43l-.11-.09a1.25,1.25,0,0,1,0-.19,1.85,1.85,0,0,1,0-.23c.08,0,.13,0,.16,0s0-.21-.2-.35a4.46,4.46,0,0,1,.11-1.3c.05-.22-.12-.49-.4-.72v0l17.06-1.85-.21-16.57-.11-9-15.85-12.1-6.8.74-1.27-.62c1.15-2.15,1.06-4.91,2.34-6.74a60.31,60.31,0,0,0,5.34-9l11.52,4.41,4-2.09,0-.16a39,39,0,0,0,5.28-3.38l.14-.11-.1,37.57v1.57l15.86,12.09,54-5.85,0-16.39.1-37.63-13.22-10.08-9.64-49,2.2.57-.31-20.49L169.74,140l3.13-4.35,3.5-5.6-.34-.57c.38-.54.7-1,1-1.43l5.41-2-.18-.25c-.12-.19-.55-.13-.55-.13L180,126l2-1.24Zm-31.46.6a4.77,4.77,0,0,0-.32-.69A1.68,1.68,0,0,1,152.08,124.75Zm-28.47,72c.21-.82,2.36-3.65,4.67-7,.15,4,.48,7.56.61,8.41.23,1.45,4.65,9.77,7,14.13l-11.22,1.22-.1-.79.58.08S123.21,198.22,123.61,196.74Zm32.59-.22,4.43,13.11-16.45,1.78.71-19,1.83-9.92,2-11.57,6.13,20.34Z" />
            <path class="teambuilding3"
                d="M254.82,259.18c2.46,14-52.67,15.74-114.63,23.56s-100.32,13.77-103,2.14c-3-13.1,38.72-12.69,100.68-20.51S252.83,247.86,254.82,259.18Z" />
        </g>
        <path class="teambuilding4"
            d="M365.68,316.94H24.23c-12.48,0-22.34-11.89-21.46-25.89l16.56-265c.79-12.67,10.16-22.5,21.46-22.5H382.24c12.48,0,22.34,11.9,21.47,25.9l-16.56,265C386.35,307.12,377,316.94,365.68,316.94Z" />
  
    <text x="-10" y="0" class="hiddenText" id="team0"></text>
     <text x="-10" y="20" class="hiddenText" id="team1"></text>
        <text x="-10" y="40" class="hiddenText" id="team2"></text>
        <text x="-10" y="60" class="hiddenText" id="team3"></text>
        <text x="-10" y="80" class="hiddenText" id="team4"></text>
          
 
    </g>
</svg>