<svg data-name="Layer 1" xmlns="http://www.w3.org/2000/svg" viewBox="0 0 1212.85 58.17">
	<defs>
		<style>
			.cls-1 {
			<!-- fill: #fff; -->
			<!-- stroke:#fe0f4b; -->
			stroke-miterlimit: 10;
			stroke-width: 1.5px;
			}
		</style>
	</defs>
	<g id="w">
		<path class="cls-1" d="M12.4,56.42,6,1.78H24.8l2.61,35.56h1.46L32.54,2.59H53.18l4.07,34.75h1.47L60.35,1.78h19l-6,54.64H45.67L43,22.82l-.81-.08L39.39,56.42Z" />
	</g>
	<g id="e">
		<path class="cls-1" d="M82.54,56.42V1.78h40.93V16.87h-22v4.64h17.12V36.44H101.46v4.89h22V56.42Z" />
	</g>
	<g id="l">
		<path class="cls-1" d="M164,56.42h-36.7V1.78h18.92V41H164Z" />
	</g>
	<g id="c">
		<path class="cls-1" d="M206.41,55.36a74.15,74.15,0,0,1-17.69,2.12q-9.06,0-13.95-2.57a14.87,14.87,0,0,1-7.05-8.6q-2.16-6-2.16-17.37,0-16.23,5-22.23t19.12-6a70.52,70.52,0,0,1,13.87,1.63l2.85.57-.49,14.6a103.19,103.19,0,0,0-12.35-.82q-5.67,0-7.3,2.16c-1.09,1.45-1.63,4.42-1.63,8.93s.26,7.64.77,9.38a5.3,5.3,0,0,0,2.49,3.47,13.24,13.24,0,0,0,5.55.85L206.17,41Z" />
	</g>
	<g id="o">
		<path class="cls-1" d="M260.16,29.1q0,14.92-6.2,21.65t-19.78,6.73q-13.58,0-19.82-6.77t-6.23-21.65q0-14.88,6.19-21.61T234.14.72Q247.76.72,254,7.45T260.16,29.1Zm-33,0q0,6.93,1.35,10c.89,2,2.77,3.06,5.62,3.06s4.72-1,5.59-3,1.3-5.37,1.3-10.07-.42-8-1.26-10-2.71-3-5.59-3-4.77,1-5.66,3.06S227.21,24.48,227.21,29.1Z" />
	</g>
	<g id="m">
		<path class="cls-1" d="M263.91,56.42V1.78H292l4.24,20.88,3.51-20.88h28.95V56.42H309.82V28.28h-.9l-4.73,27.57H288.37l-4.65-27.57h-.89V56.42Z" />
	</g>
	<g id="e2">
		<path class="cls-1" d="M333.63,56.42V1.78h40.94V16.87h-22v4.64h17.13V36.44H352.55v4.89h22V56.42Z" />
	</g>
	<g id="t">
		<path class="cls-1" d="M394.23,17.19V1.78H435V17.19H424.4V56.42H405.48V17.19Z" />
	</g>
	<g id="o2">
		<path class="cls-1" d="M488.18,29.1q0,14.92-6.2,21.65T462.2,57.48q-13.57,0-19.82-6.77t-6.23-21.65q0-14.88,6.19-21.61T462.16.72Q475.78.72,482,7.45T488.18,29.1Zm-32.95,0q0,6.93,1.34,10t5.63,3.06q4.29,0,5.59-3t1.3-10.07c0-4.7-.42-8-1.26-10s-2.71-3-5.59-3-4.77,1-5.67,3.06S455.23,24.48,455.23,29.1Z" />
	</g>
	<g id="c2">
		<path class="cls-1" d="M549.34,55.36a74.17,74.17,0,0,1-17.7,2.12q-9,0-13.94-2.57a14.88,14.88,0,0,1-7.06-8.6q-2.16-6-2.16-17.37,0-16.23,5-22.23t19.12-6a70.52,70.52,0,0,1,13.87,1.63l2.85.57-.49,14.6a103.45,103.45,0,0,0-12.35-.82c-3.78,0-6.22.72-7.3,2.16s-1.63,4.42-1.63,8.93.25,7.64.77,9.38a5.3,5.3,0,0,0,2.49,3.47,13.22,13.22,0,0,0,5.54.85L549.1,41Z" />
	</g>
	<g id="u">
		<path class="cls-1" d="M571.52,1.78v35.8a4.1,4.1,0,0,0,1.18,3.34,6.21,6.21,0,0,0,4,1,6,6,0,0,0,3.91-1,4.2,4.2,0,0,0,1.15-3.34V1.78h18.92V36.52q0,11.58-5.79,16.27t-18.23,4.69q-12.43,0-18.23-4.57T552.6,36.85V1.78Z" />
	</g>
	<g id="b">
		<path class="cls-1" d="M605.2,1.78h24.71q20,0,20,13.54a22.16,22.16,0,0,1-1.1,7.91,12.23,12.23,0,0,1-4.52,5.22,11.42,11.42,0,0,1,5.5,4.2c1,1.66,1.51,4.41,1.51,8.27q0,15.49-21,15.5h-25Zm23.08,12.48h-4.16V23h4.24a4.53,4.53,0,0,0,3.43-1.06,4.87,4.87,0,0,0,1-3.38,4.39,4.39,0,0,0-1.06-3.31A5,5,0,0,0,628.28,14.26Zm.25,20.55h-4.41v9h4.41c1.9,0,3.18-.31,3.83-.94s1-1.79,1-3.51-.36-2.89-1.06-3.54S630.32,34.81,628.53,34.81Z" />
	</g>
	<g id="e3">
		<path class="cls-1" d="M654.7,56.42V1.78h40.94V16.87h-22v4.64h17.13V36.44H673.62v4.89h22V56.42Z" />
	</g>
	<g id="c3">
		<path class="cls-1" d="M756.89,55.36a74.23,74.23,0,0,1-17.7,2.12q-9,0-13.94-2.57a14.84,14.84,0,0,1-7.06-8.6q-2.16-6-2.16-17.37,0-16.23,5-22.23t19.12-6A70.51,70.51,0,0,1,754,2.35l2.86.57-.49,14.6A103.48,103.48,0,0,0,744,16.7q-5.67,0-7.3,2.16c-1.08,1.45-1.63,4.42-1.63,8.93s.26,7.64.78,9.38a5.24,5.24,0,0,0,2.49,3.47,13.22,13.22,0,0,0,5.54.85L756.64,41Z" />
	</g>
	<g id="h">
		<path class="cls-1" d="M790.08,56.42V37.34H779.4V56.42H760.48V1.78H779.4V21.92h10.68V1.78H809V56.42Z" />
	</g>
	<g id="a">
		<path class="cls-1" d="M811,56.42,823.11,1.78h28.62l12.32,54.64H845l-1.55-6.28H830.94l-1.31,6.28Zm25.44-39.8-3.1,19.08h8.08l-2.94-19.08Z" />
	</g>
	<g id="l2">
		<path class="cls-1" d="M902.7,56.42H866V1.78h18.92V41H902.7Z" />
	</g>
	<g id="l3">
		<path class="cls-1" d="M942.58,56.42h-36.7V1.78H924.8V41h17.78Z" />
	</g>
	<g id="e4">
		<path class="cls-1" d="M945.76,56.42V1.78H986.7V16.87h-22v4.64h17.13V36.44H964.68v4.89h22V56.42Z" />
	</g>
	<g id="n">
		<path class="cls-1" d="M990.53,56.42V1.78h18.6l12.56,20.71h1.14V1.78h18.92V56.42h-18.68l-12.39-22.27h-1.23V56.42Z" />
	</g>
	<g id="g">
		<path class="cls-1" d="M1092.47,24.29v30.5q-14.76,2.37-21.85,2.36a40.36,40.36,0,0,1-12.11-1.59,15.58,15.58,0,0,1-7.87-5.26,21.37,21.37,0,0,1-4-8.64,60.35,60.35,0,0,1-1.1-12.64q0-15.73,5.87-22T1071.27.72a72.33,72.33,0,0,1,9.38.69q5.22.69,8.32,1.35l3.1.73V17.76q-11.74-1.05-16.68-1.06a28.28,28.28,0,0,0-6.44.45,8.67,8.67,0,0,0-2.41,1.06,3.85,3.85,0,0,0-1.31,2.41,46.61,46.61,0,0,0-.57,8.89q0,6.36,1.47,9.25c1,1.93,3,2.9,6,2.9l2.77-.08V37.5h-2.45l-.08-13.21Z" />
	</g>
	<g id="e5">
		<path class="cls-1" d="M1097.12,56.42V1.78h40.94V16.87h-22v4.64h17.13V36.44H1116v4.89h22V56.42Z" />
	</g>
	<g id="s">
		<path class="cls-1" d="M1183.48,17.52c-7.66-.82-13.24-1.22-16.71-1.22a33.36,33.36,0,0,0-6.08.28,1.15,1.15,0,0,0-.86,1.18,1.53,1.53,0,0,0,1,1.39,40.53,40.53,0,0,0,6.16,1.63,87.45,87.45,0,0,1,8.48,2.24,20.78,20.78,0,0,1,6,3.1,9.38,9.38,0,0,1,3.51,4.9,28.38,28.38,0,0,1,.86,7.78q0,10.13-5.38,14.44t-16.23,4.32a86.55,86.55,0,0,1-11-.73q-5.76-.73-8.85-1.47l-3.18-.74.81-14.43A148.93,148.93,0,0,0,1162.44,42q4.24,0,4.24-1.87a1.25,1.25,0,0,0-1-1.18,36.26,36.26,0,0,0-5.3-1q-11.43-1.8-15.54-5.59t-4.12-12.44q0-11,5.3-15.08T1162.36.72a126.48,126.48,0,0,1,18.19,1.55l3.42.57Z" />
	</g>
	<g id="excl_mark">
		<path class="cls-1" d="M1189.68,36.52l-1.14-34.74h19.74l-1.15,34.74Zm-.57,19.9V40.27h18.59V56.42Z" />
	</g>
</svg>
