<svg  data-name="Layer 1" xmlns="http://www.w3.org/2000/svg" xmlns:xlink="http://www.w3.org/1999/xlink" viewBox="0 0 100 100"><defs><style>.cls-1{fill:none;}.cls-2{clip-path:url(#clip-path);}.cls-3{clip-path:url(#clip-path-2);}.cls-4{fill:#fff;}.cls-5{fill:#bd1f38;}.cls-6{fill:#2c3077;}</style><clipPath id="clip-path"><circle class="cls-1" cx="50" cy="50" r="49.97"/></clipPath><clipPath id="clip-path-2"><rect class="cls-1" x="-35.57" y="0.08" width="171.15" height="99.83"/></clipPath></defs><g class="cls-2"><g id="UNITED_KINGDOM" data-name="UNITED KINGDOM"><g class="cls-3"><rect class="cls-4" x="-35.57" y="0.08" width="171.15" height="99.83"/><polygon class="cls-5" points="79.02 36.18 135.57 4.52 135.57 0.09 131.67 0.09 67.19 36.18 79.02 36.18"/><polygon class="cls-5" points="76.35 65.82 135.57 98.96 135.57 92.34 88.19 65.82 76.35 65.82"/><polygon class="cls-5" points="-35.57 7.68 15.09 36.18 26.92 36.18 -35.57 1.06 -35.57 7.68"/><polygon class="cls-5" points="24.24 65.82 -35.57 99.34 -35.57 99.92 -24.77 99.92 36.08 65.82 24.24 65.82"/><polygon class="cls-6" points="123.86 0.09 63.94 0.09 63.94 33.64 123.86 0.09"/><polygon class="cls-6" points="37.48 0.09 -22.2 0.09 37.48 33.64 37.48 0.09"/><polygon class="cls-6" points="135.57 36.18 135.57 13.28 94.92 36.18 135.57 36.18"/><polygon class="cls-6" points="135.57 88.48 135.57 65.82 94.92 65.82 135.57 88.48"/><polygon class="cls-6" points="-18.82 99.92 37.48 99.92 37.48 68.37 -18.82 99.92"/><polygon class="cls-6" points="63.94 99.92 120.42 99.92 63.94 68.37 63.94 99.92"/><polygon class="cls-6" points="-35.57 65.82 -35.57 89.5 6.49 65.82 -35.57 65.82"/><polygon class="cls-6" points="-35.57 36.18 6.49 36.18 -35.57 12.46 -35.57 36.18"/><polygon class="cls-5" points="42.77 0.09 42.77 42.11 -35.57 42.11 -35.57 59.91 42.77 59.91 42.77 99.92 58.65 99.92 58.65 59.91 135.57 59.91 135.57 42.11 58.65 42.11 58.65 0.09 42.77 0.09"/></g></g></g></svg>