<svg xmlns="http://www.w3.org/2000/svg" viewBox="0 0 17.15 34.55">
	<defs>
		<style>.cls-1{fill:#2efddb;}</style>
	</defs>
	<g id="Layer_2" data-name="Layer 2">
		<g id="Layer_1-2" data-name="Layer 1">
			<path class="cls-1" d="M12.07,5.08A17,17,0,0,0,.07,0h0L0,34.55a17,17,0,0,0,12-5.08,17.19,17.19,0,0,0,5.08-12.16v-.07h0A17.15,17.15,0,0,0,12.07,5.08ZM6.23,2.21h0a24.52,24.52,0,0,1,6.65,5.51l.48.63H8.1c-.4,0-.63-.5-.63-.52-.14-.3-.26-.61-.38-.92-.21-.52-.43-1.06-.69-1.56A17,17,0,0,0,5,3.18c-.43-.62-1.66-1.95-1.66-1.95A16.74,16.74,0,0,1,6.23,2.21ZM.45,16.72V9.56H6.12a.82.82,0,0,1,.89.73,27.57,27.57,0,0,1,.78,5.42v1ZM7.8,17.83v1.11A27.67,27.67,0,0,1,7,24.37a.82.82,0,0,1-.89.73H.45V17.83ZM.46,1.18c2.27,0,4.9,4.38,5.77,6.66l.13.5H.46S.36,1.18.46,1.18Zm0,32.19c-.08,0,0-7.17,0-7.17h5.9l-.13.5C5.36,29,2.73,33.37.46,33.37Zm12.42-6.55a24.74,24.74,0,0,1-6.65,5.52,18.37,18.37,0,0,1-2.84,1S4.59,32,5,31.4a17.7,17.7,0,0,0,1.34-2.2,15.58,15.58,0,0,0,.69-1.57c.12-.3.24-.61.38-.91,0,0,.23-.52.63-.52h5.3ZM15.94,19c-.07.51-.14,1-.23,1.5a15.82,15.82,0,0,1-1.39,4,1,1,0,0,1-.94.59H8.15l.93-7.2h7ZM9.08,16.72,8.15,9.56h5.21a1,1,0,0,1,.94.6,15.82,15.82,0,0,1,1.39,4c.09.49.16,1,.23,1.5l.16,1.17Z"/>
		</g>
	</g>
</svg>