<svg xmlns="http://www.w3.org/2000/svg" viewBox="0 0 17.14 34.55">
	<defs>
		<style>.cls-1{fill:none;}.cls-2{fill:#2efddb;}</style>
	</defs>
	<g id="Layer_2" data-name="Layer 2">
		<g id="Layer_1-2" data-name="Layer 1">
			<path class="cls-1" d="M10.78,26.18l.13.5c.92,2.26,3.5,6.67,5.78,6.67v0c.07,0,0-7.19,0-7.19Z"/>
			<path class="cls-1" d="M10.91,7.85l-.13.5h5.91s.07-7.16,0-7.16C14.44,1.18,11.83,5.56,10.91,7.85Z"/>
			<path class="cls-1" d="M9,9.46H3.82a1,1,0,0,0-1,.6,15.82,15.82,0,0,0-1.39,4c-.09.5-.16,1-.22,1.5l-.14,1.1h7Z"/>
			<path class="cls-1" d="M10.74,29.19a15.58,15.58,0,0,1-.69-1.57c-.12-.3-.24-.61-.37-.91,0,0-.24-.52-.64-.52H3.78l.49.64a24.67,24.67,0,0,0,6.64,5.52h0a19,19,0,0,0,2.84,1s-1.2-1.34-1.63-1.94A23.54,23.54,0,0,1,10.74,29.19Z"/>
			<path class="cls-1" d="M9.42,18.87a29.25,29.25,0,0,0,.78,5.43.84.84,0,0,0,.89.73h5.56V17.84l-7.23-.07v1.1Z"/>
			<path class="cls-1" d="M8.54,25H9L8,17.83H1L1.21,19c.06.5.13,1,.22,1.5a16.22,16.22,0,0,0,1.39,4h0a1,1,0,0,0,1,.54H8.54Z"/>
			<path class="cls-1" d="M16.65,9.47H11a.83.83,0,0,0-.89.73,29.15,29.15,0,0,0-.78,5.42v1.1l7.34-.06Z"/>
			<path class="cls-1" d="M9.68,7.83c.13-.3.25-.61.37-.92a13.87,13.87,0,0,1,.69-1.56,23.54,23.54,0,0,1,1.38-2.18c.43-.61,1.59-2,1.59-2a17.11,17.11,0,0,0-2.84,1A24.63,24.63,0,0,0,4.23,7.72l-.45.63H9C9.44,8.35,9.68,7.83,9.68,7.83Z"/>
			<path class="cls-2" d="M5.15,5.08A17.13,17.13,0,0,0,0,17.24v.07A17.14,17.14,0,0,0,5.07,29.47a16.89,16.89,0,0,0,12,5.08h0L17.14,0A16.88,16.88,0,0,0,5.15,5.08ZM4.23,7.72a24.63,24.63,0,0,1,6.64-5.51,17.11,17.11,0,0,1,2.84-1s-1.16,1.35-1.59,2a23.54,23.54,0,0,0-1.38,2.18,13.87,13.87,0,0,0-.69,1.56c-.12.31-.24.62-.37.92,0,0-.24.52-.64.52H3.78Zm5.08,9v-1.1a29.15,29.15,0,0,1,.78-5.42A.83.83,0,0,1,11,9.47h5.67v7.19Zm7.34,1.12V25H11.09a.84.84,0,0,1-.89-.73,29.25,29.25,0,0,1-.78-5.43v-1.1ZM1.21,15.56c.06-.51.13-1,.22-1.5a15.82,15.82,0,0,1,1.39-4,1,1,0,0,1,1-.6H9l-.93,7.2h-7Zm1.61,8.93h0a16.22,16.22,0,0,1-1.39-4c-.09-.49-.16-1-.22-1.5L1,17.83H8L9,25H3.77A1,1,0,0,1,2.82,24.49Zm8.09,7.85h0a24.67,24.67,0,0,1-6.64-5.52l-.49-.64H9c.4,0,.63.49.64.52.13.3.25.61.37.91a15.58,15.58,0,0,0,.69,1.57,23.54,23.54,0,0,0,1.38,2.18c.43.6,1.63,1.94,1.63,1.94A19,19,0,0,1,10.91,32.34Zm5.78,1v0c-2.28,0-4.86-4.41-5.78-6.67l-.13-.5h5.91S16.76,33.37,16.69,33.37Zm0-25H10.78l.13-.5c.92-2.29,3.53-6.67,5.78-6.67C16.76,1.18,16.69,8.34,16.69,8.34Z"/>
		</g>
	</g>
</svg>