<svg xmlns="http://www.w3.org/2000/svg" viewBox="0 0 322.78 214.33"><g id="Layer_2" data-name="Layer 2"><path d="M146.75,94.64c-.41,0-.81,0-1.21,0-.75,0-1.48-.09-2.17-.18-8-1-11.27-5.44-11.3-5.49s-1.37-1.7-3.24-4.26l-1.11-1.52,1.4,1.24c.15.14,3.79,3.27,12,4.48,1.32.19,2.69.33,4.06.4h.29l.29,0c.43,0,.89,0,1.37,0,1.65,0,7.18-1.08,22.9-10.32,5.23-3.07,10.12-6.21,13.35-8.33-1.27-3.29-2.56-8.79-1.66-16.55A144.63,144.63,0,0,1,184.47,38l-26.68-8.67-.13,0c-2.78-1.08-11.21-3.87-16.82-3.88a10.38,10.38,0,0,0-3.4.79,41.22,41.22,0,0,0-7.1,3.65c-2.33,1.45-4.38,2.94-5.7,3.93l-5.82,5.41.11-.61,1.07-5.7V32.8l0,0c.11-.1,11.32-10.52,19-12a10.31,10.31,0,0,1,2-.21h0c7.68,0,18.43,4.1,18.54,4.14l31.08,10-.06.19s-.08.26-.21.75-.41,1.52-.72,2.84h0A138.89,138.89,0,0,0,187,54.71c-.84,7.46.54,12.37,1.84,15.17a13.7,13.7,0,0,0,.94,1.72,4.23,4.23,0,0,0,.47.65l.15.17-.19.13c-1.31.9-32.09,21.93-43,22.08Zm-16.82-9.15c1.46,2,2.45,3.19,2.46,3.21s3.21,4.35,11,5.33q1,.14,2.13.18c.53,0,1.07,0,1.61,0,10.35-.14,40-20.13,42.58-21.89-.09-.11-.21-.29-.36-.52a15.12,15.12,0,0,1-1-1.76c-1.32-2.86-2.72-7.85-1.87-15.39a137.2,137.2,0,0,1,2.79-16.29h0c.31-1.33.56-2.29.72-2.86.07-.25.12-.44.16-.56L159.5,25.1c-.11,0-10.8-4.11-18.4-4.11h0a10.38,10.38,0,0,0-1.93.2c-7.3,1.37-17.93,11.07-18.74,11.81-.07.4-.46,2.5-.93,5l4.93-4.58c1.34-1,3.41-2.5,5.75-4a41,41,0,0,1,7.17-3.69,10.59,10.59,0,0,1,3.54-.81c5.68,0,14.17,2.82,17,3.9L158,29,185,37.73l0,.18a145.58,145.58,0,0,0-2.81,16.26c-.9,7.79.42,13.28,1.7,16.51l.06.15-.14.09c-3.23,2.12-8.19,5.31-13.5,8.43-15.8,9.28-21.42,10.35-23.11,10.38-.48,0-.94,0-1.36,0h-.32l-.29,0c-1.38-.07-2.76-.2-4.1-.4A28.16,28.16,0,0,1,129.93,85.49Z" fill="#2efddb"/><path d="M181.9,54.15a145.75,145.75,0,0,1,2.81-16.29L158,29.18l-.12,0-.12-.05c-2.81-1.09-11.27-3.89-16.89-3.89a10.47,10.47,0,0,0-3.47.8,40.13,40.13,0,0,0-7.13,3.67c-2.38,1.48-4.45,3-5.72,3.94l-5.39,5c-.55,3-.89,4.63-1.41,8.68l-.15,1.13a77.81,77.81,0,0,0-.7,11.16,26.91,26.91,0,0,0,.23,2.89c0,.28.09.54.14.8a36.85,36.85,0,0,0,4.36,10.11c.24.43.5.85.75,1.27,2.21,3.69,4.7,7.26,6.64,9.9h0c.11.1,3.8,3.3,12.08,4.52,1.25.18,2.61.32,4.08.4l.3,0h.3c.45,0,.9,0,1.36,0,1.66,0,7.24-1.09,23-10.36,5.37-3.15,10.32-6.34,13.49-8.42C182.22,67.24,181,61.78,181.9,54.15Z" fill="#2efddb"/><path d="M146.69,89.73c-.33,0-.65,0-.94,0h-.32l-.29,0c-1.38-.07-2.76-.2-4.1-.4-8.31-1.22-12-4.44-12.18-4.57l0,0c-2.59-3.54-4.82-6.87-6.64-9.91-.26-.43-.51-.85-.75-1.28A36.39,36.39,0,0,1,117,63.31c-.05-.26-.1-.53-.14-.81a25.88,25.88,0,0,1-.23-2.91,77.14,77.14,0,0,1,.7-11.2l.15-1.13c.48-3.75.81-5.46,1.29-8l.14-.71,0,0,5.38-5c1.34-1,3.41-2.5,5.75-4a41,41,0,0,1,7.17-3.69,10.59,10.59,0,0,1,3.54-.81c5.68,0,14.17,2.82,17,3.9L158,29,185,37.73l0,.18a145.58,145.58,0,0,0-2.81,16.26h0c-.9,7.79.42,13.28,1.7,16.51l.06.15-.14.09c-3.23,2.12-8.19,5.31-13.5,8.43-15.8,9.28-21.42,10.35-23.11,10.38Zm-17.55-5.31c.3.26,4,3.28,12,4.46,1.32.19,2.69.33,4.06.4h.29l.29,0c.43,0,.89,0,1.37,0,1.65,0,7.18-1.08,22.9-10.32,5.23-3.07,10.12-6.21,13.35-8.33-1.27-3.29-2.56-8.79-1.66-16.55h0A144.63,144.63,0,0,1,184.47,38l-26.68-8.67-.13,0c-2.78-1.08-11.21-3.87-16.82-3.88a10.38,10.38,0,0,0-3.4.79,41.22,41.22,0,0,0-7.1,3.65c-2.33,1.45-4.38,2.94-5.7,3.93l-5.32,4.94-.11.58c-.48,2.58-.81,4.28-1.29,8,0,.38-.1.75-.14,1.13a76.6,76.6,0,0,0-.71,11.14,24.74,24.74,0,0,0,.23,2.86c0,.27.09.54.14.79a36,36,0,0,0,4.34,10.05l.74,1.27C124.33,77.57,126.56,80.89,129.14,84.42Z" fill="#2efddb"/><path d="M189.48,72l-.09-.14a16.17,16.17,0,0,1-1-1.77l-.09-.2.2-.08a34.82,34.82,0,0,0,10.33-6.42c1.86-1.71,3.4-5.47,4.24-10.31a42,42,0,0,0,.22-13.28c-.51-3-1.42-5.05-2.49-5.56-3.11-1.45-8.85,2.57-11.17,4.37l-.45.35.13-.56c.31-1.32.56-2.28.72-2.85l0-.07.06,0c.32-.23.66-.45,1-.67,4.52-2.91,8.12-3.77,10.72-2.56,1.86.87,3.15,3.3,3.81,7.24,1.29,7.56-.06,21-5.15,25.66a37,37,0,0,1-10.88,6.82Zm-.6-1.89a14.74,14.74,0,0,0,.76,1.38,36.42,36.42,0,0,0,10.61-6.68c5-4.59,6.29-17.83,5-25.29-.65-3.8-1.85-6.14-3.59-7-2.46-1.14-5.94-.29-10.33,2.54-.32.2-.63.41-.93.62-.13.49-.33,1.23-.57,2.21,3-2.28,8.1-5.48,11.14-4.06,1.22.56,2.18,2.64,2.72,5.85a42.24,42.24,0,0,1-.22,13.42c-.85,4.93-2.45,8.77-4.37,10.54A35.53,35.53,0,0,1,188.88,70.08Z" fill="#2efddb"/><path d="M121.73,34.12a.41.41,0,0,1-.41-.41.43.43,0,0,1,.12-.31l.67-.65a.43.43,0,0,1,.6,0,.36.36,0,0,1,.11.29.44.44,0,0,1-.13.31L122,34a.49.49,0,0,1-.28.13h0Zm.68-1c-.42.35-.65.58-.68.61v0h0S122,33.45,122.41,33.07Z" fill="#2efddb"/><path d="M185,35.63a.35.35,0,0,1-.14,0L183,35a.44.44,0,0,1-.26-.22.42.42,0,0,1,0-.33.45.45,0,0,1,.56-.27l1.83.62a.42.42,0,0,1,.26.23.42.42,0,0,1,0,.33A.45.45,0,0,1,185,35.63Zm-1.82-1.09s0,0,0,0c.69.26,1.31.46,1.85.65h0l0,0c-.56-.22-1.17-.43-1.85-.65Zm-1.83-.15a.34.34,0,0,1-.15,0h0l-1.82-.61a.45.45,0,0,1-.25-.22.42.42,0,0,1,0-.33.47.47,0,0,1,.56-.27l1.82.61a.42.42,0,0,1,.27.56A.43.43,0,0,1,181.31,34.39Zm0-.41h0a.05.05,0,0,0,0,0c-.6-.22-1.21-.42-1.84-.63a0,0,0,0,0-.06,0C180.11,33.59,180.71,33.79,181.29,34Zm-3.62-.8a.23.23,0,0,1-.14,0h0l-1.81-.59a.42.42,0,0,1-.27-.56.43.43,0,0,1,.55-.26l1.82.59a.43.43,0,0,1,.25.23.42.42,0,0,1,0,.33A.46.46,0,0,1,177.67,33.18Zm-1.81-1,0,0c.63.23,1.24.43,1.82.63h0a.05.05,0,0,0,0,0c-.61-.23-1.21-.42-1.83-.63Zm-52.12.11a.39.39,0,0,1-.3-.14h0a.41.41,0,0,1-.11-.3.44.44,0,0,1,.15-.3c.46-.41.94-.82,1.41-1.21a.44.44,0,0,1,.6,0,.43.43,0,0,1-.06.6c-.46.38-.93.78-1.39,1.19a.4.4,0,0,1-.27.11Zm1.43-1.62c-.49.37-1,.78-1.42,1.18v0h0C124.24,31.4,124.71,31,125.17,30.62ZM174.05,32l-.14,0h0l-1.8-.58a.44.44,0,0,1-.26-.22.42.42,0,0,1,0-.33.45.45,0,0,1,.56-.27l1.8.58a.44.44,0,0,1,.26.22.42.42,0,0,1,0,.33A.44.44,0,0,1,174.05,32Zm-1.8-1s0,0,0,0c.63.22,1.23.41,1.82.6h0a0,0,0,0,0,0,0c-.6-.22-1.21-.41-1.82-.61Zm-1.81-.12a.21.21,0,0,1-.13,0h0l-1.8-.57a.45.45,0,0,1-.26-.21.42.42,0,0,1,0-.33.44.44,0,0,1,.55-.27l1.8.56a.45.45,0,0,1,.25.22.42.42,0,0,1,0,.33A.43.43,0,0,1,170.44,30.84Zm0-.4h0l0,0c-.61-.22-1.21-.41-1.81-.6,0,0,0,0,0,0C169.24,30.06,169.84,30.25,170.43,30.44Zm-43.84-.56a.42.42,0,0,1-.33-.16h0a.43.43,0,0,1,.08-.6c.5-.38,1-.76,1.49-1.11a.41.41,0,0,1,.32-.08.37.37,0,0,1,.27.16.42.42,0,0,1-.1.59l-1.47,1.1a.43.43,0,0,1-.24.1Zm1.49-1.52c-.5.33-1,.7-1.49,1.08l-.17.15.16-.12h0C127.09,29.09,127.59,28.71,128.08,28.36Zm38.77,1.35a.19.19,0,0,1-.13,0h0l-1.79-.55a.45.45,0,0,1-.26-.21.42.42,0,0,1,0-.33.46.46,0,0,1,.55-.28l1.79.56a.4.4,0,0,1,.26.21.42.42,0,0,1,0,.33A.43.43,0,0,1,166.85,29.71Zm-1.78-1,0,0c.62.21,1.21.39,1.81.58h0a.05.05,0,0,0,0,0c-.61-.21-1.21-.4-1.81-.58Zm-1.8-.1h-.13l-1.78-.54a.41.41,0,0,1-.28-.54.44.44,0,0,1,.54-.28l1.79.54a.4.4,0,0,1,.25.21.42.42,0,0,1,0,.33A.44.44,0,0,1,163.27,28.61Zm-1.77-1a.05.05,0,0,0,0,0c.61.2,1.2.38,1.8.56h0l0,0c-.6-.21-1.2-.38-1.79-.56Zm-31.92.08a.42.42,0,0,1-.35-.18h0a.43.43,0,0,1,.13-.59c.52-.35,1-.69,1.57-1a.43.43,0,0,1,.33-.05.37.37,0,0,1,.25.19.42.42,0,0,1-.15.58c-.51.31-1,.64-1.54,1a.44.44,0,0,1-.22.07Zm1.57-1.4c-.52.29-1.05.62-1.57,1l-.18.14.17-.11h0C130.11,27,130.64,26.62,131.15,26.31Zm28.55,1.24h0a.25.25,0,0,1-.12,0h0L157.8,27a.45.45,0,0,1-.26-.21.42.42,0,0,1,0-.33.44.44,0,0,1,.54-.28l1.78.52a.41.41,0,0,1,.26.21.42.42,0,0,1,0,.33A.45.45,0,0,1,159.7,27.55Zm0-.4h0s0,0,0,0L158,26.59a0,0,0,0,0,0,0l1.79.54Zm-3.55-.62H156c-.59-.17-1.19-.34-1.77-.49a.46.46,0,0,1-.26-.21.38.38,0,0,1,0-.33.44.44,0,0,1,.53-.29l1.79.49a.44.44,0,0,1,.25.21.38.38,0,0,1,0,.33A.44.44,0,0,1,156.14,26.53Zm0-.4a0,0,0,0,0,.05,0l-1.79-.51s0,0,0,0l1.78.51Zm-23.4-.32a.43.43,0,0,1-.37-.22h0a.44.44,0,0,1,.19-.58c.56-.3,1.13-.58,1.67-.83a.41.41,0,0,1,.57.2.44.44,0,0,1-.22.56c-.53.24-1.08.52-1.63.81a.64.64,0,0,1-.18.06Zm1.67-1.24a16.72,16.72,0,0,0-1.66.8l0,0h0C133.3,25.1,133.86,24.82,134.4,24.57Zm18.19,1-.11,0-1.78-.45a.43.43,0,0,1-.26-.2.42.42,0,0,1,0-.33.45.45,0,0,1,.53-.3l1.78.46a.43.43,0,0,1,.27.2.47.47,0,0,1,0,.33A.45.45,0,0,1,152.59,25.57Zm-1.76-.91s0,0,0,0l1.79.47h0l0,0c-.61-.18-1.21-.33-1.79-.48Zm-1.8,0h-.1l-1.77-.4a.41.41,0,0,1-.27-.19.42.42,0,0,1,0-.33.44.44,0,0,1,.52-.31l1.79.41a.36.36,0,0,1,.26.19.39.39,0,0,1,0,.33A.43.43,0,0,1,149,24.67Zm-1.76-.85s0,0,0,0l1.79.42,0,.2.05-.2a.08.08,0,0,0,0,0c-.64-.16-1.24-.29-1.8-.41Zm-10.84.3a.41.41,0,0,1-.4-.31.43.43,0,0,1,.29-.52c.62-.19,1.24-.34,1.83-.46a.4.4,0,0,1,.32.06.37.37,0,0,1,.17.27.44.44,0,0,1-.34.5,17.06,17.06,0,0,0-1.74.44Zm1.81-.89a15.78,15.78,0,0,0-1.8.45l0,0h0c.61-.18,1.21-.33,1.79-.45C138.23,23.25,138.25,23.24,138.24,23.23Zm7.22.67h-.08c-.64-.12-1.24-.22-1.78-.3a.42.42,0,0,1-.35-.49.45.45,0,0,1,.5-.35c.55.08,1.16.19,1.81.31a.42.42,0,0,1,.27.18.43.43,0,0,1,.06.33A.45.45,0,0,1,145.46,23.9Zm0-.4h0a0,0,0,0,0,0,0c-.65-.13-1.26-.24-1.8-.32,0,0,0,0,0,0C144.21,23.27,144.81,23.37,145.45,23.5Zm-5.39-.1a.41.41,0,0,1-.45-.39h0a.44.44,0,0,1,.4-.44,10.41,10.41,0,0,1,1.24,0l.65,0a.48.48,0,0,1,.3.15.44.44,0,0,1,.09.31.46.46,0,0,1-.47.39l-.61,0c-.37,0-.76,0-1.15,0ZM140,23a0,0,0,0,0,0,0h0c.41,0,.81-.05,1.2,0l.63,0,0,0a4.88,4.88,0,0,0-.64,0c-.39,0-.79,0-1.2,0A0,0,0,0,0,140,23Z" fill="#2efddb"/><path d="M187.35,37.43h0l-.11,0a.45.45,0,0,1-.28-.2.47.47,0,0,1,0-.33c.06-.2.1-.37.14-.51l-.51-.18a.45.45,0,0,1-.25-.22.45.45,0,0,1,0-.34.45.45,0,0,1,.57-.25l.91.31a.43.43,0,0,1,.27.53c0,.06-.11.36-.25.88A.45.45,0,0,1,187.35,37.43Zm-.65-1.67,0,0,.9.33-.05.19c0,.15-.11.38-.2.69h0l0,0,0,0c.14-.53.24-.84.25-.89l.05-.23-.07.19-.9-.31Z" fill="#2efddb"/><path d="M185.31,69.12h0a.44.44,0,0,1-.43-.36h0c-.14-.66-.26-1.34-.37-2a.42.42,0,0,1,.08-.33.43.43,0,0,1,.29-.18.45.45,0,0,1,.51.38c.11.67.23,1.34.37,2a.48.48,0,0,1-.06.33.44.44,0,0,1-.29.19Zm-.37-2.5h0l0,0c.1.68.23,1.36.37,2h0a0,0,0,0,0,0,0l0,0c-.13-.69-.26-1.36-.37-2A0,0,0,0,0,184.94,66.62Zm-.28-1.54a.44.44,0,0,1-.44-.39c-.07-.66-.14-1.35-.19-2a.46.46,0,0,1,.11-.32.42.42,0,0,1,.31-.15.42.42,0,0,1,.32.1.47.47,0,0,1,.16.31c0,.68.11,1.35.18,2a.43.43,0,0,1-.4.49Zm-.22-2.46c.05.69.11,1.37.18,2h0s0,0,0,0l0,0c-.07-.66-.14-1.34-.19-2h0l0,0-.24.05ZM184.39,61a.45.45,0,0,1-.46-.43h0c0-.66,0-1.34,0-2a.44.44,0,0,1,.13-.31.42.42,0,0,1,.32-.13h0a.44.44,0,0,1,.44.44c0,.68,0,1.35,0,2a.47.47,0,0,1-.12.32A.5.5,0,0,1,184.39,61Zm-.06-.45a0,0,0,0,0,0,0l.25,0h-.2c0-.66,0-1.34,0-2,0,0,0,0,0,0l-.24,0h.2C184.3,59.26,184.31,59.94,184.33,60.59Zm0-3.58h0a.45.45,0,0,1-.43-.46c0-.66.05-1.34.09-2a.41.41,0,0,1,.14-.3.5.5,0,0,1,.33-.12.44.44,0,0,1,.3.15.43.43,0,0,1,.12.32c0,.66-.07,1.33-.09,2A.44.44,0,0,1,184.37,57Zm.08-2.48,0,0c0,.67-.07,1.34-.09,2a0,0,0,0,0,0,0s0,0,0,0c0-.66.05-1.33.08-2C184.5,54.55,184.47,54.53,184.45,54.53ZM184.6,53h0a.47.47,0,0,1-.31-.16.46.46,0,0,1-.1-.32c0-.65.12-1.33.19-2a.46.46,0,0,1,.49-.39.53.53,0,0,1,.31.17.45.45,0,0,1,.09.32c-.07.66-.14,1.33-.19,2A.45.45,0,0,1,184.6,53Zm.19-2.46s0,0,0,0c-.08.66-.14,1.33-.2,2h0l0,0s0,0,0,0c.05-.65.12-1.32.19-2l0-.23,0,.2ZM185,49H185a.48.48,0,0,1-.3-.17.46.46,0,0,1-.09-.32c.09-.65.19-1.32.29-2a.45.45,0,0,1,.8-.19.43.43,0,0,1,.08.33c-.1.65-.2,1.31-.28,1.95A.44.44,0,0,1,185,49Zm.28-2.43s0,0,0,0c-.1.65-.2,1.31-.28,2l0,0,0,.2,0-.2s0,0,0,0c.08-.65.18-1.31.28-2h0l0,0Zm.33-1.49h-.08a.44.44,0,0,1-.29-.19.41.41,0,0,1-.07-.32c.11-.65.24-1.31.37-2a.44.44,0,0,1,.51-.35.46.46,0,0,1,.29.19.43.43,0,0,1,.07.33c-.13.63-.25,1.28-.37,1.93A.43.43,0,0,1,185.64,45.12Zm0-.2,0-.2h0a0,0,0,0,0,0,0c.12-.65.24-1.3.37-1.94v-.24l0,.2a.05.05,0,0,0,0,0c-.13.64-.25,1.29-.36,1.94v.24l0-.2Zm.82-3.67h-.09a.43.43,0,0,1-.35-.52c.15-.65.3-1.3.45-1.93a.46.46,0,0,1,.54-.32.51.51,0,0,1,.28.2.4.4,0,0,1,0,.32l-.45,1.91A.44.44,0,0,1,186.41,41.25Zm.45-2.39s0,0,0,0c-.16.62-.31,1.27-.45,1.92V41l0-.2h0l0,0c.14-.65.29-1.3.45-1.92v-.23l0,.19Z" fill="#2efddb"/><path d="M185.28,72.64h0a.43.43,0,0,1-.43-.51.42.42,0,0,1,.17-.29l.54-.4c-.07-.21-.13-.43-.19-.65a.45.45,0,0,1,.05-.34.45.45,0,0,1,.82.11q.14.48.27.93a.44.44,0,0,1-.16.48h0l-.79.59A.47.47,0,0,1,185.28,72.64Zm.5-2h0l0,0c.07.27.14.53.22.78l0,.14-.12.08-.65.49-.16.17.16-.12a0,0,0,0,0,0,0h0l.79-.58s0,0,0,0l-.27-.94S185.81,70.64,185.78,70.64Z" fill="#2efddb"/><path d="M146.5,92.93a.46.46,0,0,1-.46-.43h0a.45.45,0,0,1,.43-.47,18,18,0,0,0,1.93-.17.47.47,0,0,1,.33.09.48.48,0,0,1,.17.3.45.45,0,0,1-.38.5C147.85,92.84,147.17,92.9,146.5,92.93Zm-.05-.45s0,0,0,0a18.66,18.66,0,0,0,2-.17s0,0,0,0l-.07-.24,0,.2q-1,.13-2,.18S146.45,92.46,146.45,92.48Zm-1.95.43h0c-.66,0-1.33-.1-2-.19a.46.46,0,0,1-.29-.17.5.5,0,0,1-.09-.33.5.5,0,0,1,.18-.31.41.41,0,0,1,.32-.07c.65.08,1.3.15,1.93.18a.42.42,0,0,1,.3.15.47.47,0,0,1,.12.32A.45.45,0,0,1,144.5,92.91Zm0-.4h0a.07.07,0,0,0,0,0s0,0,0,0c-.65,0-1.31-.09-2-.18l0,0s0,0,0,0C143.19,92.41,143.85,92.48,144.5,92.51Zm5.92-.11h0a.46.46,0,0,1-.42-.35h0a.46.46,0,0,1,.34-.54q.93-.21,1.89-.51a.5.5,0,0,1,.34,0,.49.49,0,0,1,.22.27.45.45,0,0,1-.3.56c-.66.21-1.32.38-2,.53Zm0-.44s0,0,0,0c.63-.15,1.28-.32,1.93-.53a0,0,0,0,0,0,0l-.11-.22.06.19c-.65.2-1.29.38-1.92.52C150.39,91.91,150.38,91.94,150.38,92Zm-9.78.41h-.1c-.63-.14-1.28-.31-1.93-.5a.45.45,0,0,1-.08-.82.43.43,0,0,1,.33,0c.63.19,1.26.35,1.88.49A.45.45,0,0,1,141,92,.43.43,0,0,1,140.6,92.37Zm0-.4h0a.08.08,0,0,0,0,0s0,0,0,0c-.63-.14-1.27-.31-1.9-.5l0,0s0,0,0,0C139.33,91.66,140,91.83,140.59,92Zm13.64-.76h0a.43.43,0,0,1-.4-.29h0a.45.45,0,0,1,.25-.57c.59-.23,1.19-.48,1.83-.77a.4.4,0,0,1,.34,0,.39.39,0,0,1,.24.23.45.45,0,0,1-.22.59c-.65.3-1.26.56-1.86.79ZM156,89.76l.08.18c-.64.3-1.24.55-1.84.78a0,0,0,0,0,0,.06h0s0,0,0,0c.6-.24,1.21-.49,1.85-.78a0,0,0,0,0,0-.06Zm1.91-.19h0a.43.43,0,0,1-.38-.25h0a.45.45,0,0,1,.2-.6c.66-.32,1.3-.65,1.78-.9a.41.41,0,0,1,.34,0,.38.38,0,0,1,.26.22.44.44,0,0,1-.19.6l-1.79.92A.45.45,0,0,1,157.88,89.57ZM159.56,88l.09.18c-.49.25-1.13.58-1.79.9a0,0,0,0,0,0,.06h0a.05.05,0,0,0,0,0c.67-.33,1.32-.66,1.81-.92,0,0,0,0,0-.06Zm1.89-.26h0a.46.46,0,0,1-.38-.25.45.45,0,0,1,.2-.6l1.8-.91a.44.44,0,0,1,.34,0,.43.43,0,0,1,.25.23.45.45,0,0,1-.2.6c-.52.25-1.09.54-1.79.9A.46.46,0,0,1,161.45,87.74Zm1.77-1.4-1.79.91a0,0,0,0,0,0,.06h0a0,0,0,0,0,0,0l1.81-.91a0,0,0,0,0,0-.06Zm1.83-.4h0a.45.45,0,0,1-.19-.85c.55-.28,1.14-.61,1.76-1a.42.42,0,0,1,.6.17.45.45,0,0,1,.05.34.51.51,0,0,1-.21.27c-.63.35-1.23.68-1.79,1A.46.46,0,0,1,165.05,85.94Zm1.74-1.45c-.62.35-1.21.67-1.76,1a0,0,0,0,0,0,.06h0a0,0,0,0,0,0,0c.57-.29,1.16-.61,1.79-1l.19-.15-.18.1Zm1.77-.53h0a.42.42,0,0,1-.37-.22.41.41,0,0,1-.05-.34.42.42,0,0,1,.2-.27l1.71-1a.45.45,0,0,1,.62.15.5.5,0,0,1,.06.34.51.51,0,0,1-.2.28l-1.73,1.05A.46.46,0,0,1,168.56,84Zm1.72-1.54s0,0,0,0l-1.72,1,0,0,0,0c.57-.33,1.15-.69,1.75-1.06v-.06Zm1.71-.58h0a.49.49,0,0,1-.37-.21h0a.5.5,0,0,1-.06-.34.51.51,0,0,1,.2-.28l1.68-1.09a.45.45,0,0,1,.62.12.45.45,0,0,1,.07.34.44.44,0,0,1-.19.29l-1.7,1.1A.48.48,0,0,1,172,81.84Zm1.69-1.59h0l-1.7,1.1-.18.17.17-.11a0,0,0,0,0,0,0l1.72-1.1v-.06Zm1.69-.63h0a.46.46,0,0,1-.36-.19h0a.46.46,0,0,1-.07-.33.48.48,0,0,1,.19-.29l1.67-1.13a.46.46,0,0,1,.7.46.45.45,0,0,1-.19.28l-1.68,1.14A.4.4,0,0,1,175.37,79.62ZM177,78h0l-1.67,1.13-.18.17.17-.11a0,0,0,0,0,0,0c.6-.39,1.15-.77,1.7-1.14l.18-.18-.17.12A.05.05,0,0,0,177,78Zm1.67-.66h0a.45.45,0,0,1-.36-.19h0a.42.42,0,0,1-.07-.33.43.43,0,0,1,.18-.29l1.65-1.16a.46.46,0,0,1,.71.45.45.45,0,0,1-.18.28L179,77.26A.42.42,0,0,1,178.7,77.34Zm1.65-1.64h0l-1.66,1.16v.06l0,0c.6-.41,1.15-.79,1.68-1.17l.17-.17-.16.12S180.37,75.7,180.35,75.7ZM182,75h0a.48.48,0,0,1-.35-.19h0a.44.44,0,0,1-.08-.33.43.43,0,0,1,.18-.29L183.38,73a.45.45,0,0,1,.62.09.46.46,0,0,1,.09.34.43.43,0,0,1-.18.29l-1.64,1.18A.43.43,0,0,1,182,75Zm1.63-1.67h0L182,74.54l-.17.17.17-.12a0,0,0,0,0,0,0c.63-.44,1.18-.83,1.67-1.19v0A0,0,0,0,0,183.64,73.35Z" fill="#2efddb"/><path d="M136.84,91.26h0l-.13,0-.89-.35a.44.44,0,0,1-.25-.57.45.45,0,0,1,.24-.25.42.42,0,0,1,.33,0l.87.34a.45.45,0,0,1,.27.57A.44.44,0,0,1,136.84,91.26Zm-.87-.82,0,0a0,0,0,0,0,0,.06l.88.34h0a.05.05,0,0,0,0,0s0,0,0,0Z" fill="#2efddb"/><rect x="0.5" y="0.5" width="321.78" height="213.33" rx="28.47" fill="none" stroke="#2efddb" stroke-miterlimit="10"/></g>
    <g transform="translate(0,150)" class="svg-text">
      <text x="160" text-anchor="middle" id="mask1">
        Mask usage is recommended
      </text>
      <text x="160" y="20" text-anchor="middle">
        (not supplied by CUBE stores!)
      </text>
    </g>
</svg>