<svg xmlns="http://www.w3.org/2000/svg" viewBox="0 0 322.78 214.33"><g id="Layer_2" data-name="Layer 2"><path d="M178.35,71.5a13.94,13.94,0,0,1-11.64-8.71A56,56,0,0,1,164.53,55c-1-3.87-2-7.76-3-11.64a3,3,0,0,1,2.2-3.69,3,3,0,0,1,3.67,2.12c.84,2.56,1.7,5.11,2.54,7.67.23.7.44,1.44,1.39,1.38s1-.78,1.19-1.47q2.52-10.84,5.07-21.69a2.9,2.9,0,0,1,2.72-2.44,2.76,2.76,0,0,1,2.77,2,4,4,0,0,1,0,1.84c-1,4.49-2.06,9-3.11,13.46-.11.47-.29,1,.36,1.15s.76-.37.91-.82l5-15a2.86,2.86,0,0,1,2.8-2.11,2.72,2.72,0,0,1,2.67,2.1,4.3,4.3,0,0,1-.19,2.1c-1.63,5-3.32,10-5,15a1.55,1.55,0,0,0-.18.63c0,.26.17.67.35.72s.54-.15.75-.33.2-.38.3-.58q3-6.24,6.11-12.49A2.8,2.8,0,0,1,197,31.24a2.67,2.67,0,0,1,2.28,2.42,4.28,4.28,0,0,1-.43,2c-2.08,4.35-4.22,8.67-6.32,13a1.46,1.46,0,0,0-.15,1c.26.66,1,.54,1.52-.23,1.77-2.67,3.52-5.34,5.28-8a2.77,2.77,0,0,1,3-1.31,2.69,2.69,0,0,1,2.2,2.07,3.11,3.11,0,0,1-.62,2.65c-3.72,5.66-7.48,11.29-11.11,17A23.33,23.33,0,0,1,186.09,69,13.78,13.78,0,0,1,178.35,71.5Z" fill="#2efddb"/><path d="M143.86,90a13.29,13.29,0,0,1-7.38-2.55A23.14,23.14,0,0,1,130,80.32c-3.36-5.41-6.87-10.72-10.31-16.08-.31-.47-.62-.94-.91-1.42a2.84,2.84,0,1,1,4.78-3.07c1.69,2.57,3.34,5.16,5,7.74.16.24.27.57.49.68a1.26,1.26,0,0,0,1,.12c.19-.09.29-.56.28-.86a2.07,2.07,0,0,0-.33-.77c-2.06-4.3-4.13-8.59-6.16-12.9a2.83,2.83,0,0,1,2.76-4.22A2.93,2.93,0,0,1,129,51.39c1.92,4,3.87,8.09,5.81,12.13a1.66,1.66,0,0,0,.29.58,9,9,0,0,0,.95.67c.07-.38.29-.82.19-1.15-1.6-5-3.24-9.95-4.87-14.92-.07-.21-.15-.42-.21-.63A2.86,2.86,0,0,1,133,44.35a2.83,2.83,0,0,1,3.62,2c1.62,4.88,3.21,9.76,4.83,14.64.17.51.13,1.41,1,1.19s.41-1.06.29-1.58c-1-4.47-2-8.93-3-13.39a2.84,2.84,0,0,1,4-3.18,3,3,0,0,1,1.67,2.25q1.43,6.38,2.87,12.75c.68,3,1.38,6,2,9.07.16.71.43,1.3,1.22,1.33s1.05-.54,1.27-1.18c.87-2.61,1.77-5.22,2.65-7.83a3,3,0,0,1,3.77-2.1,3,3,0,0,1,2.07,3.76c-1.5,5.79-3,11.59-4.56,17.36A14.42,14.42,0,0,1,144.59,89.9Z" fill="#2efddb"/><rect x="0.5" y="0.5" width="321.78" height="213.33" rx="28.47" fill="none" stroke="#2efddb" stroke-miterlimit="10"/></g>

  <g transform="translate(0,140)" class="svg-text">
      <text x="160" text-anchor="middle">
        Perform frequent hand hygiene
      </text>
      <text x="160" y="20" text-anchor="middle">
        Alcohol based hand gel usage is
      </text>
      <text x="160" y="40" text-anchor="middle">
        highly recommended.
      </text>
    </g>
</svg>