<svg xmlns="http://www.w3.org/2000/svg" viewBox="0 0 322.78 214.33"><g id="Layer_2" data-name="Layer 2"><path d="M127.59,65.58q0-10,0-19.95c0-.37.19-1-.42-1s-.43.57-.43.94q0,7,0,14a2.16,2.16,0,0,1-1.42,2.31,2.12,2.12,0,0,1-2.78-2.21c0-2.5,0-5,0-7.5,0-3.15,0-6.31,0-9.47A4.58,4.58,0,0,1,127,37.92c2.6-.12,5.21-.07,7.81-.07,2.1,0,4.2,0,6.29.08a4.73,4.73,0,0,1,4.47,4.85q0,8.43,0,16.85a2.12,2.12,0,0,1-2.71,2.29,2.08,2.08,0,0,1-1.48-2.18c0-2,0-4,0-6V45.5a1.17,1.17,0,0,0,0-.5c-.07-.14-.27-.35-.38-.33a.75.75,0,0,0-.42.37,1.18,1.18,0,0,0,0,.5V85a9.51,9.51,0,0,1,0,1.07,3,3,0,0,1-6-.37q0-6.25,0-12.52V62.72c0-.13,0-.29,0-.38a.94.94,0,0,0-.44-.4c-.09,0-.31.22-.37.38a1.88,1.88,0,0,0,0,.63q0,11.28,0,22.57a3.06,3.06,0,0,1-2.15,3.22,3,3,0,0,1-3.87-3.07c0-3.54,0-7.08,0-10.62V65.58Z" fill="#2efddb"/><path d="M138.77,31.14a4.77,4.77,0,1,1-9.54-.06,4.77,4.77,0,0,1,9.54.06Z" fill="#2efddb"/><path d="M182.28,65.58q0-10,0-19.95c0-.37.19-1-.41-1s-.43.57-.44.94c0,4.66,0,9.32,0,14A2.15,2.15,0,0,1,180,61.91a2.12,2.12,0,0,1-2.78-2.21V52.2c0-3.15,0-6.31,0-9.47a4.58,4.58,0,0,1,4.46-4.81c2.6-.12,5.21-.07,7.82-.07,2.09,0,4.19,0,6.29.08a4.74,4.74,0,0,1,4.47,4.85V59.63a2.12,2.12,0,0,1-2.7,2.29,2.08,2.08,0,0,1-1.49-2.18c0-2,0-4,0-6,0-2.73,0-5.47,0-8.2a1.17,1.17,0,0,0,0-.5c-.08-.14-.28-.35-.38-.33a.69.69,0,0,0-.42.37,1.18,1.18,0,0,0,0,.5q0,19.74,0,39.48a9.49,9.49,0,0,1,0,1.07,3,3,0,0,1-6-.37q0-6.25,0-12.52c0-3.49,0-7,0-10.48,0-.13,0-.29,0-.38s-.27-.36-.45-.4-.31.22-.37.38a1.89,1.89,0,0,0,0,.63V85.52a3.08,3.08,0,0,1-2.16,3.22,3,3,0,0,1-3.87-3.07c0-3.54,0-7.08,0-10.62V65.58Z" fill="#2efddb"/><path d="M193.46,31.14a4.78,4.78,0,1,1-9.55-.06,4.78,4.78,0,0,1,9.55.06Z" fill="#2efddb"/><polygon points="168.21 57.8 155.47 57.8 155.47 56.13 151.59 58.36 155.47 60.6 155.47 58.92 168.21 58.92 168.21 60.6 172.09 58.36 168.21 56.13 168.21 57.8" fill="#2efddb"/><rect x="0.5" y="0.5" width="321.78" height="213.33" rx="28.47" fill="none" stroke="#2efddb" stroke-miterlimit="10"/></g>

<g transform="translate(0,150)" class="svg-text">
      <text x="160" text-anchor="middle">
        Respect social distancing
      </text>
      <text x="160" y="20" text-anchor="middle">
        and health instructions.
      </text>
    </g>
</svg>