<svg xmlns="http://www.w3.org/2000/svg" viewBox="0 0 322.78 214.33"><g id="Layer_2" data-name="Layer 2"><path d="M145.91,56.42l-3,5.44Q137.41,71.64,132,81.41c-.33.61-.62.7-1.21.33-1.1-.7-2.23-1.35-3.38-2a.91.91,0,0,1-.51-1.31C129,72.22,131.1,66,133.21,59.74Q137.5,47,141.83,34.26a1.94,1.94,0,0,1,.87-1c3.8-1.68,7.61-3.31,11.42-4.95,1.23-.53,1.24-.52,1.26.79a6.09,6.09,0,0,0,3.92,5.66,6,6,0,0,0,6.6-1.62,5.92,5.92,0,0,0,1.55-4.23c0-1,.1-1.1,1.05-.69,3.89,1.67,7.78,3.34,11.66,5a1.44,1.44,0,0,1,.7.76q5.83,17.19,11.63,34.38c1.13,3.35,2.24,6.72,3.4,10.06a1,1,0,0,1-.54,1.38c-1.15.62-2.29,1.27-3.39,2-.57.36-.83.24-1.14-.32q-5.43-9.78-10.89-19.55c-1-1.76-2-3.53-3.13-5.27,0,.3,0,.6,0,.9q0,14.19,0,28.39c0,1.35,0,1.35-1.31,1.35-9.43,0-18.87,0-28.31,0-.82,0-1-.26-1-1.05,0-9.49,0-19,0-28.48V56.48ZM154.57,29c-1.12.21-1.2.3-1.1,1.3a8,8,0,0,0,15.91,0c.11-.94-.28-1.24-1.2-1.33a6.82,6.82,0,0,1-1.94,4.81,6.46,6.46,0,0,1-4.83,2C157.78,35.75,155.75,33.74,154.57,29ZM127.46,79l3.81,2.22.66-1.19-4.06-2.18Zm67.46-1.17L190.86,80l.67,1.17L195.3,79Z" fill="#2efddb"/><rect x="0.5" y="0.5" width="321.78" height="213.33" rx="28.47" fill="none" stroke="#2efddb" stroke-miterlimit="10"/></g>

<g transform="translate(0,150)" class="svg-text">
      <text x="160" text-anchor="middle">
        Kind recommendation about
      </text>
      <text x="160" y="20" text-anchor="middle">
        wearing long-sleeved clothes.
      </text>
    </g>
</svg>