<svg xmlns="http://www.w3.org/2000/svg" viewBox="0 0 322.78 214.33"><g id="Layer_2" data-name="Layer 2"><path d="M184.6,27.76H138.18A5.23,5.23,0,0,0,133,33V79.41a5.22,5.22,0,0,0,5.23,5.22H184.6a5.21,5.21,0,0,0,5.22-5.22V33A5.22,5.22,0,0,0,184.6,27.76ZM178.47,61.5H166.69V73.28H156.08V61.5H144.31V50.89h11.77V39.12h10.61V50.89h11.78Z" fill="#2efddb"/><path d="M147.52,16.26h27.73a3.23,3.23,0,0,1,3.23,3.23V30.41a0,0,0,0,1,0,0H144.29a0,0,0,0,1,0,0V19.5A3.23,3.23,0,0,1,147.52,16.26Z" fill="none" stroke="#2efddb" stroke-miterlimit="10" stroke-width="2"/><rect x="0.5" y="0.5" width="321.78" height="213.33" rx="28.47" fill="none" stroke="#2efddb" stroke-miterlimit="10"/></g>

  <g transform="translate(0,140)" class="svg-text">
      <text x="160" text-anchor="middle">
        Players should not be under any
      </text>
      <text x="160" y="20" text-anchor="middle">
        medical treatment or any
      </text>
      <text x="160" y="40" text-anchor="middle">
        heart problem record.
      </text>
    </g>
</svg>