<svg xmlns="http://www.w3.org/2000/svg" viewBox="0 0 322.78 214.33"><g id="Layer_2" data-name="Layer 2"><path d="M146.27,59.05s.22-.23.39-.46c4.18-5.66,10.19-6.86,16.24-3.18,1.13.68,2.1,1.64,3.21,2.37a13.1,13.1,0,0,0,2.29.9c-.46-3.18-.88-5.79-1.21-8.42-.54-4.22-.86-8.47-1.61-12.64A22.76,22.76,0,0,0,163.22,32a1.67,1.67,0,0,0-1.41-.76c-2.52.84-5,.18-7.45-.11a52.63,52.63,0,0,0-5.48-.14,4.18,4.18,0,0,1-1.37,0c-.58-.22-1.4-.57-1.52-1s.27-1.3.55-1.92c.13-.29.51-.46,1-.84-2.38-1.84-1.19-3.59.12-5.32.92-1.23,1.94-2.39,2.81-3.66A2.68,2.68,0,0,1,154,17.07c2,.91,4,2,6,3.06a52.32,52.32,0,0,1,5.52,3.35,22.09,22.09,0,0,1,4.79,4.23c4.07,5.35,8,10.83,11.81,16.34A84,84,0,0,1,192.3,62.81c1.14,3,.34,6.3-2.62,7.63-7,3.13-13.3,7.57-20.69,9.8a43.37,43.37,0,0,1-18.06,1.91c-3.05-.37-6-.42-8.62,1.75a2.2,2.2,0,0,1-2,0,19.29,19.29,0,0,1-4.76-3.26c-4.94-5.54-7-12-4.49-19.19,2.22-6.35,9.08-8.33,14.56-4.43C146.1,57.33,146.07,58.38,146.27,59.05Z" fill="#2efddb"/><rect x="0.5" y="0.5" width="321.78" height="213.33" rx="28.47" fill="none" stroke="#2efddb" stroke-miterlimit="10"/></g>

  <g transform="translate(0,130)" class="svg-text">
      <text x="160" text-anchor="middle">
        Be sure to be in a good physical
      </text>
      <text x="160" y="20" text-anchor="middle">
        condition. Any medical contra-
      </text>
      <text x="160" y="40" text-anchor="middle">
        indications about practising any
      </text>
      <text x="160" y="60" text-anchor="middle">
        sport activity should be declared!
      </text>
    </g>
</svg>