<svg xmlns="http://www.w3.org/2000/svg" viewBox="0 0 322.78 214.33"><g id="Layer_2" data-name="Layer 2"><path d="M146,35c1.5-1.48,3.16-3.1,4.81-4.74,2.5-2.49,5-5,7.5-7.48a13.14,13.14,0,0,1,22,5.79,12.08,12.08,0,0,1-2.67,12.07c-4.22,4.5-8.75,8.7-13,12.92Zm5.26,1.7L152,36c3.05-3,6-6.12,9.17-8.92,4.24-3.72,8.61-4,13.53-1.2.5.29,1,.62,1.48.91a5.83,5.83,0,0,0,.62.28c-2.6-3.12-5.7-5.19-9.9-5a11.68,11.68,0,0,0-7.63,3.8c-2.82,2.78-5.59,5.6-8.4,8.38a7.17,7.17,0,0,1-1.17.77l.3.27Z" fill="#2efddb"/><path d="M195,69.44c-.15,6.15-6.77,12.24-13.36,12.51a14.4,14.4,0,0,1-15.09-12.51Z" fill="#2efddb"/><path d="M195,65.63H166.55c.24-5,5-12.11,13.47-12.52C187.55,52.74,194.38,58.44,195,65.63Z" fill="#2efddb"/><path d="M162.53,55.67c-4.19,4.23-8.34,8.65-12.74,12.79a13.15,13.15,0,0,1-21.72-7.28,11.85,11.85,0,0,1,2.82-10.86c4.3-4.51,8.88-8.76,13.29-13.06ZM144.05,41.12c-.2.19-.43.38-.65.6q-4.77,4.76-9.54,9.54A10.31,10.31,0,1,0,148.4,65.88c1.83-1.79,3.61-3.62,5.45-5.4,1.64-1.59,3.32-3.13,4.93-4.64Z" fill="#2efddb"/><rect x="0.5" y="0.5" width="321.78" height="213.33" rx="28.47" fill="none" stroke="#2efddb" stroke-miterlimit="10"/></g>
  <g transform="translate(0,140)" class="svg-text">
      <text x="160" text-anchor="middle">
        Players should not be
      </text>
      <text x="160" y="20" text-anchor="middle">
        inebriated or be under the
      </text>
      <text x="160" y="40" text-anchor="middle">
        influence of drugs.
      </text>
    </g>
</svg>