<svg xmlns="http://www.w3.org/2000/svg" viewBox="0 0 322.78 214.33"><g id="Layer_2" data-name="Layer 2"><path d="M172,74c-2.58,0-4.93,0-7.29,0a1.07,1.07,0,0,0-1.26,1c-.35,1.41-.75,2.8-1.21,4.18a1.22,1.22,0,0,1-.84.7c-2.54,0-5.08,0-7.77,0V74h-6l3.58-23.28,5.34,3.18L159.94,56c.93.56,1.72.49,2.09-.21.49-1-.07-1.49-.82-1.94-3.82-2.3-7.63-4.62-11.47-6.89a1.58,1.58,0,0,1-.94-1.9c.72-4.11,1.35-8.23,2-12.34.63-3.82,3.63-5.43,7.25-3.89A6.5,6.5,0,0,1,162,33.48c.54,2.11,1.06,4.22,1.54,6.34a1.07,1.07,0,0,0,1.06,1,13.22,13.22,0,0,1,11.54,12.78,12.9,12.9,0,0,1-5.31,11.35,1.57,1.57,0,0,0-.66,2C170.8,69.22,171.33,71.55,172,74Z" fill="#2efddb"/><path d="M146.62,20.82l.64,0c1.85.14,2.62-.41,3-2.21a6.59,6.59,0,0,1,13.1.5c.23,4.69-3,7.89-7.68,7.6a10.85,10.85,0,0,1-8.57-4.84,4.88,4.88,0,0,1-.38-.66A2.25,2.25,0,0,1,146.62,20.82Z" fill="#2efddb"/><rect x="0.5" y="0.5" width="321.78" height="213.33" rx="28.47" fill="none" stroke="#2efddb" stroke-miterlimit="10"/></g>
  <g transform="translate(0,140)" class="svg-text">
      <text x="160" text-anchor="middle">
        Players should not be pregnant
      </text>
      <text x="160" y="20" text-anchor="middle">
        or have given birth within
      </text>
      <text x="160" y="40" text-anchor="middle">
        last 6 months.
      </text>
    </g>
</svg>