<svg id="CATEGORIES" xmlns="http://www.w3.org/2000/svg" width="68" height="78" viewBox="0 0 68 78">
    <defs>
        <style>.all_cube_1,.all_cube_2{fill:#fff;}.all_cube_2{fill-rule:evenodd;}</style>
    </defs>
    <g id="ALL">
        <path class="all_cube_1"
              d="M34,77.89a3.13,3.13,0,0,1-1.57-.42L1.57,59.57A3.16,3.16,0,0,1,0,56.84L0,21.1A3.17,3.17,0,0,1,1.6,18.36h0L32.46.52a3.14,3.14,0,0,1,3.15,0l30.82,17.9A3.16,3.16,0,0,1,68,21.15l0,35.74a3.16,3.16,0,0,1-1.57,2.73L35.54,77.47A3.13,3.13,0,0,1,34,77.89ZM2.7,20.27a1,1,0,0,0-.48.83l0,35.74a1,1,0,0,0,.48.83L33.49,75.56a1,1,0,0,0,1,0L65.31,57.72a1,1,0,0,0,.47-.83l0-35.74a1,1,0,0,0-.48-.83L34.51,2.42a1,1,0,0,0-.95,0L2.7,20.27Z"/>
        <polygon class="all_cube_1" points="32.78 76.42 35.35 76.42 34.19 60.26 32.78 76.42"/>
        <polygon class="all_cube_1" points="2.17 19.18 0.92 21.43 15.56 28.27 2.17 19.18"/>
        <polygon class="all_cube_1" points="65.98 19.18 67.23 21.43 52.59 28.27 65.98 19.18"/>
        <path class="all_cube_2"
              d="M21.93,36.07l11.22,5.06a2.37,2.37,0,0,0,2.49,0l11.22-5.06a1.55,1.55,0,0,0,0-2.5L35.64,27.63a2.2,2.2,0,0,0-2.49,0L21.93,33.57a1.53,1.53,0,0,0,0,2.5Zm0,5.3,11.22,5.06a2.37,2.37,0,0,0,2.49,0l11.22-5.06c.55-.26.76-1.48.76-2.13l-1.77.88L34.4,45.42l-11.46-5.3s-1-.46-1.77-.88c0,.64.17,1.81.76,2.13ZM34.4,50.72l-11.46-5.3s-1-.45-1.77-.88c0,.64.17,1.81.76,2.13l11.22,5.06a2.37,2.37,0,0,0,2.49,0l11.22-5.06c.55-.26.76-1.47.76-2.13l-1.77.88Zm0,0"/>
    </g>
</svg>