<svg id="CATEGORIES" xmlns="http://www.w3.org/2000/svg" width="68" height="78" viewBox="0 0 68 78">
  <defs>
    <style>
      .cls-1{
      fill:#19da87;
      }
      #bm5 svg g path {
      	fill: rgb(0,255,145);
      }
    </style>
  </defs>
    <title>Artboard 1 copy 30</title>
    <g id="MENTAL">
      <path class="cls-1" d="M34,78a3.13,3.13,0,0,1-1.57-.42L1.57,59.66A3.19,3.19,0,0,1,0,56.92l0-35.8A3.16,3.16,0,0,1,1.6,18.39h0L32.46.52a3.14,3.14,0,0,1,3.15,0L66.43,18.44A3.19,3.19,0,0,1,68,21.18L68,57a3.18,3.18,0,0,1-1.57,2.74L35.54,77.58A3.13,3.13,0,0,1,34,78ZM2.7,20.3a1,1,0,0,0-.48.83l0,35.79a1,1,0,0,0,.48.83L33.49,75.67a1,1,0,0,0,1,0L65.31,57.8a1,1,0,0,0,.47-.83l0-35.79a1,1,0,0,0-.48-.83L34.51,2.43a.93.93,0,0,0-.95,0L2.7,20.3Z"/><polygon class="cls-1" points="32.78 76.53 35.35 76.53 34.19 60.34 32.78 76.53"/>
      <polygon class="cls-1" points="2.17 19.2 0.92 21.46 15.56 28.31 2.17 19.2"/>
      <polygon class="cls-1" points="65.98 19.2 67.23 21.46 52.59 28.31 65.98 19.2"/>
      <path class="cls-1" d="M26.83,46.11a7.06,7.06,0,1,1,7-7.06A7.05,7.05,0,0,1,26.83,46.11Zm0-12.65a5.59,5.59,0,1,0,5.55,5.59A5.58,5.58,0,0,0,26.83,33.46Z"/><path class="cls-1" d="M41.43,46.11a7.06,7.06,0,1,1,7-7.06A7.05,7.05,0,0,1,41.43,46.11Zm0-12.65A5.59,5.59,0,1,0,47,39.05,5.58,5.58,0,0,0,41.43,33.46Z"/><rect class="cls-1" x="32.38" y="37.58" width="3.49" height="2.95"/><rect class="cls-1" x="46.99" y="37.58" width="5.02" height="2.95"/><rect class="cls-1" x="16.12" y="37.58" width="5.02" height="2.95"/></g></svg>
