<svg id="Layer_1" data-name="Layer 1" xmlns="http://www.w3.org/2000/svg" viewBox="0 0 140 203.11">
    <defs>
        <style>
            .brain-1{font-size:42.17px;font-family:"Titillium Web", sans-serif;}
            .brain-1,.brain-2{fill:#1dfe98;}
        </style>
    </defs>
    <text class="brain-1" id="brainDifficultyPercent" transform="translate(34.58 198.77)">0%</text>
    <path class="brain-2"
          d="M101.57,66.76h0a15.57,15.57,0,0,0-30.46,0H69.18a15.57,15.57,0,0,0-30.46,0H30.2v6.5h8.5a15.59,15.59,0,0,0,30.49,0H71.1a15.59,15.59,0,0,0,30.49,0h8.22v-6.5ZM54,82.33A12.33,12.33,0,1,1,66.28,70,12.33,12.33,0,0,1,54,82.33Zm32.39,0A12.35,12.35,0,0,1,74,70.33c0-.1,0-.21,0-.32s0-.21,0-.31A12.33,12.33,0,1,1,86.35,82.33Z"/>
    <path class="brain-2" d="M74,69.7v.63c0-.1,0-.21,0-.32S74,69.8,74,69.7Z"/>
    <circle class="beforeBrainProgressAnimation" cx="70" cy="70" r="65.85"/>

    <circle class="radialProgressBrain" id="brainCircle" cx="70" cy="70" r="65.85"/>
</svg>