<svg id="CATEGORIES" xmlns="http://www.w3.org/2000/svg" width="68" height="78" viewBox="0 0 68 78">
    <defs>
        <style>.cls-1{fill:#ff0049;}</style>
    </defs>
    <title>Artboard 1 copy 20</title>
    <g id="PHYSICAL">
        <polygon class="cls-1"
                 points="29.25 53.16 34.09 47.4 34.98 46.33 46.78 33.44 31.35 34.71 38.75 20.35 33.02 27.18 21.22 40.07 36.02 38.8 29.25 53.16"/>
        <path class="cls-1"
              d="M34,78a3.13,3.13,0,0,1-1.57-.42L1.57,59.66A3.19,3.19,0,0,1,0,56.92l0-35.8A3.16,3.16,0,0,1,1.6,18.39h0L32.46.52a3.14,3.14,0,0,1,3.15,0L66.43,18.44A3.19,3.19,0,0,1,68,21.18L68,57a3.18,3.18,0,0,1-1.57,2.74L35.54,77.58A3.13,3.13,0,0,1,34,78ZM2.7,20.3a1,1,0,0,0-.48.83l0,35.79a1,1,0,0,0,.48.83L33.49,75.67a1,1,0,0,0,1,0L65.31,57.8a1,1,0,0,0,.47-.83l0-35.79a1,1,0,0,0-.48-.83L34.51,2.43a.93.93,0,0,0-.95,0L2.7,20.3Z"/>
        <polygon class="cls-1" points="32.78 76.53 35.35 76.53 34.19 60.34 32.78 76.53"/>
        <polygon class="cls-1" points="2.17 19.2 0.92 21.46 15.56 28.31 2.17 19.2"/>
        <polygon class="cls-1" points="65.98 19.2 67.23 21.46 52.59 28.31 65.98 19.2"/>
    </g>
</svg>