<svg id="CATEGORIES" xmlns="http://www.w3.org/2000/svg" width="68" height="78" viewBox="0 0 68 78">
    <defs>
        <style>.cls-1{fill:#f9ff00;}</style>
    </defs>
    <title>Artboard 10</title>
    <g id="SKILLS">
        <path class="cls-1"
              d="M34,78a3.13,3.13,0,0,1-1.57-.42L1.57,59.66A3.19,3.19,0,0,1,0,56.92l0-35.8A3.16,3.16,0,0,1,1.6,18.39h0L32.46.52a3.14,3.14,0,0,1,3.15,0L66.43,18.44A3.19,3.19,0,0,1,68,21.18L68,57a3.18,3.18,0,0,1-1.57,2.74L35.54,77.58A3.13,3.13,0,0,1,34,78ZM2.7,20.3a1,1,0,0,0-.48.83l0,35.79a1,1,0,0,0,.48.83L33.49,75.67a1,1,0,0,0,1,0L65.31,57.8a1,1,0,0,0,.47-.83l0-35.79a1,1,0,0,0-.48-.83L34.51,2.43a.93.93,0,0,0-.95,0L2.7,20.3Z"/>
        <polygon class="cls-1" points="32.78 76.53 35.35 76.53 34.19 60.34 32.78 76.53"/>
        <polygon class="cls-1" points="2.17 19.2 0.92 21.46 15.56 28.31 2.17 19.2"/>
        <polygon class="cls-1" points="65.98 19.2 67.23 21.46 52.59 28.31 65.98 19.2"/>
        <path class="cls-1"
              d="M21.09,32.73a.56.56,0,0,1-.48.4l-2.88.36v2.88l2.88.36a.56.56,0,0,1,.48.4,7.13,7.13,0,0,0,.58,1.4.58.58,0,0,1-.06.63l-1.78,2.3,2,2,2.28-1.79a.58.58,0,0,1,.63-.05,7.7,7.7,0,0,0,1.39.58.55.55,0,0,1,.4.48l.36,2.89h2.86l.36-2.89a.56.56,0,0,1,.4-.48,8.11,8.11,0,0,0,1.4-.58.56.56,0,0,1,.62.05l2.28,1.79,2-2-1.78-2.3a.6.6,0,0,1-.06-.63,7.39,7.39,0,0,0,.58-1.4.57.57,0,0,1,.48-.4L39,36.37V33.49l-2.88-.36a.58.58,0,0,1-.48-.4A7.48,7.48,0,0,0,35,31.32a.58.58,0,0,1,.06-.62l1.78-2.3-2-2-2.28,1.79a.56.56,0,0,1-.62.05,8.11,8.11,0,0,0-1.4-.58.56.56,0,0,1-.4-.48l-.36-2.89H26.92l-.36,2.89a.55.55,0,0,1-.4.48,8.11,8.11,0,0,0-1.4.58.56.56,0,0,1-.62-.05l-2.28-1.79-2,2,1.78,2.3a.58.58,0,0,1,.06.62A7.48,7.48,0,0,0,21.09,32.73Zm4-1.11a4.65,4.65,0,0,1,6.58,0,4.71,4.71,0,0,1,0,6.62,4.65,4.65,0,0,1-6.58,0A4.71,4.71,0,0,1,25.06,31.62Z"/>
        <path class="cls-1"
              d="M39.25,38l-2-.53-.7,1.77,1.79,1a.56.56,0,0,1,.29.55,5.88,5.88,0,0,0,0,1.11.58.58,0,0,1-.29.56l-1.76,1,.74,1.75,2-.57a.57.57,0,0,1,.6.18,5.75,5.75,0,0,0,.78.78.56.56,0,0,1,.2.59l-.52,2,1.76.71,1-1.8a.57.57,0,0,1,.56-.29,5.79,5.79,0,0,0,1.1,0,.58.58,0,0,1,.56.29l1,1.77,1.74-.74-.57-2a.57.57,0,0,1,.19-.6,5.83,5.83,0,0,0,.77-.8.57.57,0,0,1,.59-.19l2,.52.71-1.76-1.8-1a.58.58,0,0,1-.29-.56,5.78,5.78,0,0,0,0-1.1.58.58,0,0,1,.28-.57l1.77-1L51,37.33l-2,.57a.58.58,0,0,1-.6-.18,5.29,5.29,0,0,0-.79-.78.57.57,0,0,1-.2-.6l.53-2-1.76-.7-1,1.8a.57.57,0,0,1-.55.29,5.88,5.88,0,0,0-1.11,0,.57.57,0,0,1-.56-.28l-1-1.78-1.74.75.57,2a.59.59,0,0,1-.18.6,5.75,5.75,0,0,0-.77.79A.58.58,0,0,1,39.25,38Zm3.5-.07a3.65,3.65,0,1,1-1.91,4.79A3.63,3.63,0,0,1,42.75,37.94Z"/>
        <path class="cls-1"
              d="M30.79,46.47l-1.07-.28-.39,1,1,.54a.33.33,0,0,1,.16.3,3,3,0,0,0,0,.6.31.31,0,0,1-.15.31l-1,.56.4.95,1.07-.31a.32.32,0,0,1,.33.1,2.78,2.78,0,0,0,.42.42.31.31,0,0,1,.11.32L31.41,52l.95.38.54-1a.31.31,0,0,1,.3-.16,2.41,2.41,0,0,0,.6,0,.31.31,0,0,1,.3.16l.56,1,1-.4L35.3,50.9a.31.31,0,0,1,.1-.32,3.41,3.41,0,0,0,.42-.43.31.31,0,0,1,.32-.11l1.08.28.38-1-1-.54a.32.32,0,0,1-.16-.31,4,4,0,0,0,0-.6.32.32,0,0,1,.15-.3l1-.57-.4-.95-1.07.31a.28.28,0,0,1-.32-.1,4.26,4.26,0,0,0-.43-.42.31.31,0,0,1-.11-.32l.28-1.08-1-.39-.54,1a.31.31,0,0,1-.3.16,3,3,0,0,0-.6,0,.31.31,0,0,1-.3-.16l-.56-1-1,.41.31,1.07a.3.3,0,0,1-.1.33,2.86,2.86,0,0,0-.42.43A.31.31,0,0,1,30.79,46.47Zm1.9,0a2,2,0,1,1-1,2.61A2,2,0,0,1,32.69,46.43Z"/>
    </g>
</svg>