<svg id="Layer_1" data-name="Layer 1" xmlns="http://www.w3.org/2000/svg" viewBox="0 0 140 203.11">
<defs>
    <style>.skill-1{font-size:42.17px;font-family:TitilliumWeb-Regular, Titillium
        Web;}.skill-1,.skill-2{fill:#fff33e;}
    </style>
</defs>
<text class="skill-1" id="skillDifficultyPercent" transform="translate(34.58 198.77)">0%</text>
<path class="skill-2"
      d="M71.76,67.54a1.18,1.18,0,0,1,1-.84L78.68,66V60.05l-5.93-.72a1.18,1.18,0,0,1-1-.84,14.39,14.39,0,0,0-1.2-2.88,1.17,1.17,0,0,1,.11-1.28l3.68-4.71-4.17-4.19-4.71,3.68a1.17,1.17,0,0,1-1.29.11A15.58,15.58,0,0,0,61.3,48a1.2,1.2,0,0,1-.83-1l-.74-5.92-5.91,0L53.09,47a1.2,1.2,0,0,1-.83,1,15,15,0,0,0-2.88,1.18,1.17,1.17,0,0,1-1.29-.11l-4.71-3.68L39.2,49.62l3.68,4.71a1.17,1.17,0,0,1,.1,1.28,17.14,17.14,0,0,0-1.19,2.88,1.16,1.16,0,0,1-1,.84l-5.94.72V66l5.94.72a1.16,1.16,0,0,1,1,.84A17.14,17.14,0,0,0,43,70.42a1.17,1.17,0,0,1-.1,1.28L39.2,76.41l4.18,4.19,4.71-3.68a1.17,1.17,0,0,1,1.29-.11A15,15,0,0,0,52.26,78a1.21,1.21,0,0,1,.83,1l.73,5.94h5.91L60.47,79a1.2,1.2,0,0,1,.83-1,15.58,15.58,0,0,0,2.88-1.18,1.17,1.17,0,0,1,1.29.11l4.71,3.68,4.17-4.19L70.67,71.7a1.17,1.17,0,0,1-.11-1.28A14.39,14.39,0,0,0,71.76,67.54ZM63.57,69.8a9.6,9.6,0,1,1,0-13.57A9.59,9.59,0,0,1,63.57,69.8Z"/>
<path class="skill-2"
      d="M101.44,78.23a1.13,1.13,0,0,1-.6-1.15,12.22,12.22,0,0,0,0-2.26,1.2,1.2,0,0,1,.58-1.16L105,71.54,103.5,68l-4.06,1.16a1.17,1.17,0,0,1-1.23-.38,11.14,11.14,0,0,0-1.63-1.59,1.17,1.17,0,0,1-.4-1.22l1.07-4.09-3.62-1.45-2,3.69a1.17,1.17,0,0,1-1.14.62,10.78,10.78,0,0,0-2.27,0A1.2,1.2,0,0,1,87,64.13l-2.12-3.66L81.29,62l1.18,4.06a1.19,1.19,0,0,1-.38,1.23,12.33,12.33,0,0,0-1.6,1.63,1.19,1.19,0,0,1-1.21.42l-4.1-1.09-1.45,3.62,3.7,2.05a1.19,1.19,0,0,1,.62,1.14,10.14,10.14,0,0,0,0,2.27,1.19,1.19,0,0,1-.58,1.16l-3.66,2.12,1.54,3.6,4.06-1.17a1.15,1.15,0,0,1,1.23.38A12.29,12.29,0,0,0,82.29,85a1.14,1.14,0,0,1,.39,1.21l-1.07,4.1,3.63,1.45,2.05-3.7a1.12,1.12,0,0,1,1.14-.59,12.44,12.44,0,0,0,2.28,0,1.17,1.17,0,0,1,1.14.58L94,91.69l3.61-1.54L96.4,86.09a1.18,1.18,0,0,1,.38-1.23,12.23,12.23,0,0,0,1.59-1.63,1.16,1.16,0,0,1,1.22-.4l4.09,1.07,1.45-3.63ZM92.38,83a7.5,7.5,0,1,1,4-9.84A7.49,7.49,0,0,1,92.38,83Z"/>
<path class="skill-2"
      d="M73.86,91.54a.61.61,0,0,1-.34-.61,8.41,8.41,0,0,0,0-1.23.64.64,0,0,1,.3-.64l2-1.16L75,86l-2.19.64a.64.64,0,0,1-.67-.22,6,6,0,0,0-.89-.85.62.62,0,0,1-.21-.67l.58-2.21-2-.8-1.1,2a.64.64,0,0,1-.62.33,5.07,5.07,0,0,0-1.23,0,.7.7,0,0,1-.64-.33l-1.14-2-2,.84.63,2.19a.7.7,0,0,1-.2.69,5.12,5.12,0,0,0-.87.87.64.64,0,0,1-.67.22l-2.21-.58-.8,2,2,1.11a.64.64,0,0,1,.33.61,5,5,0,0,0,0,1.23.65.65,0,0,1-.31.64l-2,1.16.83,1.94,2.21-.64a.64.64,0,0,1,.67.22,6,6,0,0,0,.89.85.69.69,0,0,1,.22.67l-.6,2.23,2,.78,1.11-2a.7.7,0,0,1,.63-.33,5.63,5.63,0,0,0,1.23,0,.65.65,0,0,1,.62.32l1.16,2,2-.84-.64-2.19a.63.63,0,0,1,.2-.67,6.08,6.08,0,0,0,.87-.89.61.61,0,0,1,.65-.22l2.23.58.78-2Zm-4.93,2.58a4.07,4.07,0,1,1,2.14-5.35A4.07,4.07,0,0,1,68.93,94.12Z"/>
    <circle class="beforeSkillProgressAnimation" cx="70" cy="70" r="65.85"/>
    <circle class="radialProgressSkill" id="skillCircle" cx="70" cy="70" r="65.85"/>
</svg>